{
.appVersion = "3099";
.formatVersion = 3;
.storedFormatVersion = 1;
DisplayStrings = (
"six/space whiz/space kids/space eject/space pineapples/space from/space every/space big/space quadrant\012SIX/space WHIZ/space KIDS/space EJECT/space PINEAPPLES/space FROM/space EVERY/space BIG/space QUADRANT/space ENT\012Will/space zan/space bagel/space shops/space equip/space for/space extra/space kava/space juice./space demand?,\012Flaunt/space our/space pizza,/space cowards,/space but/space expect/space quivering/space hitmen/space to/space jack/space it\012\012WILL/space ZAN/space BAGEL/space SHOPS/space EQUIP/space FOR/space EXTRA/space KAVA/space JUICE./space DEMAND?,\012FLAUNT/space OUR/space PIZZA,/space COWARDS,/space BUT/space EXPECT/space QUIVERING/space HITMEN/space TO/space JACK/space IT\012\012",

glyphs = (
{
glyphname = A;
kernLeft = A;
kernRight = A;
lastChange = "2020-07-29 16:03:21 +0000";
layers = (
{
anchors = (
{
name = bottom;
pos = (76,0);
},
{
name = ogonek;
pos = (133,0);
},
{
name = top;
pos = (76,1350);
}
);
layerId = "A1A0948C-E637-4A65-8CCC-05505AD98C44";
shapes = (
{
closed = 1;
nodes = (
(43,0,l),
(54,437,l),
(100,437,l),
(111,0,l),
(133,0,l),
(101,1350,l),
(53,1350,l),
(21,0,l)
);
},
{
closed = 1;
nodes = (
(73,1328,l),
(81,1328,l),
(100,459,l),
(54,459,l)
);
}
);
width = 161;
},
{
anchors = (
{
name = bottom;
pos = (379,0);
},
{
name = ogonek;
pos = (749,0);
},
{
name = top;
pos = (379,1350);
}
);
layerId = "BA0CA162-2A9B-49EE-921D-3B4346C7D39F";
shapes = (
{
closed = 1;
nodes = (
(359,0,l),
(362,314,l),
(396,314,l),
(399,0,l),
(749,0,l),
(651,1350,l),
(103,1350,l),
(9,0,l)
);
},
{
closed = 1;
nodes = (
(371,1100,l),
(387,1100,l),
(394,568,l),
(364,568,l)
);
}
);
width = 758;
},
{
anchors = (
{
name = bottom;
pos = (1192,0);
},
{
name = ogonek;
pos = (2294,0);
},
{
name = top;
pos = (1192,1350);
}
);
layerId = "C75D3228-2D13-4E9D-9829-45195F4951D0";
shapes = (
{
closed = 1;
nodes = (
(688,0,l),
(823,264,l),
(1570,264,l),
(1704,0,l),
(2294,0,l),
(1606,1350,l),
(788,1350,l),
(98,0,l)
);
},
{
closed = 1;
nodes = (
(1197,1072,l),
(1199,1072,l),
(1429,606,l),
(966,606,l)
);
}
);
width = 2388;
},
{
anchors = (
{
name = bottom;
pos = (1065,0);
},
{
name = ogonek;
pos = (2010,0);
},
{
name = top;
pos = (1065,1350);
}
);
layerId = "71977205-6510-4B11-BB00-17BACA883C8F";
shapes = (
{
closed = 1;
nodes = (
(149,0,l),
(447,437,l),
(1685,437,l),
(1982,0,l),
(2010,0,l),
(1086,1357,l),
(1047,1357,l),
(120,0,l)
);
},
{
closed = 1;
nodes = (
(1066,1342,l),
(1067,1342,l),
(1669,459,l),
(463,459,l)
);
}
);
width = 2130;
},
{
anchors = (
{
name = bottom;
pos = (948,0);
},
{
name = ogonek;
pos = (1891,0);
},
{
name = top;
pos = (1185,1350);
}
);
layerId = "5997A0D0-E78E-41EC-9011-DECBEAD8517D";
shapes = (
{
closed = 1;
nodes = (
(30,0,l),
(405,437,l),
(1643,437,l),
(1863,0,l),
(1891,0,l),
(1207,1357,l),
(1168,1357,l),
(1,0,l)
);
},
{
closed = 1;
nodes = (
(1186,1342,l),
(1187,1342,l),
(1632,459,l),
(426,459,l)
);
}
);
width = 2130;
},
{
anchors = (
{
name = bottom;
pos = (279,0);
},
{
name = ogonek;
pos = (647,0);
},
{
name = top;
pos = (518,1350);
}
);
layerId = "55C4185A-9C39-4468-B19C-DE0A3E571700";
shapes = (
{
closed = 1;
nodes = (
(257,0,l),
(315,314,l),
(349,314,l),
(297,0,l),
(647,0,l),
(787,1350,l),
(239,1350,l),
(-93,0,l)
);
},
{
closed = 1;
nodes = (
(463,1100,l),
(479,1100,l),
(392,568,l),
(362,568,l)
);
}
);
width = 758;
},
{
anchors = (
{
name = bottom;
pos = (-24,0);
},
{
name = ogonek;
pos = (34,0);
},
{
name = top;
pos = (215,1350);
}
);
layerId = "4F53612F-C4F8-4368-83AD-8913BEEF8F1D";
shapes = (
{
closed = 1;
nodes = (
(-56,0,l),
(32,437,l),
(78,437,l),
(12,0,l),
(34,0,l),
(240,1350,l),
(192,1350,l),
(-78,0,l)
);
},
{
closed = 1;
nodes = (
(208,1328,l),
(216,1328,l),
(82,459,l),
(36,459,l)
);
}
);
width = 161;
},
{
anchors = (
{
name = bottom;
pos = (1070,0);
},
{
name = ogonek;
pos = (2195,0);
},
{
name = top;
pos = (1345,1350);
}
);
layerId = "E5A4176B-9C10-4B01-BBC9-D7999ECBFAF8";
shapes = (
{
closed = 1;
nodes = (
(589,0,l),
(763,264,l),
(1529,264,l),
(1605,0,l),
(2195,0,l),
(1745,1350,l),
(927,1350,l),
(-1,0,l)
);
},
{
closed = 1;
nodes = (
(1294,1072,l),
(1296,1072,l),
(1430,606,l),
(988,606,l)
);
}
);
width = 2388;
}
);
note = A;
unicode = 65;
},
{
glyphname = AE;
kernLeft = A;
kernRight = E;
lastChange = "2020-04-16 23:48:42 +0000";
layers = (
{
anchors = (
{
name = bottom;
pos = (110,0);
},
{
name = top;
pos = (110,1350);
}
);
layerId = "A1A0948C-E637-4A65-8CCC-05505AD98C44";
shapes = (
{
closed = 1;
nodes = (
(43,0,l),
(102,1334,l),
(104,1350,l),
(86,1350,l),
(21,0,l)
);
},
{
closed = 1;
nodes = (
(109,322,l),
(109,344,l),
(41,344,l),
(43,322,l)
);
},
{
alignment = -1;
pos = (69,0);
ref = E;
}
);
width = 211;
},
{
anchors = (
{
name = bottom;
pos = (467,0);
},
{
name = top;
pos = (467,1350);
}
);
layerId = "BA0CA162-2A9B-49EE-921D-3B4346C7D39F";
shapes = (
{
closed = 1;
nodes = (
(377,0,l),
(451,1160,l),
(451,1350,l),
(163,1350,l),
(9,0,l)
);
},
{
closed = 1;
nodes = (
(569,204,l),
(569,448,l),
(293,448,l),
(239,204,l)
);
},
{
alignment = -1;
pos = (435,0);
ref = E;
}
);
width = 937;
},
{
anchors = (
{
name = bottom;
pos = (1631,0);
},
{
name = top;
pos = (1631,1350);
}
);
layerId = "C75D3228-2D13-4E9D-9829-45195F4951D0";
shapes = (
{
closed = 1;
nodes = (
(688,0,l),
(1764,1218,l),
(1764,1350,l),
(1270,1350,l),
(98,0,l)
);
},
{
closed = 1;
nodes = (
(1630,250,l),
(1630,604,l),
(758,604,l),
(638,250,l)
);
},
{
alignment = -1;
pos = (1440,0);
ref = E;
}
);
width = 3364;
},
{
anchors = (
{
name = bottom;
pos = (1625,0);
},
{
name = top;
pos = (1625,1350);
}
);
layerId = "71977205-6510-4B11-BB00-17BACA883C8F";
shapes = (
{
closed = 1;
nodes = (
(149,0,l),
(1513,1339,l),
(1513,1350,l),
(1490,1350,l),
(120,0,l)
);
},
{
closed = 1;
nodes = (
(1508,437,l),
(1508,459,l),
(598,459,l),
(568,437,l)
);
},
{
alignment = -1;
pos = (1346,0);
ref = E;
}
);
width = 3188;
},
{
anchors = (
{
name = bottom;
pos = (1326,0);
},
{
name = top;
pos = (1565,1350);
}
);
layerId = "5997A0D0-E78E-41EC-9011-DECBEAD8517D";
shapes = (
{
closed = 1;
nodes = (
(33,0,l),
(1455,1338,l),
(1457,1350,l),
(1431,1350,l),
(1,0,l)
);
},
{
closed = 1;
nodes = (
(1297,422,l),
(1301,444,l),
(499,444,l),
(461,422,l)
);
},
{
alignment = -1;
pos = (1175,0);
ref = E;
}
);
width = 3017;
},
{
anchors = (
{
name = bottom;
pos = (379,0);
},
{
name = top;
pos = (618,1350);
}
);
layerId = "55C4185A-9C39-4468-B19C-DE0A3E571700";
shapes = (
{
closed = 1;
nodes = (
(275,0,l),
(554,1160,l),
(591,1350,l),
(299,1350,l),
(-93,0,l)
);
},
{
closed = 1;
nodes = (
(503,204,l),
(546,448,l),
(270,448,l),
(173,204,l)
);
},
{
alignment = -1;
pos = (438,0);
ref = E;
}
);
width = 940;
},
{
anchors = (
{
name = bottom;
pos = (9,0);
},
{
name = top;
pos = (248,1350);
}
);
layerId = "4F53612F-C4F8-4368-83AD-8913BEEF8F1D";
shapes = (
{
closed = 1;
nodes = (
(-56,0,l),
(235,1334,l),
(238,1350,l),
(220,1350,l),
(-78,0,l)
);
},
{
closed = 1;
nodes = (
(67,322,l),
(71,344,l),
(3,344,l),
(1,322,l)
);
},
{
alignment = -1;
pos = (63,0);
ref = E;
}
);
width = 205;
},
{
anchors = (
{
name = bottom;
pos = (1576,0);
},
{
name = top;
pos = (1815,1350);
}
);
layerId = "E5A4176B-9C10-4B01-BBC9-D7999ECBFAF8";
shapes = (
{
closed = 1;
nodes = (
(589,0,l),
(1790,1218,l),
(1813,1350,l),
(1319,1350,l),
(-1,0,l)
);
},
{
closed = 1;
nodes = (
(1575,250,l),
(1637,604,l),
(735,604,l),
(553,250,l)
);
},
{
alignment = -1;
pos = (1480,0);
ref = E;
}
);
width = 3404;
}
);
metricLeft = A;
metricRight = E;
unicode = 198;
},
{
glyphname = B;
kernLeft = H;
kernRight = B;
lastChange = "2020-04-15 20:28:29 +0000";
layers = (
{
anchors = (
{
name = bottom;
pos = (84,0);
},
{
name = top;
pos = (84,1350);
}
);
layerId = "A1A0948C-E637-4A65-8CCC-05505AD98C44";
shapes = (
{
closed = 1;
nodes = (
(67,0,ls),
(130,0,o),
(130,236,o),
(130,396,qs),
(130,530,o),
(130,756,o),
(90,762,q),
(130,768,o),
(130,952,o),
(130,1068,qs),
(130,1168,o),
(130,1350,o),
(65,1350,qs),
(28,1350,l),
(28,0,l)
);
},
{
closed = 1;
nodes = (
(50,750,l),
(68,750,ls),
(108,750,o),
(108,530,o),
(108,396,qs),
(108,236,o),
(108,22,o),
(67,22,qs),
(50,22,l)
);
},
{
closed = 1;
nodes = (
(50,1328,l),
(65,1328,ls),
(108,1328,o),
(108,1170,o),
(108,1070,qs),
(108,954,o),
(108,772,o),
(68,772,qs),
(50,772,l)
);
}
);
width = 168;
},
{
anchors = (
{
name = bottom;
pos = (371,0);
},
{
name = top;
pos = (371,1350);
}
);
layerId = "BA0CA162-2A9B-49EE-921D-3B4346C7D39F";
shapes = (
{
closed = 1;
nodes = (
(496,0,ls),
(730,0,o),
(730,266,o),
(730,408,qs),
(730,508,o),
(730,738,o),
(588,746,q),
(730,748,o),
(730,956,o),
(730,1024,qs),
(730,1086,o),
(730,1350,o),
(520,1350,qs),
(12,1350,l),
(12,0,l)
);
},
{
closed = 1;
nodes = (
(360,617,l),
(368,617,ls),
(384,617,o),
(384,524,o),
(384,424,qs),
(384,324,o),
(384,254,o),
(370,254,qs),
(360,254,l)
);
},
{
closed = 1;
nodes = (
(360,1100,l),
(368,1100,ls),
(384,1100,o),
(384,1052,o),
(384,992,qs),
(384,932,o),
(384,869,o),
(368,869,q),
(360,869,l)
);
}
);
width = 742;
},
{
anchors = (
{
name = bottom;
pos = (1106,0);
},
{
name = top;
pos = (1106,1350);
}
);
layerId = "C75D3228-2D13-4E9D-9829-45195F4951D0";
shapes = (
{
closed = 1;
nodes = (
(1414,0,ls),
(1777,0,o),
(2032,191,o),
(2032,369,qs),
(2032,543,o),
(1756,684,o),
(1630,690,q),
(1756,696,o),
(1960,858,o),
(1960,1014,qs),
(1960,1180,o),
(1695,1350,o),
(1328,1350,qs),
(140,1350,l),
(140,0,l)
);
},
{
closed = 1;
nodes = (
(706,532,l),
(1310,532,ls),
(1414,532,o),
(1466,494,o),
(1466,448,qs),
(1466,402,o),
(1414,362,o),
(1310,362,qs),
(706,362,l)
);
},
{
closed = 1;
nodes = (
(706,988,l),
(1250,988,ls),
(1334,988,o),
(1386,950,o),
(1386,910,qs),
(1386,870,o),
(1334,826,o),
(1250,826,qs),
(706,826,l)
);
}
);
width = 2192;
},
{
anchors = (
{
name = bottom;
pos = (1009,0);
},
{
name = top;
pos = (1009,1350);
}
);
layerId = "71977205-6510-4B11-BB00-17BACA883C8F";
shapes = (
{
closed = 1;
nodes = (
(1344,0,ls),
(1517,0,o),
(1736,183,o),
(1736,373,qs),
(1736,557,o),
(1492,710,o),
(1353,716,q),
(1471,722,o),
(1697,889,o),
(1697,1047,qs),
(1697,1204,o),
(1494,1350,o),
(1289,1350,qs),
(150,1350,l),
(150,0,l)
);
},
{
closed = 1;
nodes = (
(172,704,l),
(1198,704,ls),
(1453,704,o),
(1712,551,o),
(1712,373,qs),
(1712,193,o),
(1507,22,o),
(1335,22,qs),
(172,22,l)
);
},
{
closed = 1;
nodes = (
(172,1328,l),
(1280,1328,ls),
(1486,1328,o),
(1673,1192,o),
(1673,1047,qs),
(1673,895,o),
(1437,726,o),
(1198,726,qs),
(172,726,l)
);
}
);
width = 1981;
},
{
anchors = (
{
name = bottom;
pos = (789,0);
},
{
name = top;
pos = (1028,1350);
}
);
layerId = "5997A0D0-E78E-41EC-9011-DECBEAD8517D";
shapes = (
{
closed = 1;
nodes = (
(1225,0,ls),
(1398,0,o),
(1650,180,o),
(1683,373,qs),
(1714,555,o),
(1498,710,o),
(1360,716,q),
(1479,722,o),
(1735,886,o),
(1763,1047,qs),
(1790,1200,o),
(1613,1350,o),
(1408,1350,qs),
(269,1350,l),
(31,0,l)
);
},
{
closed = 1;
nodes = (
(177,704,l),
(1203,704,ls),
(1458,704,o),
(1690,551,o),
(1659,373,qs),
(1627,193,o),
(1392,22,o),
(1220,22,qs),
(57,22,l)
);
},
{
closed = 1;
nodes = (
(287,1328,l),
(1395,1328,ls),
(1601,1328,o),
(1764,1192,o),
(1739,1047,qs),
(1712,895,o),
(1446,726,o),
(1207,726,qs),
(181,726,l)
);
}
);
width = 1971;
},
{
anchors = (
{
name = bottom;
pos = (275,0);
},
{
name = top;
pos = (514,1350);
}
);
layerId = "55C4185A-9C39-4468-B19C-DE0A3E571700";
shapes = (
{
closed = 1;
nodes = (
(394,0,ls),
(628,0,o),
(675,266,o),
(700,408,qs),
(718,508,o),
(758,738,o),
(618,746,q),
(760,748,o),
(797,956,o),
(809,1024,qs),
(819,1086,o),
(866,1350,o),
(656,1350,qs),
(148,1350,l),
(-90,0,l)
);
},
{
closed = 1;
nodes = (
(367,617,l),
(375,617,ls),
(391,617,o),
(374,524,o),
(357,424,qs),
(339,324,o),
(327,254,o),
(313,254,qs),
(303,254,l)
);
},
{
closed = 1;
nodes = (
(452,1100,l),
(460,1100,ls),
(476,1100,o),
(467,1052,o),
(457,992,qs),
(446,932,o),
(435,869,o),
(419,869,q),
(411,869,l)
);
}
);
width = 742;
},
{
anchors = (
{
name = bottom;
pos = (-12,0);
},
{
name = top;
pos = (227,1350);
}
);
layerId = "4F53612F-C4F8-4368-83AD-8913BEEF8F1D";
shapes = (
{
closed = 1;
nodes = (
(-29,0,ls),
(34,0,o),
(76,236,o),
(104,396,qs),
(127,530,o),
(167,756,o),
(128,762,q),
(169,768,o),
(202,952,o),
(222,1068,qs),
(240,1168,o),
(272,1350,o),
(207,1350,qs),
(170,1350,l),
(-68,0,l)
);
},
{
closed = 1;
nodes = (
(86,750,l),
(104,750,ls),
(144,750,o),
(111,563,o),
(82,396,qs),
(54,236,o),
(16,22,o),
(-25,22,qs),
(-42,22,l)
);
},
{
closed = 1;
nodes = (
(188,1328,l),
(203,1328,ls),
(246,1328,o),
(223,1193,o),
(201,1070,qs),
(183,967,o),
(148,772,o),
(108,772,qs),
(90,772,l)
);
}
);
width = 171;
},
{
anchors = (
{
name = bottom;
pos = (1003,0);
},
{
name = top;
pos = (1242,1350);
}
);
layerId = "E5A4176B-9C10-4B01-BBC9-D7999ECBFAF8";
shapes = (
{
closed = 1;
nodes = (
(1316,0,ls),
(1679,0,o),
(2005,202,o),
(2005,416,qs),
(2005,569,o),
(1779,684,o),
(1654,690,q),
(1781,696,o),
(2043,877,o),
(2043,1074,qs),
(2043,1205,o),
(1825,1350,o),
(1468,1350,qs),
(280,1350,l),
(42,0,l)
);
},
{
closed = 1;
nodes = (
(702,532,l),
(1306,532,ls),
(1410,532,o),
(1455,494,o),
(1447,448,qs),
(1439,402,o),
(1380,362,o),
(1276,362,qs),
(672,362,l)
);
},
{
closed = 1;
nodes = (
(782,988,l),
(1326,988,ls),
(1410,988,o),
(1455,950,o),
(1448,910,qs),
(1441,870,o),
(1382,826,o),
(1298,826,qs),
(754,826,l)
);
}
);
width = 2184;
}
);
metricLeft = H;
note = B;
unicode = 66;
},
{
glyphname = C;
kernLeft = O;
kernRight = O;
layers = (
{
anchors = (
{
name = bottom;
pos = (88,0);
},
{
name = top;
pos = (88,1350);
}
);
layerId = "A1A0948C-E637-4A65-8CCC-05505AD98C44";
shapes = (
{
closed = 1;
nodes = (
(146,-8,o),
(146,206,o),
(146,556,q),
(124,556,l),
(124,214,o),
(124,14,o),
(88,14,qs),
(52,14,o),
(52,212,o),
(52,678,qs),
(52,1144,o),
(50,1334,o),
(88,1334,qs),
(124,1334,o),
(124,1144,o),
(124,794,q),
(146,794,l),
(146,1150,o),
(146,1356,o),
(88,1356,qs),
(28,1356,o),
(30,1150,o),
(30,678,qs),
(30,206,o),
(30,-8,o),
(88,-8,qs)
);
}
);
width = 184;
},
{
anchors = (
{
name = bottom;
pos = (370,0);
},
{
name = top;
pos = (370,1350);
}
);
layerId = "BA0CA162-2A9B-49EE-921D-3B4346C7D39F";
shapes = (
{
closed = 1;
nodes = (
(728,-8,o),
(728,380,o),
(728,572,q),
(382,572,l),
(382,290,o),
(382,246,o),
(370,246,qs),
(358,246,o),
(358,290,o),
(358,680,qs),
(358,1064,o),
(358,1108,o),
(370,1108,qs),
(382,1108,o),
(382,1064,o),
(382,774,q),
(728,774,l),
(728,980,o),
(728,1362,o),
(366,1362,qs),
(12,1362,o),
(12,980,o),
(12,680,qs),
(12,380,o),
(12,-8,o),
(368,-8,qs)
);
}
);
width = 740;
},
{
anchors = (
{
name = bottom;
pos = (1068,0);
},
{
name = top;
pos = (1068,1350);
}
);
layerId = "C75D3228-2D13-4E9D-9829-45195F4951D0";
shapes = (
{
closed = 1;
nodes = (
(1550,-8,o),
(2056,322,o),
(2056,546,q),
(1478,546,l),
(1478,486,o),
(1254,354,o),
(1072,354,qs),
(884,354,o),
(628,518,o),
(628,678,qs),
(628,838,o),
(884,1000,o),
(1072,1000,qs),
(1256,1000,o),
(1478,874,o),
(1478,814,q),
(2056,814,l),
(2056,1038,o),
(1550,1362,o),
(1082,1362,qs),
(614,1362,o),
(50,1012,o),
(50,678,qs),
(50,344,o),
(614,-8,o),
(1082,-8,qs)
);
}
);
width = 2167;
},
{
anchors = (
{
name = bottom;
pos = (941,0);
},
{
name = top;
pos = (941,1350);
}
);
layerId = "71977205-6510-4B11-BB00-17BACA883C8F";
shapes = (
{
closed = 1;
nodes = (
(1336,-10,o),
(1757,324,o),
(1757,482,q),
(1734,482,l),
(1734,336,o),
(1332,12,o),
(958,12,qs),
(578,12,o),
(137,382,o),
(137,676,qs),
(137,969,o),
(577,1341,o),
(958,1341,qs),
(1332,1341,o),
(1734,1022,o),
(1734,877,q),
(1757,877,l),
(1757,1035,o),
(1335,1363,o),
(958,1363,qs),
(569,1363,o),
(113,982,o),
(113,676,qs),
(113,367,o),
(569,-10,o),
(958,-10,qs)
);
}
);
width = 2016;
},
{
anchors = (
{
name = bottom;
pos = (733,0);
},
{
name = top;
pos = (972,1350);
}
);
layerId = "5997A0D0-E78E-41EC-9011-DECBEAD8517D";
shapes = (
{
closed = 1;
nodes = (
(1224,-10,o),
(1696,304,o),
(1724,482,q),
(1701,482,l),
(1675,316,o),
(1216,12,o),
(842,12,qs),
(460,12,o),
(99,392,o),
(138,676,qs),
(181,991,o),
(695,1341,o),
(1076,1341,qs),
(1450,1341,o),
(1785,1061,o),
(1770,877,q),
(1793,877,l),
(1810,1074,o),
(1452,1363,o),
(1075,1363,qs),
(686,1363,o),
(159,1003,o),
(114,676,qs),
(73,377,o),
(457,-10,o),
(846,-10,qs)
);
}
);
width = 2016;
},
{
anchors = (
{
name = bottom;
pos = (270,0);
},
{
name = top;
pos = (509,1350);
}
);
layerId = "55C4185A-9C39-4468-B19C-DE0A3E571700";
shapes = (
{
closed = 1;
nodes = (
(626,-8,o),
(695,380,o),
(728,572,q),
(382,572,l),
(333,290,o),
(325,246,o),
(313,246,qs),
(301,246,o),
(309,290,o),
(378,680,qs),
(445,1064,o),
(453,1108,o),
(465,1108,qs),
(477,1108,o),
(469,1064,o),
(418,774,q),
(764,774,l),
(800,980,o),
(868,1362,o),
(506,1362,qs),
(152,1362,o),
(84,980,o),
(32,680,qs),
(-21,380,o),
(-90,-8,o),
(266,-8,qs)
);
}
);
width = 740;
},
{
anchors = (
{
name = bottom;
pos = (-6,0);
},
{
name = top;
pos = (233,1350);
}
);
layerId = "4F53612F-C4F8-4368-83AD-8913BEEF8F1D";
shapes = (
{
closed = 1;
nodes = (
(49,-8,o),
(86,206,o),
(148,556,q),
(126,556,l),
(66,214,o),
(31,14,o),
(-5,14,qs),
(-41,14,o),
(-6,212,o),
(76,678,qs),
(158,1144,o),
(189,1334,o),
(227,1334,qs),
(263,1334,o),
(230,1144,o),
(168,794,q),
(190,794,l),
(253,1150,o),
(289,1356,o),
(229,1356,qs),
(171,1356,o),
(137,1150,o),
(54,678,qs),
(-30,206,o),
(-67,-8,o),
(-8,-8,qs)
);
}
);
width = 184;
},
{
anchors = (
{
name = bottom;
pos = (964,0);
},
{
name = top;
pos = (1203,1350);
}
);
layerId = "E5A4176B-9C10-4B01-BBC9-D7999ECBFAF8";
shapes = (
{
closed = 1;
nodes = (
(1458,-8,o),
(2012,322,o),
(2052,546,q),
(1474,546,l),
(1463,486,o),
(1216,354,o),
(1034,354,qs),
(846,354,o),
(630,517,o),
(647,678,qs),
(665,848,o),
(960,1000,o),
(1148,1000,qs),
(1332,1000,o),
(1528,874,o),
(1521,814,q),
(2099,814,l),
(2129,1038,o),
(1680,1362,o),
(1212,1362,qs),
(744,1362,o),
(118,1014,o),
(69,678,qs),
(20,344,o),
(522,-8,o),
(990,-8,qs)
);
}
);
width = 2167;
}
);
note = C;
unicode = 67;
},
{
glyphname = D;
kernLeft = H;
kernRight = O;
lastChange = "2020-04-22 02:26:16 +0000";
layers = (
{
anchors = (
{
name = bottom;
pos = (75,0);
},
{
name = center;
pos = (85,675);
},
{
name = top;
pos = (75,1350);
}
);
layerId = "A1A0948C-E637-4A65-8CCC-05505AD98C44";
shapes = (
{
closed = 1;
nodes = (
(70,0,ls),
(132,0,o),
(132,242,o),
(132,674,qs),
(132,1106,o),
(132,1350,o),
(70,1350,qs),
(28,1350,l),
(28,0,l)
);
},
{
closed = 1;
nodes = (
(50,1328,l),
(68,1328,ls),
(110,1328,o),
(110,1100,o),
(110,674,qs),
(110,248,o),
(110,22,o),
(68,22,qs),
(50,22,l)
);
}
);
width = 162;
},
{
anchors = (
{
name = bottom;
pos = (370,0);
},
{
name = center;
pos = (370,675);
},
{
name = top;
pos = (370,1350);
}
);
layerId = "BA0CA162-2A9B-49EE-921D-3B4346C7D39F";
shapes = (
{
closed = 1;
nodes = (
(486,0,ls),
(728,0,o),
(728,296,o),
(728,676,qs),
(728,1056,o),
(728,1350,o),
(486,1350,qs),
(12,1350,l),
(12,0,l)
);
},
{
closed = 1;
nodes = (
(358,1096,l),
(366,1096,ls),
(382,1096,o),
(382,1044,o),
(382,676,qs),
(382,306,o),
(382,254,o),
(366,254,qs),
(358,254,l)
);
}
);
width = 740;
},
{
anchors = (
{
name = bottom;
pos = (1102,0);
},
{
name = center;
pos = (1102,675);
},
{
name = top;
pos = (1102,1350);
}
);
layerId = "C75D3228-2D13-4E9D-9829-45195F4951D0";
shapes = (
{
closed = 1;
nodes = (
(1268,0,ls),
(1632,0,o),
(2082,322,o),
(2082,676,qs),
(2082,1030,o),
(1632,1350,o),
(1268,1350,qs),
(140,1350,l),
(140,0,l)
);
},
{
closed = 1;
nodes = (
(706,988,l),
(1138,988,ls),
(1330,988,o),
(1516,846,o),
(1516,676,qs),
(1516,504,o),
(1330,362,o),
(1138,362,qs),
(706,362,l)
);
}
);
width = 2169;
},
{
anchors = (
{
name = bottom;
pos = (916,0);
},
{
name = center;
pos = (949,675);
},
{
name = top;
pos = (866,1350);
}
);
layerId = "71977205-6510-4B11-BB00-17BACA883C8F";
shapes = (
{
closed = 1;
nodes = (
(905,0,ls),
(1284,0,o),
(1722,318,o),
(1722,676,qs),
(1722,1034,o),
(1285,1350,o),
(905,1350,qs),
(150,1350,l),
(150,0,l)
);
},
{
closed = 1;
nodes = (
(172,1328,l),
(899,1328,ls),
(1274,1328,o),
(1698,1024,o),
(1698,676,qs),
(1698,329,o),
(1274,22,o),
(899,22,qs),
(172,22,l)
);
}
);
width = 1916;
},
{
anchors = (
{
name = bottom;
pos = (749,0);
},
{
name = center;
pos = (269,675);
},
{
name = top;
pos = (994,1350);
}
);
layerId = "5997A0D0-E78E-41EC-9011-DECBEAD8517D";
shapes = (
{
closed = 1;
nodes = (
(786,0,ls),
(1165,0,o),
(1670,306,o),
(1722,676,qs),
(1771,1024,o),
(1404,1350,o),
(1024,1350,qs),
(269,1350,l),
(31,0,l)
);
},
{
closed = 1;
nodes = (
(287,1328,l),
(1014,1328,ls),
(1389,1328,o),
(1748,1014,o),
(1698,676,qs),
(1645,317,o),
(1159,22,o),
(784,22,qs),
(57,22,l)
);
}
);
width = 1927;
},
{
anchors = (
{
name = bottom;
pos = (272,0);
},
{
name = center;
pos = (392,675);
},
{
name = top;
pos = (511,1350);
}
);
layerId = "55C4185A-9C39-4468-B19C-DE0A3E571700";
shapes = (
{
closed = 1;
nodes = (
(384,0,ls),
(626,0,o),
(678,296,o),
(745,676,qs),
(812,1056,o),
(864,1350,o),
(622,1350,qs),
(148,1350,l),
(-90,0,l)
);
},
{
closed = 1;
nodes = (
(449,1096,l),
(457,1096,ls),
(473,1096,o),
(464,1044,o),
(399,676,qs),
(334,306,o),
(325,254,o),
(309,254,qs),
(301,254,l)
);
}
);
width = 742;
},
{
anchors = (
{
name = bottom;
pos = (-13,0);
},
{
name = center;
pos = (107,675);
},
{
name = top;
pos = (226,1350);
}
);
layerId = "4F53612F-C4F8-4368-83AD-8913BEEF8F1D";
shapes = (
{
closed = 1;
nodes = (
(-26,0,ls),
(36,0,o),
(79,242,o),
(155,674,qs),
(231,1106,o),
(274,1350,o),
(212,1350,qs),
(170,1350,l),
(-68,0,l)
);
},
{
closed = 1;
nodes = (
(188,1328,l),
(206,1328,ls),
(248,1328,o),
(208,1100,o),
(133,674,qs),
(58,248,o),
(18,22,o),
(-24,22,qs),
(-42,22,l)
);
}
);
width = 163;
},
{
anchors = (
{
name = bottom;
pos = (960,0);
},
{
name = center;
pos = (1150,675);
},
{
name = top;
pos = (1199,1350);
}
);
layerId = "E5A4176B-9C10-4B01-BBC9-D7999ECBFAF8";
shapes = (
{
closed = 1;
nodes = (
(1190,0,ls),
(1554,0,o),
(2059,320,o),
(2103,676,qs),
(2146,1020,o),
(1752,1350,o),
(1388,1350,qs),
(280,1350,l),
(42,0,l)
);
},
{
closed = 1;
nodes = (
(782,988,l),
(1214,988,ls),
(1406,988,o),
(1567,846,o),
(1537,676,qs),
(1507,504,o),
(1296,362,o),
(1104,362,qs),
(672,362,l)
);
}
);
width = 2190;
}
);
metricLeft = H;
metricRight = O;
note = D;
unicode = 68;
},
{
glyphname = Eth;
kernLeft = H;
kernRight = O;
lastChange = "2020-04-22 02:26:16 +0000";
layers = (
{
layerId = "A1A0948C-E637-4A65-8CCC-05505AD98C44";
shapes = (
{
closed = 1;
nodes = (
(126,666,l),
(126,688,l),
(28,688,l),
(28,666,l)
);
},
{
pos = (36,0);
ref = D;
}
);
width = 198;
},
{
layerId = "BA0CA162-2A9B-49EE-921D-3B4346C7D39F";
shapes = (
{
closed = 1;
nodes = (
(422,564,l),
(422,788,l),
(12,788,l),
(12,564,l)
);
},
{
alignment = -1;
pos = (52,0);
ref = D;
}
);
width = 792;
},
{
layerId = "C75D3228-2D13-4E9D-9829-45195F4951D0";
shapes = (
{
closed = 1;
nodes = (
(1088,494,l),
(1088,858,l),
(-52,858,l),
(-52,494,l)
);
},
{
alignment = -1;
pos = (44,0);
ref = D;
}
);
width = 2213;
},
{
layerId = "71977205-6510-4B11-BB00-17BACA883C8F";
shapes = (
{
closed = 1;
nodes = (
(602,666,l),
(602,688,l),
(-78,688,l),
(-78,666,l)
);
},
{
pos = (-6,0);
ref = D;
}
);
width = 1910;
},
{
layerId = "5997A0D0-E78E-41EC-9011-DECBEAD8517D";
shapes = (
{
closed = 1;
nodes = (
(538,666,l),
(540,688,l),
(-62,688,l),
(-64,666,l)
);
},
{
ref = D;
}
);
width = 1927;
},
{
layerId = "55C4185A-9C39-4468-B19C-DE0A3E571700";
shapes = (
{
closed = 1;
nodes = (
(425,564,l),
(465,788,l),
(50,788,l),
(8,564,l)
);
},
{
alignment = -1;
pos = (54,0);
ref = D;
}
);
width = 796;
},
{
layerId = "4F53612F-C4F8-4368-83AD-8913BEEF8F1D";
shapes = (
{
closed = 1;
nodes = (
(150,666,l),
(152,688,l),
(54,688,l),
(50,666,l)
);
},
{
pos = (50,0);
ref = D;
}
);
width = 213;
},
{
layerId = "E5A4176B-9C10-4B01-BBC9-D7999ECBFAF8";
shapes = (
{
closed = 1;
nodes = (
(1052,494,l),
(1108,858,l),
(-64,858,l),
(-120,494,l)
);
},
{
alignment = -1;
pos = (44,0);
ref = D;
}
);
width = 2234;
}
);
metricRight = D;
unicode = 208;
},
{
glyphname = E;
kernLeft = H;
kernRight = E;
layers = (
{
anchors = (
{
name = bottom;
pos = (73,0);
},
{
name = ogonek;
pos = (89,0);
},
{
name = top;
pos = (73,1350);
},
{
name = topleft;
pos = (24,1350);
}
);
layerId = "A1A0948C-E637-4A65-8CCC-05505AD98C44";
shapes = (
{
closed = 1;
nodes = (
(108,0,l),
(108,22,l),
(54,22,l),
(54,688,l),
(108,688,l),
(108,710,l),
(54,710,l),
(54,1328,l),
(108,1328,l),
(108,1350,l),
(32,1350,l),
(32,0,l)
);
}
);
width = 142;
},
{
anchors = (
{
name = bottom;
pos = (251,0);
},
{
name = ogonek;
pos = (364,0);
},
{
name = top;
pos = (251,1350);
},
{
name = topleft;
pos = (20,1350);
}
);
layerId = "BA0CA162-2A9B-49EE-921D-3B4346C7D39F";
shapes = (
{
closed = 1;
nodes = (
(490,0,l),
(490,254,l),
(360,254,l),
(360,555,l),
(490,555,l),
(490,805,l),
(360,805,l),
(360,1096,l),
(490,1096,l),
(490,1350,l),
(12,1350,l),
(12,0,l)
);
}
);
width = 502;
},
{
anchors = (
{
name = bottom;
pos = (932,0);
},
{
name = ogonek;
pos = (1476,0);
},
{
name = top;
pos = (932,1350);
},
{
name = topleft;
pos = (20,1350);
}
);
layerId = "C75D3228-2D13-4E9D-9829-45195F4951D0";
shapes = (
{
closed = 1;
nodes = (
(1776,0,l),
(1776,362,l),
(686,362,l),
(686,508,l),
(1676,508,l),
(1676,844,l),
(686,844,l),
(686,988,l),
(1776,988,l),
(1776,1350,l),
(120,1350,l),
(120,0,l)
);
}
);
width = 1924;
},
{
anchors = (
{
name = bottom;
pos = (921,0);
},
{
name = ogonek;
pos = (950,0);
},
{
name = top;
pos = (921,1350);
},
{
name = topleft;
pos = (19,1350);
}
);
layerId = "71977205-6510-4B11-BB00-17BACA883C8F";
shapes = (
{
closed = 1;
nodes = (
(1617,0,l),
(1617,22,l),
(178,22,l),
(178,688,l),
(1548,688,l),
(1548,710,l),
(178,710,l),
(178,1328,l),
(1617,1328,l),
(1617,1350,l),
(156,1350,l),
(156,0,l)
);
}
);
width = 1842;
},
{
anchors = (
{
name = bottom;
pos = (715,0);
},
{
name = ogonek;
pos = (733,0);
},
{
name = top;
pos = (954,1350);
},
{
name = topleft;
pos = (164,1350);
}
);
layerId = "5997A0D0-E78E-41EC-9011-DECBEAD8517D";
shapes = (
{
closed = 1;
nodes = (
(1497,0,l),
(1501,22,l),
(62,22,l),
(179,688,l),
(1549,688,l),
(1553,710,l),
(183,710,l),
(292,1328,l),
(1731,1328,l),
(1735,1350,l),
(274,1350,l),
(36,0,l)
);
}
);
width = 1842;
},
{
anchors = (
{
name = bottom;
pos = (155,0);
},
{
name = ogonek;
pos = (275,0);
},
{
name = top;
pos = (394,1350);
},
{
name = topleft;
pos = (164,1350);
}
);
layerId = "55C4185A-9C39-4468-B19C-DE0A3E571700";
shapes = (
{
closed = 1;
nodes = (
(388,0,l),
(433,254,l),
(303,254,l),
(356,555,l),
(486,555,l),
(530,805,l),
(400,805,l),
(451,1096,l),
(581,1096,l),
(626,1350,l),
(148,1350,l),
(-90,0,l)
);
}
);
width = 502;
},
{
anchors = (
{
name = bottom;
pos = (-26,0);
},
{
name = ogonek;
pos = (-10,0);
},
{
name = top;
pos = (213,1350);
},
{
name = topleft;
pos = (164,1350);
}
);
layerId = "4F53612F-C4F8-4368-83AD-8913BEEF8F1D";
shapes = (
{
closed = 1;
nodes = (
(11,0,l),
(15,22,l),
(-39,22,l),
(78,688,l),
(132,688,l),
(136,710,l),
(82,710,l),
(191,1328,l),
(245,1328,l),
(249,1350,l),
(173,1350,l),
(-65,0,l)
);
}
);
width = 142;
},
{
anchors = (
{
name = bottom;
pos = (836,0);
},
{
name = ogonek;
pos = (1286,0);
},
{
name = top;
pos = (1075,1350);
},
{
name = topleft;
pos = (164,1350);
}
);
layerId = "E5A4176B-9C10-4B01-BBC9-D7999ECBFAF8";
shapes = (
{
closed = 1;
nodes = (
(1657,0,l),
(1721,362,l),
(631,362,l),
(657,508,l),
(1647,508,l),
(1706,844,l),
(716,844,l),
(741,988,l),
(1831,988,l),
(1895,1350,l),
(239,1350,l),
(1,0,l)
);
}
);
width = 1924;
}
);
note = E;
unicode = 69;
},
{
glyphname = F;
kernLeft = H;
kernRight = F;
lastChange = "2020-04-16 14:40:10 +0000";
layers = (
{
anchors = (
{
name = bottom;
pos = (73,0);
},
{
name = top;
pos = (73,1350);
}
);
layerId = "A1A0948C-E637-4A65-8CCC-05505AD98C44";
shapes = (
{
closed = 1;
nodes = (
(50,0,l),
(50,654,l),
(112,654,l),
(112,676,l),
(50,676,l),
(50,1328,l),
(112,1328,l),
(112,1350,l),
(28,1350,l),
(28,0,l)
);
}
);
width = 146;
},
{
anchors = (
{
name = bottom;
pos = (245,0);
},
{
name = top;
pos = (245,1350);
}
);
layerId = "BA0CA162-2A9B-49EE-921D-3B4346C7D39F";
shapes = (
{
closed = 1;
nodes = (
(360,0,l),
(360,480,l),
(488,480,l),
(488,730,l),
(360,730,l),
(360,1096,l),
(486,1096,l),
(486,1350,l),
(12,1350,l),
(12,0,l)
);
}
);
width = 500;
},
{
anchors = (
{
name = bottom;
pos = (867,0);
},
{
name = top;
pos = (867,1350);
}
);
layerId = "C75D3228-2D13-4E9D-9829-45195F4951D0";
shapes = (
{
closed = 1;
nodes = (
(662,0,l),
(662,412,l),
(1536,412,l),
(1536,748,l),
(662,748,l),
(662,988,l),
(1632,988,l),
(1632,1350,l),
(96,1350,l),
(96,0,l)
);
}
);
width = 1754;
},
{
anchors = (
{
name = bottom;
pos = (889,0);
},
{
name = top;
pos = (889,1350);
}
);
layerId = "71977205-6510-4B11-BB00-17BACA883C8F";
shapes = (
{
closed = 1;
nodes = (
(211,0,l),
(211,645,l),
(1472,645,l),
(1472,667,l),
(211,667,l),
(211,1328,l),
(1584,1328,l),
(1584,1350,l),
(189,1350,l),
(189,0,l)
);
}
);
width = 1722;
},
{
anchors = (
{
name = bottom;
pos = (687,0);
},
{
name = top;
pos = (926,1350);
}
);
layerId = "5997A0D0-E78E-41EC-9011-DECBEAD8517D";
shapes = (
{
closed = 1;
nodes = (
(52,0,l),
(166,645,l),
(1427,645,l),
(1431,667,l),
(170,667,l),
(286,1328,l),
(1659,1328,l),
(1663,1350,l),
(268,1350,l),
(30,0,l)
);
}
);
width = 1722;
},
{
anchors = (
{
name = bottom;
pos = (150,0);
},
{
name = top;
pos = (389,1350);
}
);
layerId = "55C4185A-9C39-4468-B19C-DE0A3E571700";
shapes = (
{
closed = 1;
nodes = (
(261,0,l),
(346,480,l),
(474,480,l),
(518,730,l),
(390,730,l),
(454,1096,l),
(580,1096,l),
(625,1350,l),
(151,1350,l),
(-87,0,l)
);
}
);
width = 500;
},
{
anchors = (
{
name = bottom;
pos = (-22,0);
},
{
name = top;
pos = (217,1350);
}
);
layerId = "4F53612F-C4F8-4368-83AD-8913BEEF8F1D";
shapes = (
{
closed = 1;
nodes = (
(-44,0,l),
(71,654,l),
(133,654,l),
(137,676,l),
(75,676,l),
(190,1328,l),
(252,1328,l),
(256,1350,l),
(172,1350,l),
(-66,0,l)
);
}
);
width = 146;
},
{
anchors = (
{
name = bottom;
pos = (772,0);
},
{
name = top;
pos = (1011,1350);
}
);
layerId = "E5A4176B-9C10-4B01-BBC9-D7999ECBFAF8";
shapes = (
{
closed = 1;
nodes = (
(522,0,l),
(595,412,l),
(1469,412,l),
(1528,748,l),
(654,748,l),
(696,988,l),
(1666,988,l),
(1730,1350,l),
(194,1350,l),
(-44,0,l)
);
}
);
width = 1754;
}
);
note = F;
unicode = 70;
},
{
glyphname = G;
kernLeft = O;
kernRight = H;
lastChange = "2020-04-22 02:26:16 +0000";
layers = (
{
anchors = (
{
name = bottom;
pos = (86,0);
},
{
name = top;
pos = (86,1350);
}
);
layerId = "A1A0948C-E637-4A65-8CCC-05505AD98C44";
shapes = (
{
closed = 1;
nodes = (
(113,-8,o),
(125,42,q),
(125,0,l),
(144,0,l),
(144,582,l),
(84,582,l),
(84,558,l),
(122,558,l),
(122,224,l),
(122,64,o),
(99,14,o),
(80,14,qs),
(50,14,o),
(50,218,o),
(50,684,qs),
(50,1150,o),
(50,1334,o),
(86,1334,qs),
(122,1334,o),
(122,1120,o),
(122,836,q),
(144,836,l),
(144,1130,o),
(143,1356,o),
(86,1356,qs),
(28,1356,o),
(28,1156,o),
(28,684,qs),
(28,212,o),
(28,-8,o),
(80,-8,qs)
);
}
);
width = 184;
},
{
anchors = (
{
name = bottom;
pos = (372,0);
},
{
name = top;
pos = (372,1350);
}
);
layerId = "BA0CA162-2A9B-49EE-921D-3B4346C7D39F";
shapes = (
{
closed = 1;
nodes = (
(489,-8,o),
(539,59,q),
(560,0,l),
(732,0,l),
(732,702,l),
(377,702,l),
(377,468,l),
(398,468,l),
(398,467,l),
(398,302,o),
(391,246,o),
(378,246,qs),
(360,246,o),
(360,348,o),
(360,650,qs),
(360,1062,o),
(360,1108,o),
(372,1108,qs),
(384,1108,o),
(384,1061,o),
(384,846,q),
(732,846,l),
(732,990,o),
(732,1362,o),
(372,1362,qs),
(12,1362,o),
(12,990,o),
(12,680,qs),
(12,380,o),
(12,-8,o),
(314,-8,qs)
);
}
);
width = 744;
},
{
anchors = (
{
name = bottom;
pos = (1086,1);
},
{
name = top;
pos = (1087,1350);
}
);
layerId = "C75D3228-2D13-4E9D-9829-45195F4951D0";
shapes = (
{
closed = 1;
nodes = (
(1426,-8,o),
(1642,134,q),
(1665,0,l),
(2072,0,l),
(2072,774,l),
(1140,774,l),
(1140,476,l),
(1479,476,l),
(1479,487,l),
(1463,430,o),
(1289,352,o),
(1100,352,qs),
(901,352,o),
(652,521,o),
(652,680,qs),
(652,838,o),
(900,1002,o),
(1100,1002,qs),
(1289,1002,o),
(1495,917,o),
(1506,872,q),
(2072,872,l),
(2072,1099,o),
(1493,1362,o),
(1098,1362,qs),
(643,1362,o),
(80,1017,o),
(80,680,qs),
(80,343,o),
(622,-8,o),
(1076,-8,qs)
);
}
);
width = 2267;
},
{
anchors = (
{
name = bottom;
pos = (1016,0);
},
{
name = top;
pos = (1016,1350);
}
);
layerId = "71977205-6510-4B11-BB00-17BACA883C8F";
shapes = (
{
closed = 1;
nodes = (
(1654,-8,o),
(1748,472,q),
(1748,0,l),
(1770,0,l),
(1770,605,l),
(1024,605,l),
(1024,583,l),
(1737,583,l),
(1737,584,l),
(1737,328,o),
(1369,14,o),
(979,14,qs),
(577,14,o),
(166,390,o),
(166,672,qs),
(166,956,o),
(577,1341,o),
(978,1341,qs),
(1366,1341,o),
(1746,1015,o),
(1746,838,q),
(1770,838,l),
(1770,1024,o),
(1373,1363,o),
(978,1363,qs),
(573,1363,o),
(142,967,o),
(142,672,qs),
(142,378,o),
(573,-8,o),
(979,-8,qs)
);
}
);
width = 2042;
},
{
anchors = (
{
name = bottom;
pos = (822,0);
},
{
name = top;
pos = (1061,1350);
}
);
layerId = "5997A0D0-E78E-41EC-9011-DECBEAD8517D";
shapes = (
{
closed = 1;
nodes = (
(1530,-8,o),
(1703,472,q),
(1620,0,l),
(1642,0,l),
(1748,605,l),
(1002,605,l),
(998,583,l),
(1711,583,l),
(1712,584,l),
(1666,328,o),
(1243,14,o),
(853,14,qs),
(454,14,o),
(134,387,o),
(156,662,qs),
(179,955,o),
(687,1341,o),
(1086,1341,qs),
(1474,1341,o),
(1797,1015,o),
(1765,838,q),
(1789,838,l),
(1822,1024,o),
(1480,1363,o),
(1085,1363,qs),
(680,1363,o),
(158,968,o),
(132,662,qs),
(108,375,o),
(449,-8,o),
(855,-8,qs)
);
}
);
width = 2033;
},
{
anchors = (
{
name = bottom;
pos = (270,0);
},
{
name = top;
pos = (509,1350);
}
);
layerId = "55C4185A-9C39-4468-B19C-DE0A3E571700";
shapes = (
{
closed = 1;
nodes = (
(383,-8,o),
(445,59,q),
(456,0,l),
(628,0,l),
(751,702,l),
(396,702,l),
(355,468,l),
(376,468,l),
(376,467,l),
(347,302,o),
(330,246,o),
(317,246,qs),
(299,246,o),
(317,348,o),
(370,650,qs),
(443,1062,o),
(451,1108,o),
(463,1108,qs),
(475,1108,o),
(467,1061,o),
(429,846,q),
(777,846,l),
(802,990,o),
(868,1362,o),
(508,1362,qs),
(148,1362,o),
(82,990,o),
(28,680,qs),
(-25,380,o),
(-94,-8,o),
(208,-8,qs)
);
}
);
width = 742;
},
{
anchors = (
{
name = bottom;
pos = (-16,0);
},
{
name = top;
pos = (223,1350);
}
);
layerId = "4F53612F-C4F8-4368-83AD-8913BEEF8F1D";
shapes = (
{
closed = 1;
nodes = (
(15,-8,o),
(36,42,q),
(28,0,l),
(47,0,l),
(150,582,l),
(90,582,l),
(86,558,l),
(124,558,l),
(65,224,l),
(36,64,o),
(5,14,o),
(-14,14,qs),
(-44,14,o),
(-8,218,o),
(74,684,qs),
(156,1150,o),
(188,1334,o),
(224,1334,qs),
(260,1334,o),
(223,1120,o),
(173,836,q),
(195,836,l),
(246,1130,o),
(285,1356,o),
(228,1356,qs),
(170,1356,o),
(135,1156,o),
(52,684,qs),
(-31,212,o),
(-70,-8,o),
(-18,-8,qs)
);
}
);
width = 181;
},
{
anchors = (
{
name = bottom;
pos = (1015,0);
},
{
name = top;
pos = (1254,1350);
}
);
layerId = "E5A4176B-9C10-4B01-BBC9-D7999ECBFAF8";
shapes = (
{
closed = 1;
nodes = (
(1313,-8,o),
(1544,134,q),
(1544,0,l),
(1951,0,l),
(2087,774,l),
(1155,774,l),
(1103,476,l),
(1442,476,l),
(1443,487,l),
(1417,430,o),
(1230,352,o),
(1041,352,qs),
(842,352,o),
(632,521,o),
(651,670,qs),
(673,839,o),
(955,1002,o),
(1155,1002,qs),
(1344,1002,o),
(1535,917,o),
(1538,872,q),
(2104,872,l),
(2144,1099,o),
(1602,1362,o),
(1207,1362,qs),
(752,1362,o),
(120,1019,o),
(79,670,qs),
(41,343,o),
(509,-8,o),
(963,-8,qs)
);
}
);
width = 2246;
}
);
metricLeft = O;
metricRight = H;
note = G;
unicode = 71;
},
{
glyphname = H;
kernLeft = H;
kernRight = H;
layers = (
{
anchors = (
{
name = bottom;
pos = (86,0);
},
{
name = center;
pos = (86,675);
},
{
name = top;
pos = (86,1350);
},
{
name = topleft;
pos = (12,1350);
}
);
layerId = "A1A0948C-E637-4A65-8CCC-05505AD98C44";
shapes = (
{
closed = 1;
nodes = (
(50,0,l),
(50,728,l),
(112,728,l),
(112,0,l),
(134,0,l),
(134,1350,l),
(112,1350,l),
(112,750,l),
(50,750,l),
(50,1350,l),
(28,1350,l),
(28,0,l)
);
}
);
width = 174;
},
{
anchors = (
{
name = bottom;
pos = (371,0);
},
{
name = center;
pos = (371,675);
},
{
name = top;
pos = (371,1350);
},
{
name = topleft;
pos = (20,1350);
}
);
layerId = "BA0CA162-2A9B-49EE-921D-3B4346C7D39F";
shapes = (
{
closed = 1;
nodes = (
(360,0,l),
(360,543,l),
(382,543,l),
(382,0,l),
(730,0,l),
(730,1350,l),
(382,1350,l),
(382,797,l),
(360,797,l),
(360,1350,l),
(12,1350,l),
(12,0,l)
);
}
);
width = 742;
},
{
anchors = (
{
name = bottom;
pos = (1110,0);
},
{
name = center;
pos = (1110,675);
},
{
name = top;
pos = (1110,1350);
},
{
name = topleft;
pos = (20,1350);
}
);
layerId = "C75D3228-2D13-4E9D-9829-45195F4951D0";
shapes = (
{
closed = 1;
nodes = (
(706,0,l),
(706,468,l),
(1494,468,l),
(1494,0,l),
(2060,0,l),
(2060,1350,l),
(1494,1350,l),
(1494,830,l),
(706,830,l),
(706,1350,l),
(140,1350,l),
(140,0,l)
);
}
);
width = 2255;
},
{
anchors = (
{
name = bottom;
pos = (953,0);
},
{
name = center;
pos = (953,675);
},
{
name = top;
pos = (953,1350);
},
{
name = topleft;
pos = (30,1350);
}
);
layerId = "71977205-6510-4B11-BB00-17BACA883C8F";
shapes = (
{
closed = 1;
nodes = (
(172,0,l),
(172,684,l),
(1612,684,l),
(1612,0,l),
(1634,0,l),
(1634,1350,l),
(1612,1350,l),
(1612,706,l),
(172,706,l),
(172,1350,l),
(150,1350,l),
(150,0,l)
);
}
);
width = 1906;
},
{
anchors = (
{
name = bottom;
pos = (737,0);
},
{
name = center;
pos = (857,675);
},
{
name = top;
pos = (976,1350);
},
{
name = topleft;
pos = (164,1350);
}
);
layerId = "5997A0D0-E78E-41EC-9011-DECBEAD8517D";
shapes = (
{
closed = 1;
nodes = (
(53,0,l),
(174,684,l),
(1614,684,l),
(1493,0,l),
(1515,0,l),
(1753,1350,l),
(1731,1350,l),
(1617,706,l),
(177,706,l),
(291,1350,l),
(269,1350,l),
(31,0,l)
);
}
);
width = 1906;
},
{
anchors = (
{
name = bottom;
pos = (275,0);
},
{
name = center;
pos = (395,675);
},
{
name = top;
pos = (514,1350);
},
{
name = topleft;
pos = (164,1350);
}
);
layerId = "55C4185A-9C39-4468-B19C-DE0A3E571700";
shapes = (
{
closed = 1;
nodes = (
(258,0,l),
(354,543,l),
(376,543,l),
(280,0,l),
(628,0,l),
(866,1350,l),
(518,1350,l),
(421,797,l),
(399,797,l),
(496,1350,l),
(148,1350,l),
(-90,0,l)
);
}
);
width = 742;
},
{
anchors = (
{
name = bottom;
pos = (-9,0);
},
{
name = center;
pos = (111,675);
},
{
name = top;
pos = (230,1350);
},
{
name = topleft;
pos = (156,1350);
}
);
layerId = "4F53612F-C4F8-4368-83AD-8913BEEF8F1D";
shapes = (
{
closed = 1;
nodes = (
(-46,0,l),
(84,728,l),
(146,728,l),
(18,0,l),
(40,0,l),
(278,1350,l),
(256,1350,l),
(150,750,l),
(88,750,l),
(194,1350,l),
(172,1350,l),
(-68,0,l)
);
}
);
width = 174;
},
{
anchors = (
{
name = bottom;
pos = (1015,0);
},
{
name = center;
pos = (1135,675);
},
{
name = top;
pos = (1254,1350);
},
{
name = topleft;
pos = (164,1350);
}
);
layerId = "E5A4176B-9C10-4B01-BBC9-D7999ECBFAF8";
shapes = (
{
closed = 1;
nodes = (
(608,0,l),
(690,468,l),
(1478,468,l),
(1394,0,l),
(1960,0,l),
(2198,1350,l),
(1632,1350,l),
(1540,830,l),
(754,830,l),
(846,1350,l),
(280,1350,l),
(42,0,l)
);
}
);
width = 2255;
}
);
note = H;
unicode = 72;
},
{
glyphname = Hbar;
kernLeft = H;
kernRight = H;
lastChange = "2020-04-16 17:49:18 +0000";
layers = (
{
layerId = "A1A0948C-E637-4A65-8CCC-05505AD98C44";
shapes = (
{
closed = 1;
nodes = (
(158,1048,l),
(158,1070,l),
(4,1070,l),
(4,1048,l)
);
},
{
ref = H;
}
);
width = 188;
},
{
layerId = "BA0CA162-2A9B-49EE-921D-3B4346C7D39F";
shapes = (
{
closed = 1;
nodes = (
(813,1046,l),
(813,1170,l),
(-7,1170,l),
(-7,1046,l)
);
},
{
pos = (32,0);
ref = H;
}
);
width = 820;
},
{
layerId = "C75D3228-2D13-4E9D-9829-45195F4951D0";
shapes = (
{
closed = 1;
nodes = (
(2130,1006,l),
(2130,1200,l),
(70,1200,l),
(70,1006,l)
);
},
{
ref = H;
}
);
width = 2220;
},
{
layerId = "71977205-6510-4B11-BB00-17BACA883C8F";
shapes = (
{
closed = 1;
nodes = (
(1738,1048,l),
(1738,1070,l),
(45,1070,l),
(45,1048,l)
);
},
{
ref = H;
}
);
width = 1759;
},
{
layerId = "5997A0D0-E78E-41EC-9011-DECBEAD8517D";
shapes = (
{
closed = 1;
nodes = (
(1804,1048,l),
(1808,1070,l),
(115,1070,l),
(111,1048,l)
);
},
{
ref = H;
}
);
width = 1753;
},
{
layerId = "55C4185A-9C39-4468-B19C-DE0A3E571700";
shapes = (
{
closed = 1;
nodes = (
(896,1046,l),
(918,1170,l),
(100,1170,l),
(76,1046,l)
);
},
{
pos = (33,0);
ref = H;
}
);
width = 820;
},
{
layerId = "4F53612F-C4F8-4368-83AD-8913BEEF8F1D";
shapes = (
{
closed = 1;
nodes = (
(249,1048,l),
(253,1070,l),
(99,1070,l),
(95,1048,l)
);
},
{
ref = H;
}
);
width = 188;
},
{
layerId = "E5A4176B-9C10-4B01-BBC9-D7999ECBFAF8";
shapes = (
{
closed = 1;
nodes = (
(2207,1006,l),
(2241,1200,l),
(181,1200,l),
(147,1006,l)
);
},
{
ref = H;
}
);
width = 2220;
}
);
unicode = 294;
},
{
glyphname = I;
kernLeft = H;
kernRight = H;
lastChange = "2020-07-29 16:12:22 +0000";
layers = (
{
anchors = (
{
name = bottom;
pos = (46,0);
},
{
name = ogonek;
pos = (56,0);
},
{
name = top;
pos = (45,1350);
},
{
name = topleft;
pos = (10,1350);
}
);
layerId = "A1A0948C-E637-4A65-8CCC-05505AD98C44";
shapes = (
{
closed = 1;
nodes = (
(56,0,l),
(56,1350,l),
(34,1350,l),
(34,0,l)
);
}
);
width = 100;
},
{
anchors = (
{
name = bottom;
pos = (187,0);
},
{
name = ogonek;
pos = (362,0);
},
{
name = top;
pos = (187,1350);
},
{
name = topleft;
pos = (20,1350);
}
);
layerId = "BA0CA162-2A9B-49EE-921D-3B4346C7D39F";
shapes = (
{
closed = 1;
nodes = (
(362,0,l),
(362,1350,l),
(12,1350,l),
(12,0,l)
);
}
);
width = 374;
},
{
anchors = (
{
name = bottom;
pos = (503,0);
},
{
name = ogonek;
pos = (784,0);
},
{
name = top;
pos = (503,1350);
},
{
name = topleft;
pos = (20,1350);
}
);
layerId = "C75D3228-2D13-4E9D-9829-45195F4951D0";
shapes = (
{
closed = 1;
nodes = (
(784,0,l),
(784,1350,l),
(224,1350,l),
(224,0,l)
);
}
);
width = 1026;
},
{
anchors = (
{
name = bottom;
pos = (293,0);
},
{
name = ogonek;
pos = (304,0);
},
{
name = top;
pos = (293,1350);
},
{
name = topleft;
pos = (10,1350);
}
);
layerId = "71977205-6510-4B11-BB00-17BACA883C8F";
shapes = (
{
closed = 1;
nodes = (
(304,0,l),
(304,1350,l),
(282,1350,l),
(282,0,l)
);
}
);
width = 698;
},
{
anchors = (
{
name = bottom;
pos = (199,0);
},
{
name = ogonek;
pos = (210,0);
},
{
name = top;
pos = (445,1350);
},
{
name = topleft;
pos = (154,1350);
}
);
layerId = "5997A0D0-E78E-41EC-9011-DECBEAD8517D";
shapes = (
{
closed = 1;
nodes = (
(210,0,l),
(450,1350,l),
(428,1350,l),
(188,0,l)
);
}
);
width = 698;
},
{
anchors = (
{
name = bottom;
pos = (90,0);
},
{
name = ogonek;
pos = (260,0);
},
{
name = top;
pos = (329,1350);
},
{
name = topleft;
pos = (164,1350);
}
);
layerId = "55C4185A-9C39-4468-B19C-DE0A3E571700";
shapes = (
{
closed = 1;
nodes = (
(260,0,l),
(498,1350,l),
(150,1350,l),
(-90,0,l)
);
}
);
width = 374;
},
{
anchors = (
{
name = bottom;
pos = (-57,0);
},
{
name = ogonek;
pos = (-44,0);
},
{
name = top;
pos = (188,1350);
},
{
name = topleft;
pos = (148,1350);
}
);
layerId = "4F53612F-C4F8-4368-83AD-8913BEEF8F1D";
shapes = (
{
closed = 1;
nodes = (
(-44,0,l),
(194,1350,l),
(172,1350,l),
(-66,0,l)
);
}
);
width = 100;
},
{
anchors = (
{
name = bottom;
pos = (381,0);
},
{
name = ogonek;
pos = (660,0);
},
{
name = top;
pos = (647,1350);
},
{
name = topleft;
pos = (164,1350);
}
);
layerId = "E5A4176B-9C10-4B01-BBC9-D7999ECBFAF8";
shapes = (
{
closed = 1;
nodes = (
(660,0,l),
(898,1350,l),
(338,1350,l),
(100,0,l)
);
}
);
width = 1026;
}
);
note = I;
unicode = 73;
},
{
glyphname = J;
kernLeft = J;
kernRight = J;
layers = (
{
anchors = (
{
name = bottom;
pos = (93,0);
},
{
name = top;
pos = (136,1350);
}
);
layerId = "A1A0948C-E637-4A65-8CCC-05505AD98C44";
shapes = (
{
closed = 1;
nodes = (
(120,-8,o),
(148,72,o),
(148,164,qs),
(148,1350,l),
(126,1350,l),
(126,164,ls),
(126,82,o),
(108,14,o),
(88,14,qs),
(68,14,o),
(50,82,o),
(50,164,qs),
(50,614,l),
(28,614,l),
(28,164,ls),
(28,72,o),
(56,-8,o),
(88,-8,qs)
);
}
);
width = 186;
},
{
anchors = (
{
name = bottom;
pos = (368,0);
},
{
name = top;
pos = (560,1350);
}
);
layerId = "BA0CA162-2A9B-49EE-921D-3B4346C7D39F";
shapes = (
{
closed = 1;
nodes = (
(552,-8,o),
(724,100,o),
(724,240,qs),
(724,1350,l),
(380,1350,l),
(380,324,ls),
(380,282,o),
(380,238,o),
(368,238,qs),
(356,238,o),
(356,282,o),
(356,324,qs),
(356,572,l),
(12,572,l),
(12,240,ls),
(12,104,o),
(194,-8,o),
(370,-8,qs)
);
}
);
width = 736;
},
{
anchors = (
{
name = bottom;
pos = (1087,0);
},
{
name = top;
pos = (1728,1350);
}
);
layerId = "C75D3228-2D13-4E9D-9829-45195F4951D0";
shapes = (
{
closed = 1;
nodes = (
(1512,-16,o),
(1994,290,o),
(1994,544,qs),
(1994,1350,l),
(1428,1350,l),
(1428,592,ls),
(1428,469,o),
(1260,346,o),
(1036,346,qs),
(812,346,o),
(654,488,o),
(654,618,qs),
(654,636,l),
(86,636,l),
(86,596,ls),
(86,296,o),
(564,-16,o),
(1036,-16,qs)
);
}
);
width = 2173;
},
{
anchors = (
{
name = bottom;
pos = (908,0);
},
{
name = top;
pos = (1486,1350);
}
);
layerId = "71977205-6510-4B11-BB00-17BACA883C8F";
shapes = (
{
closed = 1;
nodes = (
(1160,-17,o),
(1496,291,o),
(1496,629,qs),
(1496,1350,l),
(1474,1350,l),
(1474,631,ls),
(1474,301,o),
(1152,5,o),
(813,5,qs),
(473,5,o),
(151,282,o),
(151,590,qs),
(151,609,l),
(129,609,l),
(129,583,ls),
(129,268,o),
(463,-17,o),
(813,-17,qs)
);
}
);
width = 1817;
},
{
anchors = (
{
name = bottom;
pos = (707,0);
},
{
name = top;
pos = (1608,1350);
}
);
layerId = "5997A0D0-E78E-41EC-9011-DECBEAD8517D";
shapes = (
{
closed = 1;
nodes = (
(1044,-17,o),
(1429,291,o),
(1489,629,qs),
(1617,1350,l),
(1595,1350,l),
(1468,631,ls),
(1410,301,o),
(1035,5,o),
(696,5,qs),
(356,5,o),
(89,281,o),
(138,590,qs),
(141,609,l),
(119,609,l),
(115,583,ls),
(66,267,o),
(347,-17,o),
(697,-17,qs)
);
}
);
width = 1817;
},
{
anchors = (
{
name = bottom;
pos = (271,0);
},
{
name = top;
pos = (689,1350);
}
);
layerId = "55C4185A-9C39-4468-B19C-DE0A3E571700";
shapes = (
{
closed = 1;
nodes = (
(449,-8,o),
(640,100,o),
(665,240,qs),
(861,1350,l),
(517,1350,l),
(336,324,ls),
(329,282,o),
(321,238,o),
(309,238,qs),
(297,238,o),
(305,282,o),
(312,324,qs),
(356,572,l),
(12,572,l),
(-47,240,ls),
(-71,104,o),
(91,-8,o),
(267,-8,qs)
);
}
);
width = 736;
},
{
anchors = (
{
name = bottom;
pos = (-1,0);
},
{
name = top;
pos = (281,1350);
}
);
layerId = "4F53612F-C4F8-4368-83AD-8913BEEF8F1D";
shapes = (
{
closed = 1;
nodes = (
(23,-8,o),
(68,72,o),
(84,164,qs),
(292,1350,l),
(270,1350,l),
(62,164,ls),
(48,84,o),
(17,14,o),
(-4,14,qs),
(-24,14,o),
(-31,82,o),
(-16,164,qs),
(64,614,l),
(42,614,l),
(-38,164,ls),
(-54,72,o),
(-40,-8,o),
(-6,-8,qs)
);
}
);
width = 186;
},
{
anchors = (
{
name = bottom;
pos = (992,0);
},
{
name = top;
pos = (1828,1350);
}
);
layerId = "E5A4176B-9C10-4B01-BBC9-D7999ECBFAF8";
shapes = (
{
closed = 1;
nodes = (
(1382,-16,o),
(1917,290,o),
(1962,544,qs),
(2104,1350,l),
(1538,1350,l),
(1405,592,ls),
(1383,469,o),
(1193,346,o),
(969,346,qs),
(745,346,o),
(606,489,o),
(635,618,qs),
(639,636,l),
(71,636,l),
(63,596,ls),
(3,297,o),
(434,-16,o),
(906,-16,qs)
);
}
);
width = 2173;
}
);
note = J;
unicode = 74;
},
{
glyphname = J.ss01;
kernLeft = U;
kernRight = U;
lastChange = "2020-04-28 15:26:30 +0000";
layers = (
{
layerId = "A1A0948C-E637-4A65-8CCC-05505AD98C44";
shapes = (
{
closed = 1;
nodes = (
(30,1328,l),
(148,1328,l),
(148,1350,l),
(30,1350,l)
);
},
{
ref = J;
}
);
width = 186;
},
{
layerId = "BA0CA162-2A9B-49EE-921D-3B4346C7D39F";
shapes = (
{
closed = 1;
nodes = (
(32,1096,l),
(714,1096,l),
(724,1350,l),
(32,1350,l)
);
},
{
ref = J;
}
);
width = 736;
},
{
layerId = "71977205-6510-4B11-BB00-17BACA883C8F";
shapes = (
{
closed = 1;
nodes = (
(135,1328,l),
(1496,1328,l),
(1496,1350,l),
(135,1350,l)
);
},
{
ref = J;
}
);
width = 1817;
},
{
layerId = "C75D3228-2D13-4E9D-9829-45195F4951D0";
shapes = (
{
closed = 1;
nodes = (
(91,988,l),
(1965,988,l),
(1994,1350,l),
(91,1350,l)
);
},
{
ref = J;
}
);
width = 2173;
},
{
layerId = "4F53612F-C4F8-4368-83AD-8913BEEF8F1D";
shapes = (
{
closed = 1;
nodes = (
(170,1328,l),
(286,1328,l),
(292,1350,l),
(174,1350,l)
);
},
{
ref = J;
}
);
width = 186;
},
{
layerId = "55C4185A-9C39-4468-B19C-DE0A3E571700";
shapes = (
{
closed = 1;
nodes = (
(125,1096,l),
(807,1096,l),
(861,1350,l),
(169,1350,l)
);
},
{
ref = J;
}
);
width = 736;
},
{
layerId = "5997A0D0-E78E-41EC-9011-DECBEAD8517D";
shapes = (
{
closed = 1;
nodes = (
(252,1328,l),
(1611,1328,l),
(1617,1350,l),
(256,1350,l)
);
},
{
ref = J;
}
);
width = 1817;
},
{
layerId = "E5A4176B-9C10-4B01-BBC9-D7999ECBFAF8";
shapes = (
{
closed = 1;
nodes = (
(137,988,l),
(2011,988,l),
(2104,1350,l),
(201,1350,l)
);
},
{
ref = J;
}
);
width = 2173;
}
);
},
{
glyphname = K;
kernLeft = H;
kernRight = K;
lastChange = "2020-04-16 21:11:17 +0000";
layers = (
{
anchors = (
{
name = bottom;
pos = (99,0);
},
{
name = top;
pos = (99,1350);
}
);
layerId = "A1A0948C-E637-4A65-8CCC-05505AD98C44";
shapes = (
{
closed = 1;
nodes = (
(50,0,l),
(50,670,l),
(140,0,l),
(162,0,l),
(72,674,l),
(162,1350,l),
(140,1350,l),
(50,678,l),
(50,1350,l),
(28,1350,l),
(28,0,l)
);
}
);
width = 188;
},
{
anchors = (
{
name = bottom;
pos = (384,0);
},
{
name = top;
pos = (384,1350);
}
);
layerId = "BA0CA162-2A9B-49EE-921D-3B4346C7D39F";
shapes = (
{
closed = 1;
nodes = (
(356,0,l),
(356,556,l),
(408,0,l),
(756,0,l),
(662,674,l),
(756,1350,l),
(408,1350,l),
(356,792,l),
(356,1350,l),
(12,1350,l),
(12,0,l)
);
}
);
width = 764;
},
{
anchors = (
{
name = bottom;
pos = (998,0);
},
{
name = top;
pos = (998,1350);
}
);
layerId = "C75D3228-2D13-4E9D-9829-45195F4951D0";
shapes = (
{
closed = 1;
nodes = (
(704,0,l),
(704,550,l),
(1356,0,l),
(2024,0,l),
(1219,674,l),
(2024,1350,l),
(1356,1350,l),
(704,799,l),
(704,1350,l),
(140,1350,l),
(140,0,l)
);
}
);
width = 2048;
},
{
anchors = (
{
name = bottom;
pos = (788,0);
},
{
name = top;
pos = (788,1350);
}
);
layerId = "71977205-6510-4B11-BB00-17BACA883C8F";
shapes = (
{
closed = 1;
nodes = (
(172,0,l),
(172,664,l),
(1437,0,l),
(1485,0,l),
(201,674,l),
(1476,1350,l),
(1428,1350,l),
(172,684,l),
(172,1350,l),
(150,1350,l),
(150,0,l)
);
}
);
width = 1631;
},
{
anchors = (
{
name = bottom;
pos = (596,0);
},
{
name = top;
pos = (835,1350);
}
);
layerId = "5997A0D0-E78E-41EC-9011-DECBEAD8517D";
shapes = (
{
closed = 1;
nodes = (
(53,0,l),
(170,664,l),
(1320,0,l),
(1366,0,l),
(201,674,l),
(1595,1350,l),
(1545,1350,l),
(174,685,l),
(291,1350,l),
(269,1350,l),
(31,0,l)
);
}
);
width = 1631;
},
{
anchors = (
{
name = bottom;
pos = (287,0);
},
{
name = top;
pos = (526,1350);
}
);
layerId = "55C4185A-9C39-4468-B19C-DE0A3E571700";
shapes = (
{
closed = 1;
nodes = (
(254,0,l),
(352,556,l),
(306,0,l),
(649,0,l),
(679,674,l),
(897,1350,l),
(544,1350,l),
(394,792,l),
(492,1350,l),
(148,1350,l),
(-90,0,l)
);
}
);
width = 764;
},
{
anchors = (
{
name = bottom;
pos = (2,0);
},
{
name = top;
pos = (241,1350);
}
);
layerId = "4F53612F-C4F8-4368-83AD-8913BEEF8F1D";
shapes = (
{
closed = 1;
nodes = (
(-46,0,l),
(73,672,l),
(44,0,l),
(66,0,l),
(95,676,l),
(304,1350,l),
(281,1350,l),
(75,686,l),
(192,1350,l),
(170,1350,l),
(-68,0,l)
);
}
);
width = 185;
},
{
anchors = (
{
name = bottom;
pos = (957,0);
},
{
name = top;
pos = (1196,1350);
}
);
layerId = "E5A4176B-9C10-4B01-BBC9-D7999ECBFAF8";
shapes = (
{
closed = 1;
nodes = (
(606,0,l),
(703,550,l),
(1258,0,l),
(1926,0,l),
(1240,664,l),
(2164,1350,l),
(1486,1350,l),
(747,799,l),
(844,1350,l),
(280,1350,l),
(42,0,l)
);
}
);
width = 2082;
}
);
metricLeft = H;
note = K;
unicode = 75;
},
{
glyphname = L;
kernLeft = H;
kernRight = L;
lastChange = "2020-04-16 14:44:36 +0000";
layers = (
{
anchors = (
{
name = bottom;
pos = (82,0);
},
{
name = center;
pos = (82,675);
},
{
name = top;
pos = (82,1350);
},
{
name = topright;
pos = (144,1350);
}
);
layerId = "A1A0948C-E637-4A65-8CCC-05505AD98C44";
shapes = (
{
closed = 1;
nodes = (
(126,0,l),
(126,22,l),
(50,22,l),
(50,1350,l),
(28,1350,l),
(28,0,l)
);
}
);
width = 140;
},
{
anchors = (
{
name = bottom;
pos = (248,0);
},
{
name = center;
pos = (248,675);
},
{
name = top;
pos = (248,1350);
},
{
name = topright;
pos = (476,1350);
}
);
layerId = "BA0CA162-2A9B-49EE-921D-3B4346C7D39F";
shapes = (
{
closed = 1;
nodes = (
(494,0,l),
(494,250,l),
(360,250,l),
(360,1350,l),
(12,1350,l),
(12,0,l)
);
}
);
width = 506;
},
{
anchors = (
{
name = bottom;
pos = (861,0);
},
{
name = center;
pos = (861,675);
},
{
name = top;
pos = (861,1350);
},
{
name = topright;
pos = (1684,1350);
}
);
layerId = "C75D3228-2D13-4E9D-9829-45195F4951D0";
shapes = (
{
closed = 1;
nodes = (
(1594,0,l),
(1594,362,l),
(706,362,l),
(706,1350,l),
(140,1350,l),
(140,0,l)
);
}
);
width = 1704;
},
{
anchors = (
{
name = bottom;
pos = (787,0);
},
{
name = center;
pos = (787,675);
},
{
name = top;
pos = (787,1350);
},
{
name = topright;
pos = (1577,1350);
}
);
layerId = "71977205-6510-4B11-BB00-17BACA883C8F";
shapes = (
{
closed = 1;
nodes = (
(1396,0,l),
(1396,22,l),
(172,22,l),
(172,1350,l),
(150,1350,l),
(150,0,l)
);
}
);
width = 1597;
},
{
anchors = (
{
name = bottom;
pos = (637,0);
},
{
name = center;
pos = (757,675);
},
{
name = top;
pos = (876,1350);
},
{
name = topright;
pos = (1571,1350);
}
);
layerId = "5997A0D0-E78E-41EC-9011-DECBEAD8517D";
shapes = (
{
closed = 1;
nodes = (
(1277,0,l),
(1281,22,l),
(57,22,l),
(291,1350,l),
(269,1350,l),
(31,0,l)
);
}
);
width = 1587;
},
{
anchors = (
{
name = bottom;
pos = (153,0);
},
{
name = center;
pos = (273,675);
},
{
name = top;
pos = (392,1350);
},
{
name = topright;
pos = (621,1350);
}
);
layerId = "55C4185A-9C39-4468-B19C-DE0A3E571700";
shapes = (
{
closed = 1;
nodes = (
(392,0,l),
(436,250,l),
(302,250,l),
(496,1350,l),
(148,1350,l),
(-90,0,l)
);
}
);
width = 505;
},
{
anchors = (
{
name = bottom;
pos = (-15,0);
},
{
name = center;
pos = (105,675);
},
{
name = top;
pos = (224,1350);
},
{
name = topright;
pos = (286,1350);
}
);
layerId = "4F53612F-C4F8-4368-83AD-8913BEEF8F1D";
shapes = (
{
closed = 1;
nodes = (
(30,0,l),
(34,22,l),
(-42,22,l),
(194,1350,l),
(172,1350,l),
(-68,0,l)
);
}
);
width = 138;
},
{
anchors = (
{
name = bottom;
pos = (806,0);
},
{
name = center;
pos = (926,675);
},
{
name = top;
pos = (1045,1350);
},
{
name = topright;
pos = (1868,1350);
}
);
layerId = "E5A4176B-9C10-4B01-BBC9-D7999ECBFAF8";
shapes = (
{
closed = 1;
nodes = (
(1494,0,l),
(1558,362,l),
(670,362,l),
(846,1350,l),
(280,1350,l),
(42,0,l)
);
}
);
width = 1744;
}
);
metricLeft = H;
note = L;
unicode = 76;
},
{
glyphname = Lcaron;
kernLeft = H;
kernRight = L;
layers = (
{
layerId = "A1A0948C-E637-4A65-8CCC-05505AD98C44";
shapes = (
{
closed = 1;
nodes = (
(144,1148,l),
(174,1348,l),
(150,1348,l),
(124,1148,l)
);
},
{
ref = L;
}
);
width = 212;
},
{
layerId = "BA0CA162-2A9B-49EE-921D-3B4346C7D39F";
shapes = (
{
closed = 1;
nodes = (
(642,1008,l),
(722,1348,l),
(498,1348,l),
(422,1008,l)
);
},
{
ref = L;
}
);
width = 734;
},
{
layerId = "C75D3228-2D13-4E9D-9829-45195F4951D0";
shapes = (
{
closed = 1;
nodes = (
(1684,890,l),
(1854,1348,l),
(1498,1348,l),
(1368,890,l)
);
},
{
ref = L;
}
);
width = 1664;
},
{
layerId = "71977205-6510-4B11-BB00-17BACA883C8F";
shapes = (
{
closed = 1;
nodes = (
(1398,1123,l),
(1490,1348,l),
(1463,1348,l),
(1372,1123,l)
);
},
{
ref = L;
}
);
width = 1370;
},
{
layerId = "5997A0D0-E78E-41EC-9011-DECBEAD8517D";
shapes = (
{
closed = 1;
nodes = (
(1294,1126,l),
(1530,1348,l),
(1502,1348,l),
(1268,1126,l)
);
},
{
ref = L;
}
);
width = 1370;
},
{
layerId = "55C4185A-9C39-4468-B19C-DE0A3E571700";
shapes = (
{
closed = 1;
nodes = (
(722,1008,l),
(864,1348,l),
(638,1348,l),
(498,1008,l)
);
},
{
ref = L;
}
);
width = 736;
},
{
layerId = "4F53612F-C4F8-4368-83AD-8913BEEF8F1D";
shapes = (
{
closed = 1;
nodes = (
(242,1148,l),
(306,1348,l),
(282,1348,l),
(222,1148,l)
);
},
{
ref = L;
}
);
width = 200;
},
{
layerId = "E5A4176B-9C10-4B01-BBC9-D7999ECBFAF8";
shapes = (
{
closed = 1;
nodes = (
(1708,890,l),
(1956,1348,l),
(1592,1348,l),
(1382,890,l)
);
},
{
ref = L;
}
);
width = 1664;
}
);
unicode = 317;
},
{
glyphname = Lslash;
kernLeft = H;
kernRight = L;
lastChange = "2020-04-16 14:36:36 +0000";
layers = (
{
layerId = "A1A0948C-E637-4A65-8CCC-05505AD98C44";
shapes = (
{
closed = 1;
nodes = (
(177,856,l),
(159,869,l),
(7,475,l),
(25,462,l)
);
},
{
alignment = -1;
pos = (56,0);
ref = L;
}
);
width = 220;
},
{
layerId = "BA0CA162-2A9B-49EE-921D-3B4346C7D39F";
shapes = (
{
closed = 1;
nodes = (
(593,795,l),
(498,953,l),
(-46,590,l),
(49,430,l)
);
},
{
alignment = -1;
pos = (76,0);
ref = L;
}
);
width = 572;
},
{
layerId = "C75D3228-2D13-4E9D-9829-45195F4951D0";
shapes = (
{
closed = 1;
nodes = (
(1121,747,l),
(1008,1038,l),
(-8,608,l),
(105,317,l)
);
},
{
alignment = -1;
pos = (106,0);
ref = L;
}
);
width = 1836;
},
{
layerId = "71977205-6510-4B11-BB00-17BACA883C8F";
shapes = (
{
closed = 1;
nodes = (
(783,933,l),
(770,951,l),
(6,413,l),
(19,395,l)
);
},
{
alignment = -1;
pos = (99,0);
ref = L;
}
);
width = 1747;
},
{
layerId = "5997A0D0-E78E-41EC-9011-DECBEAD8517D";
shapes = (
{
closed = 1;
nodes = (
(829,933,l),
(819,951,l),
(-40,413,l),
(-30,395,l)
);
},
{
alignment = -1;
pos = (94,0);
ref = L;
}
);
width = 1548;
},
{
layerId = "55C4185A-9C39-4468-B19C-DE0A3E571700";
shapes = (
{
closed = 1;
nodes = (
(611,795,l),
(544,953,l),
(-64,590,l),
(3,430,l)
);
},
{
alignment = -1;
pos = (68,0);
ref = L;
}
);
width = 568;
},
{
layerId = "4F53612F-C4F8-4368-83AD-8913BEEF8F1D";
shapes = (
{
closed = 1;
nodes = (
(248,856,l),
(232,869,l),
(10,475,l),
(26,462,l)
);
},
{
alignment = -1;
pos = (70,0);
ref = L;
}
);
width = 234;
},
{
layerId = "E5A4176B-9C10-4B01-BBC9-D7999ECBFAF8";
shapes = (
{
closed = 1;
nodes = (
(1133,747,l),
(1072,1038,l),
(-20,608,l),
(41,317,l)
);
},
{
alignment = -1;
pos = (106,0);
ref = L;
}
);
width = 1836;
}
);
unicode = 321;
},
{
glyphname = M;
kernLeft = H;
kernRight = H;
lastChange = "2020-04-15 20:28:29 +0000";
layers = (
{
anchors = (
{
name = bottom;
pos = (140,0);
},
{
name = top;
pos = (140,1350);
}
);
layerId = "A1A0948C-E637-4A65-8CCC-05505AD98C44";
shapes = (
{
closed = 1;
nodes = (
(50,0,l),
(50,1328,l),
(58,1328,l),
(112,124,l),
(158,124,l),
(212,1328,l),
(220,1328,l),
(220,0,l),
(242,0,l),
(242,1350,l),
(192,1350,l),
(138,142,l),
(132,142,l),
(78,1350,l),
(28,1350,l),
(28,0,l)
);
}
);
width = 282;
},
{
anchors = (
{
name = bottom;
pos = (604,0);
},
{
name = top;
pos = (604,1350);
}
);
layerId = "BA0CA162-2A9B-49EE-921D-3B4346C7D39F";
shapes = (
{
closed = 1;
nodes = (
(354,0,l),
(354,1098,l),
(358,1098,l),
(418,0,l),
(790,0,l),
(850,1098,l),
(854,1098,l),
(854,0,l),
(1196,0,l),
(1196,1350,l),
(646,1350,l),
(606,268,l),
(602,268,l),
(562,1350,l),
(12,1350,l),
(12,0,l)
);
}
);
width = 1208;
},
{
anchors = (
{
name = bottom;
pos = (1386,0);
},
{
name = top;
pos = (1386,1350);
}
);
layerId = "C75D3228-2D13-4E9D-9829-45195F4951D0";
shapes = (
{
closed = 1;
nodes = (
(700,0,l),
(700,974,l),
(702,974,l),
(1040,10,l),
(1720,10,l),
(2058,974,l),
(2060,974,l),
(2060,0,l),
(2620,0,l),
(2620,1350,l),
(1704,1350,l),
(1372,364,l),
(1388,364,l),
(1056,1350,l),
(140,1350,l),
(140,0,l)
);
}
);
width = 2815;
},
{
anchors = (
{
name = bottom;
pos = (1095,0);
},
{
name = top;
pos = (1095,1350);
}
);
layerId = "71977205-6510-4B11-BB00-17BACA883C8F";
shapes = (
{
closed = 1;
nodes = (
(172,0,l),
(172,1333,l),
(173,1333,l),
(1076,122,l),
(1111,122,l),
(2014,1333,l),
(2015,1333,l),
(2015,0,l),
(2037,0,l),
(2037,1350,l),
(1998,1350,l),
(1095,140,l),
(1092,140,l),
(189,1350,l),
(150,1350,l),
(150,0,l)
);
}
);
width = 2309;
},
{
anchors = (
{
name = bottom;
pos = (901,0);
},
{
name = top;
pos = (1140,1350);
}
);
layerId = "5997A0D0-E78E-41EC-9011-DECBEAD8517D";
shapes = (
{
closed = 1;
nodes = (
(53,0,l),
(288,1333,l),
(289,1333,l),
(978,122,l),
(1013,122,l),
(2130,1333,l),
(2131,1333,l),
(1896,0,l),
(1918,0,l),
(2156,1350,l),
(2114,1350,l),
(998,140,l),
(995,140,l),
(305,1350,l),
(269,1350,l),
(31,0,l)
);
}
);
width = 2309;
},
{
anchors = (
{
name = bottom;
pos = (496,0);
},
{
name = top;
pos = (735,1350);
}
);
layerId = "55C4185A-9C39-4468-B19C-DE0A3E571700";
shapes = (
{
closed = 1;
nodes = (
(252,0,l),
(446,1098,l),
(450,1098,l),
(316,0,l),
(688,0,l),
(942,1098,l),
(946,1098,l),
(752,0,l),
(1094,0,l),
(1332,1350,l),
(777,1350,l),
(546,268,l),
(542,268,l),
(693,1350,l),
(148,1350,l),
(-90,0,l)
);
}
);
width = 1208;
},
{
anchors = (
{
name = bottom;
pos = (46,0);
},
{
name = top;
pos = (285,1350);
}
);
layerId = "4F53612F-C4F8-4368-83AD-8913BEEF8F1D";
shapes = (
{
closed = 1;
nodes = (
(-45,0,l),
(189,1328,l),
(197,1328,l),
(39,124,l),
(85,124,l),
(351,1328,l),
(359,1328,l),
(125,0,l),
(147,0,l),
(384,1350,l),
(334,1350,l),
(68,142,l),
(62,142,l),
(220,1350,l),
(170,1350,l),
(-67,0,l)
);
}
);
width = 281;
},
{
anchors = (
{
name = bottom;
pos = (1312,0);
},
{
name = top;
pos = (1551,1350);
}
);
layerId = "E5A4176B-9C10-4B01-BBC9-D7999ECBFAF8";
shapes = (
{
closed = 1;
nodes = (
(602,0,l),
(774,974,l),
(776,974,l),
(944,10,l),
(1624,10,l),
(2132,974,l),
(2134,974,l),
(1962,0,l),
(2522,0,l),
(2760,1350,l),
(1834,1350,l),
(1328,364,l),
(1344,364,l),
(1186,1350,l),
(280,1350,l),
(42,0,l)
);
}
);
width = 2817;
}
);
metricLeft = H;
metricRight = H;
note = M;
unicode = 77;
},
{
glyphname = N;
kernLeft = H;
kernRight = H;
lastChange = "2020-04-16 14:39:29 +0000";
layers = (
{
anchors = (
{
name = bottom;
pos = (105,0);
},
{
name = top;
pos = (105,1350);
}
);
layerId = "A1A0948C-E637-4A65-8CCC-05505AD98C44";
shapes = (
{
closed = 1;
nodes = (
(50,0,l),
(50,1328,l),
(56,1328,l),
(124,0,l),
(172,0,l),
(172,1350,l),
(150,1350,l),
(150,22,l),
(144,22,l),
(76,1350,l),
(28,1350,l),
(28,0,l)
);
}
);
width = 212;
},
{
anchors = (
{
name = bottom;
pos = (480,0);
},
{
name = top;
pos = (480,1350);
}
);
layerId = "BA0CA162-2A9B-49EE-921D-3B4346C7D39F";
shapes = (
{
closed = 1;
nodes = (
(354,0,l),
(354,1096,l),
(360,1096,l),
(404,0,l),
(948,0,l),
(948,1350,l),
(604,1350,l),
(596,264,l),
(591,264,l),
(546,1350,l),
(12,1350,l),
(12,0,l)
);
}
);
width = 960;
},
{
anchors = (
{
name = bottom;
pos = (1245,0);
},
{
name = top;
pos = (1245,1350);
}
);
layerId = "C75D3228-2D13-4E9D-9829-45195F4951D0";
shapes = (
{
closed = 1;
nodes = (
(706,0,l),
(706,1186,l),
(590,1186,l),
(1410,0,l),
(2320,0,l),
(2320,1350,l),
(1754,1350,l),
(1754,164,l),
(1894,164,l),
(1074,1350,l),
(140,1350,l),
(140,0,l)
);
}
);
width = 2515;
},
{
anchors = (
{
name = bottom;
pos = (985,0);
},
{
name = top;
pos = (985,1350);
}
);
layerId = "71977205-6510-4B11-BB00-17BACA883C8F";
shapes = (
{
closed = 1;
nodes = (
(172,0,l),
(172,1344,l),
(166,1344,l),
(1705,0,l),
(1746,0,l),
(1746,1350,l),
(1724,1350,l),
(1724,6,l),
(1729,6,l),
(190,1350,l),
(150,1350,l),
(150,0,l)
);
}
);
width = 2018;
},
{
anchors = (
{
name = bottom;
pos = (787,0);
},
{
name = top;
pos = (1026,1350);
}
);
layerId = "5997A0D0-E78E-41EC-9011-DECBEAD8517D";
shapes = (
{
closed = 1;
nodes = (
(53,0,l),
(290,1344,l),
(284,1344,l),
(1584,0,l),
(1627,0,l),
(1865,1350,l),
(1843,1350,l),
(1606,6,l),
(1611,6,l),
(311,1350,l),
(269,1350,l),
(31,0,l)
);
}
);
width = 2018;
},
{
anchors = (
{
name = bottom;
pos = (384,0);
},
{
name = top;
pos = (623,1350);
}
);
layerId = "55C4185A-9C39-4468-B19C-DE0A3E571700";
shapes = (
{
closed = 1;
nodes = (
(252,0,l),
(445,1096,l),
(451,1096,l),
(302,0,l),
(846,0,l),
(1084,1350,l),
(740,1350,l),
(541,264,l),
(536,264,l),
(682,1350,l),
(148,1350,l),
(-90,0,l)
);
}
);
width = 960;
},
{
anchors = (
{
name = bottom;
pos = (9,0);
},
{
name = top;
pos = (248,1350);
}
);
layerId = "4F53612F-C4F8-4368-83AD-8913BEEF8F1D";
shapes = (
{
closed = 1;
nodes = (
(-46,0,l),
(188,1328,l),
(194,1328,l),
(28,0,l),
(76,0,l),
(314,1350,l),
(292,1350,l),
(58,22,l),
(52,22,l),
(218,1350,l),
(170,1350,l),
(-68,0,l)
);
}
);
width = 210;
},
{
anchors = (
{
name = bottom;
pos = (1192,0);
},
{
name = top;
pos = (1431,1350);
}
);
layerId = "E5A4176B-9C10-4B01-BBC9-D7999ECBFAF8";
shapes = (
{
closed = 1;
nodes = (
(608,0,l),
(817,1186,l),
(711,1186,l),
(1332,0,l),
(2222,0,l),
(2460,1350,l),
(1894,1350,l),
(1685,164,l),
(1825,164,l),
(1194,1350,l),
(280,1350,l),
(42,0,l)
);
}
);
width = 2517;
}
);
metricLeft = H;
metricRight = H;
note = N;
unicode = 78;
},
{
glyphname = Eng;
kernLeft = N;
kernRight = N;
lastChange = "2020-04-15 14:34:04 +0000";
layers = (
{
layerId = "A1A0948C-E637-4A65-8CCC-05505AD98C44";
shapes = (
{
closed = 1;
nodes = (
(170,-400,o),
(180,-193,o),
(180,0,c),
(158,0,l),
(158,-193,o),
(152,-378,o),
(76,-378,c),
(76,-400,l)
);
},
{
ref = N;
}
);
width = 220;
},
{
layerId = "BA0CA162-2A9B-49EE-921D-3B4346C7D39F";
shapes = (
{
closed = 1;
nodes = (
(638,-440,o),
(948,-388,o),
(948,0,c),
(594,0,l),
(596,-158,o),
(530,-198,o),
(390,-198,c),
(390,-440,l)
);
},
{
ref = N;
}
);
width = 960;
},
{
layerId = "C75D3228-2D13-4E9D-9829-45195F4951D0";
shapes = (
{
closed = 1;
nodes = (
(1878,-490,o),
(2318,-372,o),
(2318,0,c),
(1730,0,l),
(1730,-76,o),
(1672,-142,o),
(1298,-142,c),
(1298,-490,l)
);
},
{
ref = N;
}
);
width = 2515;
},
{
layerId = "71977205-6510-4B11-BB00-17BACA883C8F";
shapes = (
{
closed = 1;
nodes = (
(1603,-462,o),
(1746,-329,o),
(1746,0,c),
(1724,0,l),
(1724,-277,o),
(1629,-440,o),
(1163,-440,c),
(1163,-462,l)
);
},
{
ref = N;
}
);
width = 2018;
},
{
layerId = "5997A0D0-E78E-41EC-9011-DECBEAD8517D";
shapes = (
{
closed = 1;
nodes = (
(1419,-460,o),
(1575,-292,o),
(1627,0,c),
(1605,0,l),
(1563,-244,o),
(1441,-438,o),
(1027,-438,c),
(1023,-460,l)
);
},
{
ref = N;
}
);
width = 2018;
},
{
layerId = "55C4185A-9C39-4468-B19C-DE0A3E571700";
shapes = (
{
closed = 1;
nodes = (
(460,-440,o),
(776,-395,o),
(846,0,c),
(492,0,l),
(466,-158,o),
(396,-198,o),
(256,-198,c),
(212,-440,l)
);
},
{
ref = N;
}
);
width = 960;
},
{
layerId = "4F53612F-C4F8-4368-83AD-8913BEEF8F1D";
shapes = (
{
closed = 1;
nodes = (
(10,-400,o),
(74,-46,o),
(82,0,c),
(60,0,l),
(44,-92,o),
(-24,-378,o),
(-90,-378,c),
(-94,-400,l)
);
},
{
ref = N;
}
);
width = 216;
},
{
layerId = "E5A4176B-9C10-4B01-BBC9-D7999ECBFAF8";
shapes = (
{
closed = 1;
nodes = (
(1696,-490,o),
(2157,-372,o),
(2222,0,c),
(1634,0,l),
(1621,-76,o),
(1551,-142,o),
(1177,-142,c),
(1116,-490,l)
);
},
{
ref = N;
}
);
width = 2517;
}
);
metricLeft = N;
metricRight = N;
unicode = 330;
},
{
glyphname = O;
kernLeft = O;
kernRight = O;
lastChange = "2020-04-19 19:00:57 +0000";
layers = (
{
anchors = (
{
name = bottom;
pos = (91,0);
},
{
name = center;
pos = (91,675);
},
{
name = ogonek;
pos = (92,0);
},
{
name = top;
pos = (91,1350);
},
{
name = topleft;
pos = (20,1350);
},
{
name = topright;
pos = (142,1216);
}
);
layerId = "A1A0948C-E637-4A65-8CCC-05505AD98C44";
shapes = (
{
closed = 1;
nodes = (
(144,-8,o),
(144,240,o),
(144,674,qs),
(144,1104,o),
(144,1356,o),
(86,1356,qs),
(28,1356,o),
(28,1106,o),
(28,674,qs),
(28,240,o),
(28,-8,o),
(86,-8,qs)
);
},
{
closed = 1;
nodes = (
(50,14,o),
(50,246,o),
(50,674,qs),
(50,1100,o),
(50,1334,o),
(86,1334,qs),
(122,1334,o),
(122,1100,o),
(122,674,qs),
(122,246,o),
(122,14,o),
(86,14,qs)
);
}
);
width = 174;
},
{
anchors = (
{
name = bottom;
pos = (368,0);
},
{
name = center;
pos = (368,675);
},
{
name = ogonek;
pos = (389,0);
},
{
name = top;
pos = (368,1350);
},
{
name = topleft;
pos = (20,1350);
},
{
name = topright;
pos = (716,1180);
}
);
layerId = "BA0CA162-2A9B-49EE-921D-3B4346C7D39F";
shapes = (
{
closed = 1;
nodes = (
(724,-8,o),
(724,316,o),
(724,676,qs),
(724,1036,o),
(724,1362,o),
(368,1362,qs),
(12,1362,o),
(12,1036,o),
(12,676,qs),
(12,316,o),
(12,-8,o),
(368,-8,qs)
);
},
{
closed = 1;
nodes = (
(356,246,o),
(356,294,o),
(356,676,qs),
(356,1068,o),
(356,1108,o),
(368,1108,qs),
(380,1108,o),
(380,1068,o),
(380,676,qs),
(380,294,o),
(380,246,o),
(368,246,qs)
);
}
);
width = 736;
},
{
anchors = (
{
name = bottom;
pos = (1130,0);
},
{
name = center;
pos = (1130,675);
},
{
name = ogonek;
pos = (1152,0);
},
{
name = top;
pos = (1130,1350);
},
{
name = topleft;
pos = (50,1350);
},
{
name = topright;
pos = (1746,1232);
}
);
layerId = "C75D3228-2D13-4E9D-9829-45195F4951D0";
shapes = (
{
closed = 1;
nodes = (
(1590,-16,o),
(2172,334,o),
(2172,674,qs),
(2172,1014,o),
(1590,1362,o),
(1126,1362,qs),
(662,1362,o),
(80,1014,o),
(80,674,qs),
(80,334,o),
(662,-16,o),
(1126,-16,qs)
);
},
{
closed = 1;
nodes = (
(910,346,o),
(646,512,o),
(646,674,qs),
(646,836,o),
(910,1000,o),
(1126,1000,qs),
(1342,1000,o),
(1606,836,o),
(1606,674,qs),
(1606,512,o),
(1342,346,o),
(1126,346,qs)
);
}
);
width = 2259;
},
{
anchors = (
{
name = bottom;
pos = (1060,0);
},
{
name = center;
pos = (1064,675);
},
{
name = ogonek;
pos = (1080,0);
},
{
name = top;
pos = (1060,1350);
},
{
name = topleft;
pos = (118,1350);
},
{
name = topright;
pos = (1648,1224);
}
);
layerId = "71977205-6510-4B11-BB00-17BACA883C8F";
shapes = (
{
closed = 1;
nodes = (
(1458,-8,o),
(1979,341,o),
(1979,676,qs),
(1979,1012,o),
(1458,1363,o),
(1060,1363,qs),
(662,1363,o),
(142,1011,o),
(142,676,qs),
(142,341,o),
(663,-8,o),
(1060,-8,qs)
);
},
{
closed = 1;
nodes = (
(669,14,o),
(166,354,o),
(166,676,qs),
(166,999,o),
(669,1341,o),
(1060,1341,qs),
(1452,1341,o),
(1955,999,o),
(1955,676,qs),
(1955,354,o),
(1452,14,o),
(1060,14,qs)
);
}
);
width = 2173;
},
{
anchors = (
{
name = bottom;
pos = (927,0);
},
{
name = center;
pos = (1047,675);
},
{
name = ogonek;
pos = (938,0);
},
{
name = top;
pos = (1166,1350);
},
{
name = topleft;
pos = (248,1350);
},
{
name = topright;
pos = (1737,1224);
}
);
layerId = "5997A0D0-E78E-41EC-9011-DECBEAD8517D";
shapes = (
{
closed = 1;
nodes = (
(1331,-8,o),
(1910,341,o),
(1969,676,qs),
(2028,1012,o),
(1565,1363,o),
(1167,1363,qs),
(769,1363,o),
(191,1011,o),
(132,676,qs),
(73,341,o),
(536,-8,o),
(933,-8,qs)
);
},
{
closed = 1;
nodes = (
(542,14,o),
(99,354,o),
(156,676,qs),
(213,999,o),
(776,1341,o),
(1167,1341,qs),
(1559,1341,o),
(2002,999,o),
(1945,676,qs),
(1888,354,o),
(1325,14,o),
(933,14,qs)
);
}
);
width = 2173;
},
{
anchors = (
{
name = bottom;
pos = (269,0);
},
{
name = center;
pos = (389,675);
},
{
name = ogonek;
pos = (285,0);
},
{
name = top;
pos = (508,1350);
},
{
name = topleft;
pos = (162,1350);
},
{
name = topright;
pos = (820,1180);
}
);
layerId = "55C4185A-9C39-4468-B19C-DE0A3E571700";
shapes = (
{
closed = 1;
nodes = (
(618,-8,o),
(675,316,o),
(739,676,qs),
(802,1036,o),
(860,1362,o),
(504,1362,qs),
(148,1362,o),
(90,1036,o),
(27,676,qs),
(-37,316,o),
(-94,-8,o),
(262,-8,qs)
);
},
{
closed = 1;
nodes = (
(295,246,o),
(303,294,o),
(371,676,qs),
(440,1068,o),
(447,1108,o),
(459,1108,qs),
(471,1108,o),
(464,1068,o),
(395,676,qs),
(327,294,o),
(319,246,o),
(307,246,qs)
);
}
);
width = 736;
},
{
anchors = (
{
name = bottom;
pos = (-6,0);
},
{
name = center;
pos = (114,675);
},
{
name = ogonek;
pos = (-9,0);
},
{
name = top;
pos = (233,1350);
},
{
name = topleft;
pos = (161,1350);
},
{
name = topright;
pos = (259,1216);
}
);
layerId = "4F53612F-C4F8-4368-83AD-8913BEEF8F1D";
shapes = (
{
closed = 1;
nodes = (
(46,-8,o),
(89,240,o),
(166,674,qs),
(242,1104,o),
(286,1356,o),
(228,1356,qs),
(170,1356,o),
(126,1106,o),
(50,674,qs),
(-27,240,o),
(-70,-8,o),
(-12,-8,qs)
);
},
{
closed = 1;
nodes = (
(-44,14,o),
(-3,246,o),
(72,674,qs),
(147,1100,o),
(188,1334,o),
(224,1334,qs),
(260,1334,o),
(219,1100,o),
(144,674,qs),
(69,246,o),
(28,14,o),
(-8,14,qs)
);
}
);
width = 174;
},
{
anchors = (
{
name = bottom;
pos = (995,0);
},
{
name = center;
pos = (1115,675);
},
{
name = ogonek;
pos = (1021,0);
},
{
name = top;
pos = (1234,1350);
},
{
name = topleft;
pos = (164,1350);
},
{
name = topright;
pos = (1853,1232);
}
);
layerId = "E5A4176B-9C10-4B01-BBC9-D7999ECBFAF8";
shapes = (
{
closed = 1;
nodes = (
(1489,-16,o),
(2130,331,o),
(2172,674,qs),
(2212,1004,o),
(1691,1362,o),
(1227,1362,qs),
(763,1362,o),
(122,1017,o),
(80,674,qs),
(40,344,o),
(561,-16,o),
(1025,-16,qs)
);
},
{
closed = 1;
nodes = (
(852,346,o),
(618,512,o),
(646,674,qs),
(675,836,o),
(968,1000,o),
(1184,1000,qs),
(1400,1000,o),
(1635,836,o),
(1606,674,qs),
(1578,512,o),
(1284,346,o),
(1068,346,qs)
);
}
);
width = 2259;
}
);
note = O;
unicode = 79;
},
{
glyphname = Oslash;
kernLeft = O;
kernRight = O;
layers = (
{
anchors = (
{
name = bottom;
pos = (91,0);
},
{
name = top;
pos = (91,1350);
}
);
layerId = "A1A0948C-E637-4A65-8CCC-05505AD98C44";
shapes = (
{
closed = 1;
nodes = (
(36,0,l),
(158,1348,l),
(136,1348,l),
(14,0,l)
);
},
{
ref = O;
}
);
width = 182;
},
{
anchors = (
{
name = bottom;
pos = (368,0);
},
{
name = top;
pos = (368,1350);
}
);
layerId = "BA0CA162-2A9B-49EE-921D-3B4346C7D39F";
shapes = (
{
closed = 1;
nodes = (
(72,0,l),
(744,1348,l),
(666,1348,l),
(-8,0,l)
);
},
{
ref = O;
}
);
width = 736;
},
{
anchors = (
{
name = bottom;
pos = (1099,0);
},
{
name = top;
pos = (1099,1350);
}
);
layerId = "C75D3228-2D13-4E9D-9829-45195F4951D0";
shapes = (
{
closed = 1;
nodes = (
(418,0,l),
(2158,1348,l),
(1780,1348,l),
(38,0,l)
);
},
{
ref = O;
}
);
width = 2198;
},
{
anchors = (
{
name = bottom;
pos = (1028,0);
},
{
name = top;
pos = (1028,1350);
}
);
layerId = "71977205-6510-4B11-BB00-17BACA883C8F";
shapes = (
{
closed = 1;
nodes = (
(216,0,l),
(1764,1348,l),
(1735,1348,l),
(180,0,l)
);
},
{
ref = O;
}
);
width = 1810;
},
{
anchors = (
{
name = bottom;
pos = (790,0);
},
{
name = top;
pos = (1029,1350);
}
);
layerId = "5997A0D0-E78E-41EC-9011-DECBEAD8517D";
shapes = (
{
closed = 1;
nodes = (
(58,0,l),
(1652,1348,l),
(1620,1348,l),
(18,0,l)
);
},
{
ref = O;
}
);
width = 1770;
},
{
anchors = (
{
name = bottom;
pos = (271,0);
},
{
name = top;
pos = (510,1350);
}
);
layerId = "55C4185A-9C39-4468-B19C-DE0A3E571700";
shapes = (
{
closed = 1;
nodes = (
(-24,0,l),
(884,1348,l),
(806,1348,l),
(-104,0,l)
);
},
{
ref = O;
}
);
width = 732;
},
{
anchors = (
{
name = bottom;
pos = (-3,0);
},
{
name = top;
pos = (236,1350);
}
);
layerId = "4F53612F-C4F8-4368-83AD-8913BEEF8F1D";
shapes = (
{
closed = 1;
nodes = (
(-62,0,l),
(296,1348,l),
(274,1348,l),
(-84,0,l)
);
},
{
ref = O;
}
);
width = 184;
},
{
anchors = (
{
name = bottom;
pos = (1004,0);
},
{
name = top;
pos = (1243,1350);
}
);
layerId = "E5A4176B-9C10-4B01-BBC9-D7999ECBFAF8";
shapes = (
{
closed = 1;
nodes = (
(300,0,l),
(2276,1348,l),
(1898,1348,l),
(-80,0,l)
);
},
{
ref = O;
}
);
width = 2198;
}
);
unicode = 216;
},
{
glyphname = P;
kernLeft = H;
kernRight = P;
lastChange = "2020-04-15 20:28:29 +0000";
layers = (
{
anchors = (
{
name = bottom;
pos = (85,0);
},
{
name = top;
pos = (85,1350);
}
);
layerId = "A1A0948C-E637-4A65-8CCC-05505AD98C44";
shapes = (
{
closed = 1;
nodes = (
(50,0,l),
(50,388,l),
(72,388,ls),
(132,388,o),
(132,680,o),
(132,868,qs),
(132,1056,o),
(132,1350,o),
(72,1350,qs),
(28,1350,l),
(28,0,l)
);
},
{
closed = 1;
nodes = (
(50,1328,l),
(68,1328,ls),
(110,1328,o),
(110,1056,o),
(110,868,qs),
(110,680,o),
(110,410,o),
(68,410,qs),
(50,410,l)
);
}
);
width = 170;
},
{
anchors = (
{
name = bottom;
pos = (372,0);
},
{
name = top;
pos = (372,1350);
}
);
layerId = "BA0CA162-2A9B-49EE-921D-3B4346C7D39F";
shapes = (
{
closed = 1;
nodes = (
(360,0,l),
(360,352,l),
(500,352,ls),
(732,352,o),
(732,692,o),
(732,852,qs),
(732,1010,o),
(732,1350,o),
(500,1350,qs),
(12,1350,l),
(12,0,l)
);
},
{
closed = 1;
nodes = (
(360,1096,l),
(366,1096,ls),
(384,1096,o),
(384,1006,o),
(384,852,qs),
(384,696,o),
(384,606,o),
(366,606,qs),
(360,606,l)
);
}
);
width = 744;
},
{
anchors = (
{
name = bottom;
pos = (1044,0);
},
{
name = top;
pos = (1044,1350);
}
);
layerId = "C75D3228-2D13-4E9D-9829-45195F4951D0";
shapes = (
{
closed = 1;
nodes = (
(706,0,l),
(706,310,l),
(1326,310,ls),
(1652,310,o),
(1978,564,o),
(1978,830,qs),
(1978,1094,o),
(1652,1350,o),
(1326,1350,qs),
(140,1350,l),
(140,0,l)
);
},
{
closed = 1;
nodes = (
(706,988,l),
(1188,988,ls),
(1302,988,o),
(1420,918,o),
(1420,830,qs),
(1420,740,o),
(1302,672,o),
(1188,672,qs),
(706,672,l)
);
}
);
width = 2065;
},
{
anchors = (
{
name = bottom;
pos = (877,0);
},
{
name = top;
pos = (877,1350);
}
);
layerId = "71977205-6510-4B11-BB00-17BACA883C8F";
shapes = (
{
closed = 1;
nodes = (
(172,0,l),
(172,492,l),
(961,492,ls),
(1270,492,o),
(1570,707,o),
(1570,921,qs),
(1570,1135,o),
(1269,1350,o),
(961,1350,qs),
(150,1350,l),
(150,0,l)
);
},
{
closed = 1;
nodes = (
(172,1328,l),
(950,1328,ls),
(1266,1328,o),
(1546,1120,o),
(1546,921,qs),
(1546,721,o),
(1265,514,o),
(950,514,qs),
(172,514,l)
);
}
);
width = 1770;
},
{
anchors = (
{
name = bottom;
pos = (657,0);
},
{
name = top;
pos = (896,1350);
}
);
layerId = "5997A0D0-E78E-41EC-9011-DECBEAD8517D";
shapes = (
{
closed = 1;
nodes = (
(53,0,l),
(140,492,l),
(934,492,ls),
(1243,492,o),
(1576,707,o),
(1613,921,qs),
(1651,1135,o),
(1383,1350,o),
(1075,1350,qs),
(269,1350,l),
(31,0,l)
);
},
{
closed = 1;
nodes = (
(287,1328,l),
(1065,1328,ls),
(1381,1328,o),
(1624,1120,o),
(1589,921,qs),
(1554,721,o),
(1237,514,o),
(922,514,qs),
(144,514,l)
);
}
);
width = 1750;
},
{
anchors = (
{
name = bottom;
pos = (275,0);
},
{
name = top;
pos = (514,1350);
}
);
layerId = "55C4185A-9C39-4468-B19C-DE0A3E571700";
shapes = (
{
closed = 1;
nodes = (
(258,0,l),
(320,352,l),
(460,352,ls),
(692,352,o),
(757,722,o),
(780,852,qs),
(803,980,o),
(868,1350,o),
(636,1350,qs),
(148,1350,l),
(-90,0,l)
);
},
{
closed = 1;
nodes = (
(451,1096,l),
(457,1096,ls),
(475,1096,o),
(459,1006,o),
(432,852,qs),
(405,696,o),
(389,606,o),
(371,606,qs),
(365,606,l)
);
}
);
width = 743;
},
{
anchors = (
{
name = bottom;
pos = (-12,0);
},
{
name = top;
pos = (227,1350);
}
);
layerId = "4F53612F-C4F8-4368-83AD-8913BEEF8F1D";
shapes = (
{
closed = 1;
nodes = (
(-46,0,l),
(22,388,l),
(46,388,ls),
(104,388,o),
(156,680,o),
(189,868,qs),
(222,1056,o),
(274,1350,o),
(212,1350,qs),
(170,1350,l),
(-68,0,l)
);
},
{
closed = 1;
nodes = (
(188,1328,l),
(206,1328,ls),
(248,1328,o),
(200,1056,o),
(167,868,qs),
(134,680,o),
(86,410,o),
(44,410,qs),
(26,410,l)
);
}
);
width = 166;
},
{
anchors = (
{
name = bottom;
pos = (963,0);
},
{
name = top;
pos = (1202,1350);
}
);
layerId = "E5A4176B-9C10-4B01-BBC9-D7999ECBFAF8";
shapes = (
{
closed = 1;
nodes = (
(608,0,l),
(664,310,l),
(1304,310,ls),
(1630,310,o),
(2028,636,o),
(2028,906,qs),
(2028,1096,o),
(1776,1350,o),
(1450,1350,qs),
(282,1350,l),
(42,0,l)
);
},
{
closed = 1;
nodes = (
(784,988,l),
(1266,988,ls),
(1380,988,o),
(1470,918,o),
(1470,850,qs),
(1470,758,o),
(1324,672,o),
(1210,672,qs),
(728,672,l)
);
}
);
width = 2069;
}
);
metricLeft = H;
note = P;
unicode = 80;
},
{
glyphname = Thorn;
kernLeft = H;
kernRight = Thorn;
layers = (
{
anchors = (
{
name = bottom;
pos = (105,0);
},
{
name = top;
pos = (105,1350);
}
);
layerId = "A1A0948C-E637-4A65-8CCC-05505AD98C44";
shapes = (
{
closed = 1;
nodes = (
(50,0,l),
(50,228,l),
(94,228,l),
(146,228,o),
(172,310,o),
(172,478,cs),
(172,882,ls),
(172,1042,o),
(144,1132,o),
(94,1132,c),
(50,1132,l),
(50,1350,l),
(28,1350,l),
(28,0,l)
);
},
{
closed = 1;
nodes = (
(50,1108,l),
(80,1108,l),
(130,1108,o),
(150,1038,o),
(150,862,cs),
(150,498,ls),
(150,314,o),
(132,250,o),
(80,250,c),
(50,250,l)
);
}
);
width = 210;
},
{
anchors = (
{
name = bottom;
pos = (373,0);
},
{
name = top;
pos = (373,1350);
}
);
layerId = "BA0CA162-2A9B-49EE-921D-3B4346C7D39F";
shapes = (
{
closed = 1;
nodes = (
(358,0,l),
(358,228,l),
(514,228,l),
(672,228,o),
(734,304,o),
(734,498,cs),
(734,862,ls),
(734,1050,o),
(666,1132,o),
(514,1132,c),
(358,1132,l),
(358,1350,l),
(12,1350,l),
(12,0,l)
);
},
{
closed = 1;
nodes = (
(358,908,l),
(368,908,l),
(388,908,o),
(388,892,o),
(388,838,cs),
(388,538,ls),
(388,468,o),
(386,450,o),
(368,450,c),
(358,450,l)
);
}
);
width = 746;
},
{
anchors = (
{
name = bottom;
pos = (1023,0);
},
{
name = top;
pos = (1023,1350);
}
);
layerId = "C75D3228-2D13-4E9D-9829-45195F4951D0";
shapes = (
{
closed = 1;
nodes = (
(666,0,l),
(666,228,l),
(1498,228,ls),
(1804,228,o),
(1920,322,o),
(1920,578,cs),
(1920,786,ls),
(1920,1012,o),
(1782,1132,o),
(1498,1132,c),
(666,1132,l),
(666,1350,l),
(108,1350,l),
(108,0,l)
);
},
{
closed = 1;
nodes = (
(666,772,l),
(1296,772,l),
(1348,772,o),
(1360,736,o),
(1360,712,cs),
(1360,646,ls),
(1360,624,o),
(1350,588,o),
(1296,588,c),
(666,588,l)
);
}
);
width = 2045;
},
{
anchors = (
{
name = bottom;
pos = (836,0);
},
{
name = top;
pos = (836,1350);
}
);
layerId = "71977205-6510-4B11-BB00-17BACA883C8F";
shapes = (
{
closed = 1;
nodes = (
(216,0,l),
(216,228,l),
(1012,228,l),
(1359,228,o),
(1461,412,o),
(1461,607,cs),
(1461,746,ls),
(1461,950,o),
(1363,1132,o),
(1012,1132,c),
(216,1132,l),
(216,1350,l),
(194,1350,l),
(194,0,l)
);
},
{
closed = 1;
nodes = (
(216,1108,l),
(1014,1108,l),
(1343,1108,o),
(1439,941,o),
(1439,738,cs),
(1439,615,ls),
(1439,422,o),
(1333,250,o),
(1014,250,c),
(216,250,l)
);
}
);
width = 1672;
},
{
anchors = (
{
name = bottom;
pos = (645,0);
},
{
name = top;
pos = (884,1350);
}
);
layerId = "5997A0D0-E78E-41EC-9011-DECBEAD8517D";
shapes = (
{
closed = 1;
nodes = (
(56,0,l),
(96,228,l),
(898,228,l),
(1245,228,o),
(1373,412,o),
(1408,607,cs),
(1433,746,ls),
(1470,950,o),
(1399,1132,o),
(1048,1132,c),
(256,1132,l),
(294,1350,l),
(272,1350,l),
(34,0,l)
);
},
{
closed = 1;
nodes = (
(251,1108,l),
(1049,1108,l),
(1378,1108,o),
(1445,941,o),
(1409,738,cs),
(1387,615,ls),
(1352,422,o),
(1217,250,o),
(898,250,c),
(100,250,l)
);
}
);
width = 1672;
},
{
anchors = (
{
name = bottom;
pos = (276,0);
},
{
name = top;
pos = (515,1350);
}
);
layerId = "55C4185A-9C39-4468-B19C-DE0A3E571700";
shapes = (
{
closed = 1;
nodes = (
(256,0,l),
(296,228,l),
(452,228,l),
(610,228,o),
(686,304,o),
(720,498,cs),
(784,862,ls),
(817,1050,o),
(764,1132,o),
(612,1132,c),
(456,1132,l),
(494,1350,l),
(148,1350,l),
(-90,0,l)
);
},
{
closed = 1;
nodes = (
(416,908,l),
(425,908,l),
(445,908,o),
(444,892,o),
(434,838,cs),
(381,538,ls),
(369,468,o),
(365,450,o),
(345,450,c),
(335,450,l)
);
}
);
width = 746;
},
{
anchors = (
{
name = bottom;
pos = (11,0);
},
{
name = top;
pos = (250,1350);
}
);
layerId = "4F53612F-C4F8-4368-83AD-8913BEEF8F1D";
shapes = (
{
closed = 1;
nodes = (
(-44,0,l),
(-4,228,l),
(41,228,l),
(93,228,o),
(132,310,o),
(162,478,cs),
(233,882,ls),
(261,1042,o),
(248,1132,o),
(198,1132,c),
(156,1132,l),
(194,1350,l),
(172,1350,l),
(-66,0,l)
);
},
{
closed = 1;
nodes = (
(151,1108,l),
(181,1108,l),
(231,1108,o),
(239,1038,o),
(208,862,cs),
(144,498,ls),
(112,314,o),
(82,250,o),
(30,250,c),
(0,250,l)
);
}
);
width = 210;
},
{
anchors = (
{
name = bottom;
pos = (928,0);
},
{
name = top;
pos = (1167,1350);
}
);
layerId = "E5A4176B-9C10-4B01-BBC9-D7999ECBFAF8";
shapes = (
{
closed = 1;
nodes = (
(537,0,l),
(577,228,l),
(1409,228,ls),
(1715,228,o),
(1848,322,o),
(1893,578,cs),
(1930,786,ls),
(1969,1012,o),
(1853,1132,o),
(1569,1132,c),
(737,1132,l),
(775,1350,l),
(217,1350,l),
(-21,0,l)
);
},
{
closed = 1;
nodes = (
(673,772,l),
(1303,772,l),
(1355,772,o),
(1361,736,o),
(1357,712,cs),
(1345,646,ls),
(1341,624,o),
(1325,588,o),
(1271,588,c),
(641,588,l)
);
}
);
width = 2045;
}
);
note = Thorn;
unicode = 222;
},
{
glyphname = Q;
kernLeft = O;
kernRight = O;
layers = (
{
anchors = (
{
name = bottom;
pos = (97,0);
},
{
name = top;
pos = (97,1350);
}
);
layerId = "A1A0948C-E637-4A65-8CCC-05505AD98C44";
shapes = (
{
closed = 1;
nodes = (
(180,-84,l),
(104,22,l),
(88,8,l),
(164,-96,l)
);
},
{
ref = O;
}
);
width = 210;
},
{
anchors = (
{
name = bottom;
pos = (373,0);
},
{
name = top;
pos = (373,1350);
}
);
layerId = "BA0CA162-2A9B-49EE-921D-3B4346C7D39F";
shapes = (
{
closed = 1;
nodes = (
(716,-114,l),
(570,232,l),
(324,132,l),
(474,-218,l)
);
},
{
ref = O;
}
);
width = 736;
},
{
anchors = (
{
name = bottom;
pos = (1109,0);
},
{
name = top;
pos = (1109,1350);
}
);
layerId = "C75D3228-2D13-4E9D-9829-45195F4951D0";
shapes = (
{
closed = 1;
nodes = (
(2130,-150,l),
(1720,322,l),
(1294,114,l),
(1730,-390,l)
);
},
{
ref = O;
}
);
width = 2259;
},
{
anchors = (
{
name = bottom;
pos = (1026,0);
},
{
name = top;
pos = (1026,1350);
}
);
layerId = "71977205-6510-4B11-BB00-17BACA883C8F";
shapes = (
{
closed = 1;
nodes = (
(1925,-192,l),
(1645,158,l),
(1627,141,l),
(1904,-209,l)
);
},
{
ref = O;
}
);
width = 2173;
},
{
anchors = (
{
name = bottom;
pos = (810,0);
},
{
name = top;
pos = (1049,1350);
}
);
layerId = "5997A0D0-E78E-41EC-9011-DECBEAD8517D";
shapes = (
{
closed = 1;
nodes = (
(1695,-140,l),
(1519,140,l),
(1499,124,l),
(1673,-156,l)
);
},
{
ref = O;
}
);
width = 2173;
},
{
anchors = (
{
name = bottom;
pos = (276,0);
},
{
name = top;
pos = (515,1350);
}
);
layerId = "55C4185A-9C39-4468-B19C-DE0A3E571700";
shapes = (
{
closed = 1;
nodes = (
(598,-124,l),
(513,222,l),
(249,142,l),
(337,-208,l)
);
},
{
ref = O;
}
);
width = 736;
},
{
anchors = (
{
name = bottom;
pos = (2,0);
},
{
name = top;
pos = (241,1350);
}
);
layerId = "4F53612F-C4F8-4368-83AD-8913BEEF8F1D";
shapes = (
{
closed = 1;
nodes = (
(72,-84,l),
(14,22,l),
(-6,8,l),
(54,-96,l)
);
},
{
ref = O;
}
);
width = 214;
},
{
anchors = (
{
name = bottom;
pos = (1014,0);
},
{
name = top;
pos = (1253,1350);
}
);
layerId = "E5A4176B-9C10-4B01-BBC9-D7999ECBFAF8";
shapes = (
{
closed = 1;
nodes = (
(1960,-150,l),
(1632,322,l),
(1170,114,l),
(1518,-390,l)
);
},
{
ref = O;
}
);
width = 2259;
}
);
metricLeft = O;
metricRight = O;
note = Q;
unicode = 81;
},
{
glyphname = R;
kernLeft = H;
kernRight = R;
lastChange = "2020-04-24 03:41:47 +0000";
layers = (
{
anchors = (
{
name = bottom;
pos = (89,0);
},
{
name = top;
pos = (89,1350);
}
);
layerId = "A1A0948C-E637-4A65-8CCC-05505AD98C44";
shapes = (
{
closed = 1;
nodes = (
(50,0,l),
(50,632,l),
(68,632,ls),
(134,632,o),
(134,856,o),
(134,990,qs),
(134,1124,o),
(134,1350,o),
(68,1350,qs),
(28,1350,l),
(28,0,l)
);
},
{
closed = 1;
nodes = (
(140,0,l),
(108,660,l),
(86,638,l),
(118,0,l)
);
},
{
closed = 1;
nodes = (
(50,1328,l),
(68,1328,ls),
(112,1328,o),
(112,1124,o),
(112,990,qs),
(112,856,o),
(112,654,o),
(68,654,qs),
(50,654,l)
);
}
);
width = 172;
},
{
anchors = (
{
name = bottom;
pos = (375,0);
},
{
name = top;
pos = (375,1350);
}
);
layerId = "BA0CA162-2A9B-49EE-921D-3B4346C7D39F";
shapes = (
{
closed = 1;
nodes = (
(362,0,l),
(362,580,l),
(522,580,ls),
(736,580,o),
(736,836,o),
(736,944,qs),
(736,1056,o),
(736,1350,o),
(520,1350,qs),
(12,1350,l),
(12,0,l)
);
},
{
closed = 1;
nodes = (
(751,0,l),
(697,642,l),
(369,612,l),
(401,0,l)
);
},
{
closed = 1;
nodes = (
(362,1096,l),
(366,1096,ls),
(386,1096,o),
(386,1020,o),
(386,944,qs),
(386,868,o),
(386,794,o),
(366,794,qs),
(362,794,l)
);
}
);
width = 751;
},
{
anchors = (
{
name = bottom;
pos = (1050,0);
},
{
name = top;
pos = (1050,1350);
}
);
layerId = "C75D3228-2D13-4E9D-9829-45195F4951D0";
shapes = (
{
closed = 1;
nodes = (
(706,0,l),
(706,424,l),
(1372,424,ls),
(1664,424,o),
(1994,646,o),
(1994,888,qs),
(1994,1132,o),
(1684,1350,o),
(1412,1350,qs),
(140,1350,l),
(140,0,l)
);
},
{
closed = 1;
nodes = (
(2046,0,l),
(1410,630,l),
(834,630,l),
(1406,0,l)
);
},
{
closed = 1;
nodes = (
(706,988,l),
(1230,988,ls),
(1334,988,o),
(1428,934,o),
(1428,876,qs),
(1428,816,o),
(1334,764,o),
(1230,764,qs),
(706,764,l)
);
}
);
width = 2146;
},
{
anchors = (
{
name = bottom;
pos = (863,0);
},
{
name = top;
pos = (863,1350);
}
);
layerId = "71977205-6510-4B11-BB00-17BACA883C8F";
shapes = (
{
closed = 1;
nodes = (
(172,0,l),
(172,647,l),
(1117,647,ls),
(1369,647,o),
(1604,834,o),
(1604,1000,qs),
(1604,1166,o),
(1369,1350,o),
(1117,1350,qs),
(150,1350,l),
(150,0,l)
);
},
{
closed = 1;
nodes = (
(1589,0,l),
(1133,657,l),
(1105,657,l),
(1561,0,l)
);
},
{
closed = 1;
nodes = (
(172,1328,l),
(1115,1328,ls),
(1362,1328,o),
(1580,1157,o),
(1580,1000,qs),
(1580,843,o),
(1363,669,o),
(1115,669,qs),
(172,669,l)
);
}
);
width = 1804;
},
{
anchors = (
{
name = bottom;
pos = (636,0);
},
{
name = top;
pos = (875,1350);
}
);
layerId = "5997A0D0-E78E-41EC-9011-DECBEAD8517D";
shapes = (
{
closed = 1;
nodes = (
(53,0,l),
(167,647,l),
(1114,647,ls),
(1366,647,o),
(1632,834,o),
(1661,1000,qs),
(1691,1166,o),
(1485,1350,o),
(1233,1350,qs),
(269,1350,l),
(31,0,l)
);
},
{
closed = 1;
nodes = (
(1470,0,l),
(1130,657,l),
(1105,657,l),
(1445,0,l)
);
},
{
closed = 1;
nodes = (
(287,1328,l),
(1232,1328,ls),
(1481,1328,o),
(1665,1157,o),
(1637,1000,qs),
(1610,843,o),
(1358,669,o),
(1114,669,qs),
(171,669,l)
);
}
);
width = 1804;
},
{
anchors = (
{
name = bottom;
pos = (265,0);
},
{
name = top;
pos = (504,1350);
}
);
layerId = "55C4185A-9C39-4468-B19C-DE0A3E571700";
shapes = (
{
closed = 1;
nodes = (
(260,0,l),
(362,580,l),
(522,580,ls),
(736,580,o),
(781,836,o),
(800,944,qs),
(820,1056,o),
(872,1350,o),
(656,1350,qs),
(148,1350,l),
(-90,0,l)
);
},
{
closed = 1;
nodes = (
(649,0,l),
(708,642,l),
(375,612,l),
(299,0,l)
);
},
{
closed = 1;
nodes = (
(453,1096,l),
(457,1096,ls),
(477,1096,o),
(464,1020,o),
(450,944,qs),
(437,868,o),
(424,794,o),
(404,794,qs),
(400,794,l)
);
}
);
width = 751;
},
{
anchors = (
{
name = bottom;
pos = (-10,0);
},
{
name = top;
pos = (229,1350);
}
);
layerId = "4F53612F-C4F8-4368-83AD-8913BEEF8F1D";
shapes = (
{
closed = 1;
nodes = (
(-46,0,l),
(65,632,l),
(83,632,ls),
(149,632,o),
(189,856,o),
(213,990,qs),
(236,1124,o),
(276,1350,o),
(210,1350,qs),
(170,1350,l),
(-68,0,l)
);
},
{
closed = 1;
nodes = (
(44,0,l),
(128,660,l),
(102,638,l),
(22,0,l)
);
},
{
closed = 1;
nodes = (
(188,1328,l),
(206,1328,ls),
(250,1328,o),
(214,1124,o),
(191,990,qs),
(167,856,o),
(131,654,o),
(87,654,qs),
(69,654,l)
);
}
);
width = 167;
},
{
anchors = (
{
name = bottom;
pos = (946,0);
},
{
name = top;
pos = (1185,1350);
}
);
layerId = "E5A4176B-9C10-4B01-BBC9-D7999ECBFAF8";
shapes = (
{
closed = 1;
nodes = (
(608,0,l),
(683,424,l),
(1349,424,ls),
(1641,424,o),
(2019,644,o),
(2053,888,qs),
(2086,1122,o),
(1824,1350,o),
(1552,1350,qs),
(280,1350,l),
(42,0,l)
);
},
{
closed = 1;
nodes = (
(1948,0,l),
(1423,630,l),
(847,630,l),
(1308,0,l)
);
},
{
closed = 1;
nodes = (
(782,988,l),
(1306,988,ls),
(1410,988,o),
(1495,934,o),
(1484,876,qs),
(1474,816,o),
(1371,764,o),
(1267,764,qs),
(743,764,l)
);
}
);
width = 2147;
}
);
metricLeft = H;
note = R;
unicode = 82;
},
{
glyphname = S;
kernLeft = S;
kernRight = S;
layers = (
{
anchors = (
{
name = bottom;
pos = (88,0);
},
{
name = top;
pos = (88,1350);
}
);
layerId = "A1A0948C-E637-4A65-8CCC-05505AD98C44";
shapes = (
{
closed = 1;
nodes = (
(142,-12,o),
(142,194,o),
(142,300,qs),
(142,480,o),
(142,638,o),
(88,692,qs),
(48,732,o),
(48,892,o),
(48,1040,qs),
(48,1136,o),
(48,1334,o),
(84,1334,qs),
(120,1334,o),
(120,1136,o),
(120,796,q),
(142,796,l),
(142,1136,o),
(142,1356,o),
(84,1356,qs),
(26,1356,o),
(26,1138,o),
(26,1040,qs),
(26,880,o),
(26,720,o),
(78,670,qs),
(120,629,o),
(120,474,o),
(120,300,qs),
(120,194,o),
(120,10,o),
(82,10,qs),
(46,10,o),
(46,194,o),
(46,554,q),
(24,554,l),
(24,194,o),
(24,-12,o),
(82,-12,qs)
);
}
);
width = 176;
},
{
anchors = (
{
name = bottom;
pos = (374,0);
},
{
name = top;
pos = (374,1350);
}
);
layerId = "BA0CA162-2A9B-49EE-921D-3B4346C7D39F";
shapes = (
{
closed = 1;
nodes = (
(736,-8,o),
(736,320,o),
(736,442,qs),
(736,604,o),
(652,724,o),
(472,810,qs),
(384,852,o),
(360,896,o),
(360,1006,qs),
(360,1074,o),
(360,1110,o),
(372,1110,qs),
(384,1110,o),
(384,1074,o),
(384,890,q),
(732,890,l),
(732,1030,o),
(732,1362,o),
(374,1362,q),
(12,1362,o),
(12,1046,o),
(12,924,qs),
(12,762,o),
(94,624,o),
(288,532,qs),
(364,496,o),
(384,440,o),
(384,356,qs),
(384,280,o),
(384,244,o),
(372,244,qs),
(360,244,o),
(360,280,o),
(360,468,q),
(12,468,l),
(12,308,o),
(12,-8,o),
(372,-8,qs)
);
}
);
width = 748;
},
{
anchors = (
{
name = bottom;
pos = (1099,0);
},
{
name = top;
pos = (1099,1350);
}
);
layerId = "C75D3228-2D13-4E9D-9829-45195F4951D0";
shapes = (
{
closed = 1;
nodes = (
(1526,-8,o),
(2060,208,o),
(2060,470,qs),
(2060,652,o),
(1716,812,o),
(1260,840,qs),
(1016,855,o),
(630,884,o),
(630,920,qs),
(630,955,o),
(890,1002,o),
(1066,1002,qs),
(1220,1002,o),
(1494,934,o),
(1494,874,q),
(2060,874,l),
(2060,1126,o),
(1504,1362,o),
(1074,1362,qs),
(646,1362,o),
(96,1144,o),
(96,896,qs),
(96,703,o),
(456,534,o),
(876,508,qs),
(1138,492,o),
(1514,468,o),
(1514,426,qs),
(1514,390,o),
(1254,352,o),
(1088,352,qs),
(920,352,o),
(660,422,o),
(660,482,q),
(94,482,l),
(94,226,o),
(638,-8,o),
(1094,-8,qs)
);
}
);
width = 2198;
},
{
anchors = (
{
name = bottom;
pos = (897,0);
},
{
name = top;
pos = (897,1350);
}
);
layerId = "71977205-6510-4B11-BB00-17BACA883C8F";
shapes = (
{
closed = 1;
nodes = (
(1269,-7,o),
(1676,159,o),
(1676,332,qs),
(1676,495,o),
(1255,620,o),
(898,695,qs),
(550,768,o),
(139,899,o),
(139,1049,qs),
(139,1197,o),
(530,1341,o),
(895,1341,qs),
(1267,1341,o),
(1652,1145,o),
(1652,893,q),
(1676,893,l),
(1676,1152,o),
(1287,1363,o),
(895,1363,q),
(526,1363,o),
(115,1215,o),
(115,1049,qs),
(115,885,o),
(529,750,o),
(883,675,qs),
(1235,600,o),
(1652,481,o),
(1652,332,qs),
(1652,176,o),
(1263,15,o),
(893,15,qs),
(517,15,o),
(140,231,o),
(140,483,q),
(115,483,l),
(115,215,o),
(504,-7,o),
(893,-7,qs)
);
}
);
width = 1891;
},
{
anchors = (
{
name = bottom;
pos = (782,0);
},
{
name = top;
pos = (1012,1341);
}
);
layerId = "5997A0D0-E78E-41EC-9011-DECBEAD8517D";
shapes = (
{
closed = 1;
nodes = (
(1153,-7,o),
(1599,157,o),
(1615,332,qs),
(1630,495,o),
(1246,620,o),
(902,695,qs),
(567,768,o),
(188,899,o),
(204,1049,qs),
(220,1199,o),
(647,1341,o),
(1012,1341,qs),
(1384,1341,o),
(1724,1145,o),
(1690,893,q),
(1714,893,l),
(1750,1152,o),
(1404,1363,o),
(1012,1363,q),
(643,1363,o),
(197,1217,o),
(180,1049,qs),
(163,885,o),
(543,750,o),
(883,675,qs),
(1222,600,o),
(1607,481,o),
(1591,332,qs),
(1574,174,o),
(1146,15,o),
(776,15,qs),
(400,15,o),
(71,229,o),
(106,483,q),
(81,483,l),
(43,215,o),
(388,-7,o),
(777,-7,qs)
);
}
);
width = 1891;
},
{
anchors = (
{
name = bottom;
pos = (273,0);
},
{
name = top;
pos = (512,1350);
}
);
layerId = "55C4185A-9C39-4468-B19C-DE0A3E571700";
shapes = (
{
closed = 1;
nodes = (
(635,-8,o),
(693,320,o),
(715,442,qs),
(743,604,o),
(680,724,o),
(515,810,qs),
(435,852,o),
(419,896,o),
(438,1006,qs),
(450,1074,o),
(456,1110,o),
(468,1110,qs),
(480,1110,o),
(474,1074,o),
(442,890,q),
(790,890,l),
(814,1030,o),
(873,1362,o),
(515,1362,q),
(153,1362,o),
(97,1046,o),
(76,924,qs),
(47,762,o),
(105,624,o),
(282,532,qs),
(352,496,o),
(362,440,o),
(347,356,qs),
(334,280,o),
(328,244,o),
(316,244,qs),
(304,244,o),
(310,280,o),
(343,468,q),
(-5,468,l),
(-33,308,o),
(-89,-8,o),
(271,-8,qs)
);
}
);
width = 748;
},
{
anchors = (
{
name = bottom;
pos = (-9,0);
},
{
name = top;
pos = (230,1350);
}
);
layerId = "4F53612F-C4F8-4368-83AD-8913BEEF8F1D";
shapes = (
{
closed = 1;
nodes = (
(44,-12,o),
(78,194,o),
(98,300,qs),
(133,487,o),
(156,632,o),
(112,690,qs),
(80,734,o),
(110,892,o),
(134,1040,qs),
(150,1136,o),
(186,1334,o),
(222,1334,qs),
(258,1334,o),
(224,1136,o),
(164,796,q),
(186,796,l),
(246,1136,o),
(284,1356,o),
(226,1356,qs),
(168,1356,o),
(130,1138,o),
(112,1040,qs),
(82,880,o),
(58,724,o),
(98,670,qs),
(132,624,o),
(108,468,o),
(76,300,qs),
(56,194,o),
(26,10,o),
(-14,10,qs),
(-50,10,o),
(-18,194,o),
(48,554,q),
(26,554,l),
(-40,194,o),
(-76,-12,o),
(-18,-12,qs)
);
}
);
width = 176;
},
{
anchors = (
{
name = bottom;
pos = (965,0);
},
{
name = top;
pos = (1204,1350);
}
);
layerId = "E5A4176B-9C10-4B01-BBC9-D7999ECBFAF8";
shapes = (
{
closed = 1;
nodes = (
(1406,-8,o),
(2004,208,o),
(2024,470,qs),
(2036,630,o),
(1760,806,o),
(1290,840,qs),
(1018,860,o),
(668,889,o),
(674,926,qs),
(680,962,o),
(956,994,o),
(1132,994,qs),
(1286,994,o),
(1542,944,o),
(1530,874,q),
(2096,874,l),
(2140,1126,o),
(1626,1362,o),
(1196,1362,qs),
(768,1362,o),
(134,1142,o),
(134,896,qs),
(134,754,o),
(412,534,o),
(846,508,qs),
(1106,492,o),
(1477,468,o),
(1470,426,qs),
(1464,390,o),
(1198,352,o),
(1032,352,qs),
(864,352,o),
(614,410,o),
(626,482,q),
(60,482,l),
(14,226,o),
(518,-8,o),
(974,-8,qs)
);
}
);
width = 2198;
}
);
note = S;
unicode = 83;
},
{
glyphname = Germandbls;
kernLeft = H;
kernRight = S;
layers = (
{
anchors = (
{
name = bottom;
pos = (106,0);
},
{
name = top;
pos = (106,1350);
}
);
layerId = "A1A0948C-E637-4A65-8CCC-05505AD98C44";
shapes = (
{
closed = 1;
nodes = (
(50,0,l),
(50,1330,l),
(152,1330,l),
(76,782,l),
(76,762,l),
(128,680,o),
(152,542,o),
(152,334,cs),
(152,106,o),
(124,22,o),
(76,22,c),
(76,0,l),
(136,0,o),
(174,86,o),
(174,338,cs),
(174,536,o),
(146,698,o),
(96,776,c),
(174,1330,l),
(174,1350,l),
(28,1350,l),
(28,0,l)
);
}
);
width = 208;
},
{
anchors = (
{
name = bottom;
pos = (399,0);
},
{
name = top;
pos = (399,1350);
}
);
layerId = "BA0CA162-2A9B-49EE-921D-3B4346C7D39F";
shapes = (
{
closed = 1;
nodes = (
(362,0,l),
(362,1096,l),
(440,1096,l),
(386,830,l),
(386,576,l),
(404,560,o),
(430,506,o),
(430,402,cs),
(430,286,o),
(404,254,o),
(388,254,c),
(388,0,l),
(746,0,o),
(786,163,o),
(786,418,cs),
(786,545,o),
(770,668,o),
(692,726,c),
(786,1128,l),
(786,1350,l),
(12,1350,l),
(12,0,l)
);
}
);
width = 798;
},
{
anchors = (
{
name = bottom;
pos = (1023,0);
},
{
name = top;
pos = (1023,1350);
}
);
layerId = "C75D3228-2D13-4E9D-9829-45195F4951D0";
shapes = (
{
closed = 1;
nodes = (
(700,0,l),
(700,966,l),
(1106,966,l),
(888,850,l),
(888,566,l),
(1108,566,o),
(1332,564,o),
(1332,462,cs),
(1332,356,o),
(1234,344,o),
(888,344,c),
(888,0,l),
(1738,0,o),
(1906,136,o),
(1906,418,cs),
(1906,676,o),
(1712,756,o),
(1362,756,c),
(1786,988,l),
(1786,1350,l),
(140,1350,l),
(140,0,l)
);
}
);
width = 2044;
},
{
anchors = (
{
name = bottom;
pos = (873,0);
},
{
name = top;
pos = (873,1350);
}
);
layerId = "71977205-6510-4B11-BB00-17BACA883C8F";
shapes = (
{
closed = 1;
nodes = (
(172,0,l),
(172,1330,l),
(1379,1330,l),
(490,787,l),
(490,762,l),
(1286,774,o),
(1484,704,o),
(1484,382,cs),
(1484,102,o),
(1265,-24,o),
(490,22,c),
(490,0,l),
(1277,-46,o),
(1506,86,o),
(1506,384,cs),
(1506,721,o),
(1295,792,o),
(519,781,c),
(1416,1330,l),
(1416,1350,l),
(150,1350,l),
(150,0,l)
);
}
);
width = 1721;
},
{
anchors = (
{
name = bottom;
pos = (19,0);
},
{
name = top;
pos = (258,1350);
}
);
layerId = "4F53612F-C4F8-4368-83AD-8913BEEF8F1D";
shapes = (
{
closed = 1;
nodes = (
(-46,0,l),
(190,1330,l),
(292,1330,l),
(118,782,l),
(116,762,l),
(152,680,o),
(152,542,o),
(116,334,cs),
(76,106,o),
(32,22,o),
(-16,22,c),
(-20,0,l),
(40,0,o),
(94,86,o),
(138,338,cs),
(172,536,o),
(174,698,o),
(138,776,c),
(314,1330,l),
(318,1350,l),
(172,1350,l),
(-68,0,l)
);
}
);
width = 210;
},
{
anchors = (
{
name = bottom;
pos = (298,0);
},
{
name = top;
pos = (537,1350);
}
);
layerId = "55C4185A-9C39-4468-B19C-DE0A3E571700";
shapes = (
{
closed = 1;
nodes = (
(260,0,l),
(453,1096,l),
(531,1096,l),
(430,830,l),
(386,576,l),
(401,560,o),
(417,506,o),
(399,402,cs),
(378,286,o),
(347,254,o),
(331,254,c),
(286,0,l),
(644,0,o),
(713,163,o),
(758,418,cs),
(780,545,o),
(786,668,o),
(718,726,c),
(883,1128,l),
(922,1350,l),
(148,1350,l),
(-90,0,l)
);
}
);
width = 795;
},
{
anchors = (
{
name = bottom;
pos = (931,0);
},
{
name = top;
pos = (1170,1350);
}
);
layerId = "E5A4176B-9C10-4B01-BBC9-D7999ECBFAF8";
shapes = (
{
closed = 1;
nodes = (
(602,0,l),
(772,966,l),
(1178,966,l),
(940,850,l),
(890,566,l),
(1110,566,o),
(1333,564,o),
(1315,462,cs),
(1297,356,o),
(1197,344,o),
(851,344,c),
(790,0,l),
(1640,0,o),
(1832,136,o),
(1882,418,cs),
(1927,676,o),
(1747,756,o),
(1397,756,c),
(1862,988,l),
(1926,1350,l),
(280,1350,l),
(42,0,l)
);
}
);
width = 2063;
},
{
anchors = (
{
name = bottom;
pos = (672,0);
},
{
name = top;
pos = (911,1350);
}
);
layerId = "5997A0D0-E78E-41EC-9011-DECBEAD8517D";
shapes = (
{
closed = 1;
nodes = (
(53,0,l),
(287,1330,l),
(1490,1330,l),
(510,787,l),
(505,762,l),
(1303,774,o),
(1444,715,o),
(1444,483,cs),
(1444,110,o),
(1142,-24,o),
(375,22,c),
(371,0,l),
(1150,-46,o),
(1463,91,o),
(1466,483,cs),
(1468,730,o),
(1319,792,o),
(541,781,c),
(1531,1330,l),
(1535,1350,l),
(269,1350,l),
(31,0,l)
);
}
);
width = 1723;
}
);
metricLeft = H;
metricRight = S;
unicode = 7838;
},
{
glyphname = Schwa;
kernLeft = O;
kernRight = O;
lastChange = "2020-04-22 02:26:16 +0000";
layers = (
{
anchors = (
{
name = bottom;
pos = (90,-11);
},
{
name = top;
pos = (91,1350);
}
);
layerId = "A1A0948C-E637-4A65-8CCC-05505AD98C44";
shapes = (
{
closed = 1;
nodes = (
(152,-11,o),
(152,295,o),
(152,678,qs),
(152,992,o),
(152,1356,o),
(91,1356,q),
(91,1334,l),
(130,1334,o),
(130,988,o),
(130,676,qs),
(130,299,o),
(130,11,o),
(90,11,qs),
(50,11,o),
(50,299,o),
(50,676,q),
(42,665,l),
(138,665,l),
(138,688,l),
(28,688,l),
(28,682,o),
(28,678,q),
(28,285,o),
(28,-11,o),
(90,-11,qs)
);
},
{
closed = 1;
nodes = (
(50,1203,o),
(51,1334,o),
(91,1334,c),
(94,1346,l),
(91,1356,l),
(30,1356,o),
(28,1230,o),
(28,890,c),
(50,890,l)
);
}
);
width = 182;
},
{
anchors = (
{
name = bottom;
pos = (374,-9);
},
{
name = top;
pos = (374,1350);
}
);
layerId = "BA0CA162-2A9B-49EE-921D-3B4346C7D39F";
shapes = (
{
closed = 1;
nodes = (
(736,-9,o),
(736,347,o),
(736,677,qs),
(736,997,o),
(736,1360,o),
(376,1360,q),
(376,1106,l),
(388,1106,o),
(388,1003,o),
(388,667,qs),
(388,337,o),
(388,247,o),
(374,247,qs),
(360,247,o),
(360,337,o),
(360,591,q),
(340,563,l),
(416,563,l),
(416,787,l),
(12,787,l),
(12,731,o),
(12,667,qs),
(12,347,o),
(12,-9,o),
(374,-9,qs)
);
},
{
closed = 1;
nodes = (
(360,1050,o),
(361,1106,o),
(376,1106,c),
(394,1244,l),
(376,1360,l),
(55,1360,o),
(12,1258,o),
(12,905,c),
(360,905,l)
);
}
);
width = 748;
},
{
anchors = (
{
name = bottom;
pos = (878,-8);
},
{
name = top;
pos = (878,1350);
}
);
layerId = "71977205-6510-4B11-BB00-17BACA883C8F";
shapes = (
{
closed = 1;
nodes = (
(1189,-8,o),
(1626,312,o),
(1626,667,qs),
(1626,1035,o),
(1212,1361,o),
(878,1361,q),
(878,1339,l),
(1208,1339,o),
(1602,1018,o),
(1602,668,qs),
(1602,327,o),
(1183,14,o),
(878,14,qs),
(565,14,o),
(167,321,o),
(167,668,q),
(156,657,l),
(1614,657,l),
(1614,680,l),
(142,680,l),
(142,667,o),
(142,656,qs),
(142,311,o),
(556,-8,o),
(878,-8,qs)
);
},
{
closed = 1;
nodes = (
(178,1181,o),
(500,1339,o),
(878,1339,c),
(881,1351,l),
(878,1361,l),
(482,1361,o),
(154,1193,o),
(154,975,c),
(178,975,l)
);
}
);
width = 1820;
},
{
anchors = (
{
name = bottom;
pos = (1056,-11);
},
{
name = top;
pos = (1034,1350);
}
);
layerId = "C75D3228-2D13-4E9D-9829-45195F4951D0";
shapes = (
{
closed = 1;
nodes = (
(1454,-14,o),
(2034,314,o),
(2034,684,qs),
(2034,1074,o),
(1450,1366,o),
(1036,1366,q),
(1034,1038,l),
(1278,1038,o),
(1510,906,o),
(1510,684,qs),
(1510,424,o),
(1268,306,o),
(1054,306,qs),
(880,306,o),
(626,392,o),
(626,558,q),
(620,512,l),
(1558,512,l),
(1558,836,l),
(98,836,l),
(80,778,o),
(80,684,qs),
(80,331,o),
(636,-14,o),
(1056,-14,qs)
);
},
{
closed = 1;
nodes = (
(687,1006,o),
(870,1038,o),
(1034,1038,c),
(1072,1244,l),
(1036,1366,l),
(766,1366,o),
(283,1310,o),
(175,1253,c),
(632,980,l)
);
}
);
width = 2121;
},
{
anchors = (
{
name = bottom;
pos = (2,0);
},
{
name = top;
pos = (232,1350);
}
);
layerId = "4F53612F-C4F8-4368-83AD-8913BEEF8F1D";
shapes = (
{
closed = 1;
nodes = (
(53,-11,o),
(107,295,o),
(175,678,qs),
(230,992,o),
(295,1356,o),
(234,1356,q),
(230,1334,l),
(269,1334,o),
(208,988,o),
(153,676,qs),
(86,299,o),
(35,11,o),
(-5,11,qs),
(-45,11,o),
(6,299,o),
(73,676,q),
(63,665,l),
(159,665,l),
(163,688,l),
(53,688,l),
(52,682,o),
(51,678,q),
(-18,285,o),
(-71,-11,o),
(-9,-11,qs)
);
},
{
closed = 1;
nodes = (
(166,1203,o),
(190,1334,o),
(230,1334,c),
(235,1346,l),
(234,1356,l),
(173,1356,o),
(148,1230,o),
(88,890,c),
(110,890,l)
);
}
);
width = 182;
},
{
anchors = (
{
name = bottom;
pos = (266,0);
},
{
name = top;
pos = (504,1350);
}
);
layerId = "55C4185A-9C39-4468-B19C-DE0A3E571700";
shapes = (
{
closed = 1;
nodes = (
(630,-9,o),
(693,347,o),
(751,677,qs),
(808,997,o),
(872,1360,o),
(512,1360,q),
(467,1106,l),
(479,1106,o),
(461,1003,o),
(402,667,qs),
(343,337,o),
(327,247,o),
(313,247,qs),
(299,247,o),
(315,337,o),
(360,591,q),
(335,563,l),
(411,563,l),
(451,787,l),
(47,787,l),
(37,731,o),
(26,667,qs),
(-31,347,o),
(-94,-9,o),
(268,-9,qs)
);
},
{
closed = 1;
nodes = (
(441,1050,o),
(452,1106,o),
(467,1106,c),
(509,1244,l),
(512,1360,l),
(191,1360,o),
(130,1258,o),
(67,905,c),
(415,905,l)
);
}
);
width = 748;
},
{
anchors = (
{
name = bottom;
pos = (757,0);
},
{
name = top;
pos = (995,1350);
}
);
layerId = "5997A0D0-E78E-41EC-9011-DECBEAD8517D";
shapes = (
{
closed = 1;
nodes = (
(1061,-8,o),
(1552,312,o),
(1614,667,qs),
(1679,1035,o),
(1317,1361,o),
(983,1361,q),
(985,1339,l),
(1315,1339,o),
(1652,1018,o),
(1591,668,qs),
(1530,327,o),
(1056,14,o),
(751,14,qs),
(438,14,o),
(94,321,o),
(156,668,q),
(143,657,l),
(1601,657,l),
(1605,680,l),
(133,680,l),
(130,667,o),
(128,656,qs),
(68,311,o),
(428,-8,o),
(750,-8,qs)
);
},
{
closed = 1;
nodes = (
(257,1181,o),
(607,1339,o),
(985,1339,c),
(990,1351,l),
(983,1361,l),
(587,1361,o),
(235,1193,o),
(197,975,c),
(221,975,l)
);
}
);
width = 1820;
},
{
anchors = (
{
name = bottom;
pos = (933,0);
},
{
name = top;
pos = (1151,1350);
}
);
layerId = "E5A4176B-9C10-4B01-BBC9-D7999ECBFAF8";
shapes = (
{
closed = 1;
nodes = (
(1331,-14,o),
(1969,314,o),
(2034,684,qs),
(2103,1074,o),
(1571,1366,o),
(1157,1366,q),
(1097,1038,l),
(1341,1038,o),
(1550,906,o),
(1510,684,qs),
(1465,424,o),
(1202,306,o),
(988,306,qs),
(814,306,o),
(575,392,o),
(604,558,q),
(590,512,l),
(1528,512,l),
(1585,836,l),
(125,836,l),
(97,778,o),
(80,684,qs),
(18,331,o),
(513,-14,o),
(933,-14,qs)
);
},
{
closed = 1;
nodes = (
(744,1006,o),
(933,1038,o),
(1097,1038,c),
(1171,1244,l),
(1157,1366,l),
(887,1366,o),
(394,1310,o),
(276,1253,c),
(685,980,l)
);
}
);
width = 2118;
}
);
metricLeft = O;
metricRight = O;
unicode = 399;
},
{
glyphname = T;
kernLeft = T;
kernRight = T;
layers = (
{
anchors = (
{
name = bottom;
pos = (73,0);
},
{
name = center;
pos = (79,675);
},
{
name = top;
pos = (79,1350);
}
);
layerId = "A1A0948C-E637-4A65-8CCC-05505AD98C44";
shapes = (
{
closed = 1;
nodes = (
(84,0,l),
(84,1328,l),
(132,1328,l),
(132,1350,l),
(16,1350,l),
(16,1328,l),
(62,1328,l),
(62,0,l)
);
}
);
width = 148;
},
{
anchors = (
{
name = bottom;
pos = (310,0);
},
{
name = center;
pos = (310,675);
},
{
name = top;
pos = (310,1350);
}
);
layerId = "BA0CA162-2A9B-49EE-921D-3B4346C7D39F";
shapes = (
{
closed = 1;
nodes = (
(484,0,l),
(484,1096,l),
(608,1096,l),
(608,1350,l),
(12,1350,l),
(12,1096,l),
(136,1096,l),
(136,0,l)
);
}
);
width = 620;
},
{
anchors = (
{
name = bottom;
pos = (1069,0);
},
{
name = center;
pos = (1069,675);
},
{
name = top;
pos = (1069,1350);
}
);
layerId = "C75D3228-2D13-4E9D-9829-45195F4951D0";
shapes = (
{
closed = 1;
nodes = (
(1352,0,l),
(1352,988,l),
(2010,988,l),
(2010,1350,l),
(126,1350,l),
(126,988,l),
(786,988,l),
(786,0,l)
);
}
);
width = 2137;
},
{
anchors = (
{
name = bottom;
pos = (939,0);
},
{
name = center;
pos = (942,675);
},
{
name = top;
pos = (942,1350);
}
);
layerId = "71977205-6510-4B11-BB00-17BACA883C8F";
shapes = (
{
closed = 1;
nodes = (
(952,0,l),
(952,1328,l),
(1762,1328,l),
(1762,1350,l),
(116,1350,l),
(116,1328,l),
(930,1328,l),
(930,0,l)
);
}
);
width = 1902;
},
{
anchors = (
{
name = bottom;
pos = (768,0);
},
{
name = center;
pos = (888,675);
},
{
name = top;
pos = (1007,1350);
}
);
layerId = "5997A0D0-E78E-41EC-9011-DECBEAD8517D";
shapes = (
{
closed = 1;
nodes = (
(783,0,l),
(1017,1328,l),
(1827,1328,l),
(1831,1350,l),
(185,1350,l),
(181,1328,l),
(995,1328,l),
(761,0,l)
);
}
);
width = 1902;
},
{
anchors = (
{
name = bottom;
pos = (212,0);
},
{
name = center;
pos = (332,675);
},
{
name = top;
pos = (451,1350);
}
);
layerId = "55C4185A-9C39-4468-B19C-DE0A3E571700";
shapes = (
{
closed = 1;
nodes = (
(382,0,l),
(575,1096,l),
(699,1096,l),
(744,1350,l),
(148,1350,l),
(103,1096,l),
(227,1096,l),
(34,0,l)
);
}
);
width = 620;
},
{
anchors = (
{
name = bottom;
pos = (-20,0);
},
{
name = center;
pos = (100,675);
},
{
name = top;
pos = (219,1350);
}
);
layerId = "4F53612F-C4F8-4368-83AD-8913BEEF8F1D";
shapes = (
{
closed = 1;
nodes = (
(-12,0,l),
(222,1328,l),
(268,1328,l),
(272,1350,l),
(156,1350,l),
(154,1328,l),
(200,1328,l),
(-34,0,l)
);
}
);
width = 148;
},
{
anchors = (
{
name = bottom;
pos = (959,0);
},
{
name = center;
pos = (1079,675);
},
{
name = top;
pos = (1198,1350);
}
);
layerId = "E5A4176B-9C10-4B01-BBC9-D7999ECBFAF8";
shapes = (
{
closed = 1;
nodes = (
(1232,0,l),
(1406,988,l),
(2064,988,l),
(2128,1350,l),
(244,1350,l),
(180,988,l),
(840,988,l),
(666,0,l)
);
}
);
width = 2137;
}
);
note = T;
unicode = 84;
},
{
glyphname = Tbar;
kernLeft = T;
kernRight = T;
layers = (
{
layerId = "A1A0948C-E637-4A65-8CCC-05505AD98C44";
shapes = (
{
closed = 1;
nodes = (
(130,966,l),
(130,988,l),
(20,988,l),
(20,966,l)
);
},
{
ref = T;
}
);
width = 148;
},
{
layerId = "BA0CA162-2A9B-49EE-921D-3B4346C7D39F";
shapes = (
{
closed = 1;
nodes = (
(580,696,l),
(580,920,l),
(30,920,l),
(30,696,l)
);
},
{
ref = T;
}
);
width = 620;
},
{
layerId = "C75D3228-2D13-4E9D-9829-45195F4951D0";
shapes = (
{
closed = 1;
nodes = (
(1870,500,l),
(1870,804,l),
(302,804,l),
(302,500,l)
);
},
{
ref = T;
}
);
width = 2137;
},
{
layerId = "71977205-6510-4B11-BB00-17BACA883C8F";
shapes = (
{
closed = 1;
nodes = (
(1628,807,l),
(1628,829,l),
(239,829,l),
(239,807,l)
);
},
{
ref = T;
}
);
width = 1902;
},
{
layerId = "5997A0D0-E78E-41EC-9011-DECBEAD8517D";
shapes = (
{
closed = 1;
nodes = (
(1524,828,l),
(1528,850,l),
(306,850,l),
(302,828,l)
);
},
{
ref = T;
}
);
width = 1902;
},
{
layerId = "55C4185A-9C39-4468-B19C-DE0A3E571700";
shapes = (
{
closed = 1;
nodes = (
(609,696,l),
(651,920,l),
(103,920,l),
(59,696,l)
);
},
{
ref = T;
}
);
width = 620;
},
{
layerId = "4F53612F-C4F8-4368-83AD-8913BEEF8F1D";
shapes = (
{
closed = 1;
nodes = (
(208,966,l),
(212,988,l),
(102,988,l),
(98,966,l)
);
},
{
ref = T;
}
);
width = 152;
},
{
layerId = "E5A4176B-9C10-4B01-BBC9-D7999ECBFAF8";
shapes = (
{
closed = 1;
nodes = (
(1854,500,l),
(1906,804,l),
(338,804,l),
(286,500,l)
);
},
{
ref = T;
}
);
width = 2137;
}
);
metricLeft = T;
metricRight = T;
unicode = 358;
},
{
glyphname = U;
kernLeft = U;
kernRight = U;
layers = (
{
anchors = (
{
name = bottom;
pos = (95,0);
},
{
name = ogonek;
pos = (97,0);
},
{
name = top;
pos = (95,1350);
},
{
name = topright;
pos = (147,1302);
}
);
layerId = "A1A0948C-E637-4A65-8CCC-05505AD98C44";
shapes = (
{
closed = 1;
nodes = (
(120,-12,o),
(148,52,o),
(148,156,qs),
(148,1350,l),
(126,1350,l),
(126,160,ls),
(126,60,o),
(108,10,o),
(90,10,qs),
(72,10,o),
(54,60,o),
(54,160,qs),
(54,1350,l),
(32,1350,l),
(32,156,ls),
(32,52,o),
(60,-12,o),
(90,-12,qs)
);
}
);
width = 190;
},
{
anchors = (
{
name = bottom;
pos = (372,0);
},
{
name = ogonek;
pos = (377,0);
},
{
name = top;
pos = (372,1350);
},
{
name = topright;
pos = (730,1252);
}
);
layerId = "BA0CA162-2A9B-49EE-921D-3B4346C7D39F";
shapes = (
{
closed = 1;
nodes = (
(570,-8,o),
(732,120,o),
(732,264,qs),
(732,1350,l),
(384,1350,l),
(384,312,ls),
(384,280,o),
(382,246,o),
(372,246,qs),
(362,246,o),
(360,280,o),
(360,312,qs),
(360,1350,l),
(12,1350,l),
(12,264,ls),
(12,120,o),
(174,-8,o),
(372,-8,qs)
);
}
);
width = 744;
},
{
anchors = (
{
name = bottom;
pos = (1137,0);
},
{
name = ogonek;
pos = (1122,0);
},
{
name = top;
pos = (1137,1350);
},
{
name = topright;
pos = (2111,1193);
}
);
layerId = "C75D3228-2D13-4E9D-9829-45195F4951D0";
shapes = (
{
closed = 1;
nodes = (
(1614,-8,o),
(2114,306,o),
(2114,682,qs),
(2114,1350,l),
(1548,1350,l),
(1548,726,ls),
(1548,526,o),
(1354,354,o),
(1122,354,qs),
(890,354,o),
(696,528,o),
(696,726,qs),
(696,1350,l),
(130,1350,l),
(130,682,ls),
(130,306,o),
(630,-8,o),
(1122,-8,qs)
);
}
);
width = 2273;
},
{
anchors = (
{
name = bottom;
pos = (998,0);
},
{
name = ogonek;
pos = (996,0);
},
{
name = top;
pos = (998,1350);
},
{
name = topright;
pos = (1787,1192);
}
);
layerId = "71977205-6510-4B11-BB00-17BACA883C8F";
shapes = (
{
closed = 1;
nodes = (
(1367,-7,o),
(1789,289,o),
(1789,612,qs),
(1789,1348,l),
(1767,1348,l),
(1767,627,ls),
(1767,309,o),
(1367,15,o),
(997,15,qs),
(627,15,o),
(227,309,o),
(227,627,qs),
(227,1348,l),
(205,1348,l),
(205,612,ls),
(205,289,o),
(627,-7,o),
(997,-7,qs)
);
}
);
width = 2070;
},
{
anchors = (
{
name = bottom;
pos = (887,0);
},
{
name = ogonek;
pos = (854,0);
},
{
name = top;
pos = (1131,1350);
},
{
name = topright;
pos = (1859,1192);
}
);
layerId = "5997A0D0-E78E-41EC-9011-DECBEAD8517D";
shapes = (
{
closed = 1;
nodes = (
(1228,-7,o),
(1702,289,o),
(1759,612,qs),
(1888,1348,l),
(1866,1348,l),
(1739,627,ls),
(1683,309,o),
(1231,15,o),
(861,15,qs),
(491,15,o),
(143,309,o),
(199,627,qs),
(326,1348,l),
(304,1348,l),
(175,612,ls),
(118,289,o),
(488,-7,o),
(858,-7,qs)
);
}
);
width = 2070;
},
{
anchors = (
{
name = bottom;
pos = (273,0);
},
{
name = ogonek;
pos = (284,0);
},
{
name = top;
pos = (512,1350);
},
{
name = topright;
pos = (842,1252);
}
);
layerId = "55C4185A-9C39-4468-B19C-DE0A3E571700";
shapes = (
{
closed = 1;
nodes = (
(466,-8,o),
(651,120,o),
(676,264,qs),
(868,1350,l),
(520,1350,l),
(337,312,ls),
(331,280,o),
(323,246,o),
(313,246,qs),
(303,246,o),
(307,280,o),
(313,312,qs),
(496,1350,l),
(148,1350,l),
(-44,264,ls),
(-69,120,o),
(70,-8,o),
(268,-8,qs)
);
}
);
width = 744;
},
{
anchors = (
{
name = bottom;
pos = (-10,0);
},
{
name = ogonek;
pos = (1,0);
},
{
name = top;
pos = (236,1350);
},
{
name = topright;
pos = (281,1302);
}
);
layerId = "4F53612F-C4F8-4368-83AD-8913BEEF8F1D";
shapes = (
{
closed = 1;
nodes = (
(21,-12,o),
(62,52,o),
(80,156,qs),
(290,1350,l),
(268,1350,l),
(58,160,ls),
(40,60,o),
(14,10,o),
(-6,10,qs),
(-24,10,o),
(-34,60,o),
(-16,160,qs),
(196,1350,l),
(174,1350,l),
(-38,156,ls),
(-56,52,o),
(-40,-12,o),
(-10,-12,qs)
);
}
);
width = 190;
},
{
anchors = (
{
name = bottom;
pos = (1042,0);
},
{
name = ogonek;
pos = (1022,0);
},
{
name = top;
pos = (1271,1350);
},
{
name = topright;
pos = (2206,1193);
}
);
layerId = "E5A4176B-9C10-4B01-BBC9-D7999ECBFAF8";
shapes = (
{
closed = 1;
nodes = (
(1502,-8,o),
(2058,306,o),
(2124,682,qs),
(2242,1350,l),
(1676,1350,l),
(1566,726,ls),
(1529,516,o),
(1326,354,o),
(1074,354,qs),
(823,354,o),
(677,518,o),
(714,726,qs),
(824,1350,l),
(258,1350,l),
(140,682,ls),
(74,306,o),
(518,-8,o),
(1010,-8,qs)
);
}
);
width = 2273;
}
);
note = U;
unicode = 85;
},
{
glyphname = V;
kernLeft = V;
kernRight = V;
lastChange = "2020-04-16 14:52:36 +0000";
layers = (
{
anchors = (
{
name = bottom;
pos = (92,0);
},
{
name = top;
pos = (92,1350);
}
);
layerId = "A1A0948C-E637-4A65-8CCC-05505AD98C44";
shapes = (
{
closed = 1;
nodes = (
(106,0,l),
(156,1350,l),
(134,1350,l),
(88,22,l),
(80,22,l),
(34,1350,l),
(12,1350,l),
(62,0,l)
);
}
);
width = 174;
},
{
anchors = (
{
name = bottom;
pos = (386,0);
},
{
name = top;
pos = (386,1350);
}
);
layerId = "BA0CA162-2A9B-49EE-921D-3B4346C7D39F";
shapes = (
{
closed = 1;
nodes = (
(662,0,l),
(762,1350,l),
(408,1350,l),
(388,250,l),
(384,250,l),
(366,1350,l),
(10,1350,l),
(110,0,l)
);
}
);
width = 772;
},
{
anchors = (
{
name = bottom;
pos = (1116,0);
},
{
name = top;
pos = (1116,1350);
}
);
layerId = "C75D3228-2D13-4E9D-9829-45195F4951D0";
shapes = (
{
closed = 1;
nodes = (
(1526,0,l),
(2140,1350,l),
(1568,1350,l),
(1100,270,l),
(1124,270,l),
(652,1350,l),
(80,1350,l),
(696,0,l)
);
}
);
width = 2232;
},
{
anchors = (
{
name = bottom;
pos = (931,0);
},
{
name = top;
pos = (931,1350);
}
);
layerId = "71977205-6510-4B11-BB00-17BACA883C8F";
shapes = (
{
closed = 1;
nodes = (
(951,0,l),
(1760,1350,l),
(1734,1350,l),
(931,10,l),
(934,10,l),
(134,1350,l),
(107,1350,l),
(912,0,l)
);
}
);
width = 1934;
},
{
anchors = (
{
name = bottom;
pos = (799,0);
},
{
name = top;
pos = (998,1350);
}
);
layerId = "5997A0D0-E78E-41EC-9011-DECBEAD8517D";
shapes = (
{
closed = 1;
nodes = (
(822,0,l),
(1869,1350,l),
(1841,1350,l),
(802,10,l),
(805,10,l),
(241,1350,l),
(216,1350,l),
(783,0,l)
);
}
);
width = 1934;
},
{
anchors = (
{
name = bottom;
pos = (291,0);
},
{
name = top;
pos = (530,1350);
}
);
layerId = "55C4185A-9C39-4468-B19C-DE0A3E571700";
shapes = (
{
closed = 1;
nodes = (
(563,0,l),
(901,1350,l),
(542,1350,l),
(328,250,l),
(324,250,l),
(500,1350,l),
(149,1350,l),
(11,0,l)
);
}
);
width = 772;
},
{
anchors = (
{
name = bottom;
pos = (-13,0);
},
{
name = top;
pos = (226,1350);
}
);
layerId = "4F53612F-C4F8-4368-83AD-8913BEEF8F1D";
shapes = (
{
closed = 1;
nodes = (
(4,0,l),
(294,1350,l),
(272,1350,l),
(-10,22,l),
(-18,22,l),
(172,1350,l),
(150,1350,l),
(-40,0,l)
);
}
);
width = 174;
},
{
anchors = (
{
name = bottom;
pos = (1011,0);
},
{
name = top;
pos = (1250,1350);
}
);
layerId = "E5A4176B-9C10-4B01-BBC9-D7999ECBFAF8";
shapes = (
{
closed = 1;
nodes = (
(1396,0,l),
(2248,1350,l),
(1668,1350,l),
(1008,270,l),
(1032,270,l),
(752,1350,l),
(186,1350,l),
(564,0,l)
);
}
);
width = 2232;
}
);
note = V;
unicode = 86;
},
{
glyphname = V.ss01;
kernLeft = V;
kernRight = V;
lastChange = "2020-04-28 15:26:30 +0000";
layers = (
{
anchors = (
{
name = bottom;
pos = (92,0);
},
{
name = top;
pos = (92,1350);
}
);
layerId = "A1A0948C-E637-4A65-8CCC-05505AD98C44";
shapes = (
{
closed = 1;
nodes = (
(106,0,l),
(156,924,l),
(156,1350,l),
(134,1350,l),
(134,924,l),
(88,22,l),
(80,22,l),
(34,924,l),
(34,1350,l),
(12,1350,l),
(12,924,l),
(62,0,l)
);
}
);
width = 174;
},
{
anchors = (
{
name = bottom;
pos = (388,0);
},
{
name = top;
pos = (388,1350);
}
);
layerId = "BA0CA162-2A9B-49EE-921D-3B4346C7D39F";
shapes = (
{
closed = 1;
nodes = (
(674,0,l),
(764,751,l),
(764,1350,l),
(410,1350,l),
(410,857,l),
(392,250,l),
(384,250,l),
(368,857,l),
(368,1350,l),
(12,1350,l),
(12,751,l),
(102,0,l)
);
}
);
width = 776;
},
{
anchors = (
{
name = bottom;
pos = (934,0);
},
{
name = top;
pos = (933,1350);
}
);
layerId = "71977205-6510-4B11-BB00-17BACA883C8F";
shapes = (
{
closed = 1;
nodes = (
(951,0,l),
(1760,1078,l),
(1760,1350,l),
(1738,1350,l),
(1738,1088,l),
(931,10,l),
(934,10,l),
(129,1088,l),
(129,1350,l),
(107,1350,l),
(107,1078,l),
(912,0,l)
);
}
);
width = 1934;
},
{
anchors = (
{
name = bottom;
pos = (1116,0);
},
{
name = top;
pos = (1116,1350);
}
);
layerId = "C75D3228-2D13-4E9D-9829-45195F4951D0";
shapes = (
{
closed = 1;
nodes = (
(1526,0,l),
(2140,973,l),
(2140,1350,l),
(1574,1350,l),
(1574,1023,l),
(1100,270,l),
(1124,270,l),
(646,1023,l),
(646,1350,l),
(80,1350,l),
(80,973,l),
(696,0,l)
);
}
);
width = 2232;
},
{
anchors = (
{
name = bottom;
pos = (-19,0);
},
{
name = top;
pos = (219,1350);
}
);
layerId = "4F53612F-C4F8-4368-83AD-8913BEEF8F1D";
shapes = (
{
closed = 1;
nodes = (
(7,0,l),
(220,924,l),
(295,1350,l),
(273,1350,l),
(198,924,l),
(-7,22,l),
(-15,22,l),
(98,924,l),
(173,1350,l),
(151,1350,l),
(76,924,l),
(-37,0,l)
);
}
);
width = 174;
},
{
anchors = (
{
name = bottom;
pos = (282,0);
},
{
name = top;
pos = (520,1350);
}
);
layerId = "55C4185A-9C39-4468-B19C-DE0A3E571700";
shapes = (
{
closed = 1;
nodes = (
(572,0,l),
(794,751,l),
(900,1350,l),
(546,1350,l),
(459,857,l),
(330,250,l),
(322,250,l),
(417,857,l),
(504,1350,l),
(148,1350,l),
(42,751,l),
(0,0,l)
);
}
);
width = 776;
},
{
anchors = (
{
name = bottom;
pos = (817,0);
},
{
name = top;
pos = (1053,1350);
}
);
layerId = "5997A0D0-E78E-41EC-9011-DECBEAD8517D";
shapes = (
{
closed = 1;
nodes = (
(832,0,l),
(1831,1078,l),
(1879,1350,l),
(1857,1350,l),
(1812,1091,l),
(811,10,l),
(814,10,l),
(201,1083,l),
(248,1350,l),
(226,1350,l),
(178,1078,l),
(793,0,l)
);
}
);
width = 1934;
},
{
anchors = (
{
name = bottom;
pos = (1013,0);
},
{
name = top;
pos = (1251,1350);
}
);
layerId = "E5A4176B-9C10-4B01-BBC9-D7999ECBFAF8";
shapes = (
{
closed = 1;
nodes = (
(1407,0,l),
(2193,973,l),
(2259,1350,l),
(1693,1350,l),
(1635,1023,l),
(1029,270,l),
(1053,270,l),
(707,1023,l),
(765,1350,l),
(199,1350,l),
(133,973,l),
(577,0,l)
);
}
);
width = 2232;
}
);
},
{
glyphname = W;
kernLeft = W;
kernRight = W;
layers = (
{
anchors = (
{
name = bottom;
pos = (163,0);
},
{
name = top;
pos = (163,1350);
}
);
layerId = "A1A0948C-E637-4A65-8CCC-05505AD98C44";
shapes = (
{
closed = 1;
nodes = (
(108,0,l),
(156,1328,l),
(160,1328,l),
(206,0,l),
(250,0,l),
(288,1350,l),
(266,1350,l),
(230,20,l),
(226,20,l),
(180,1350,l),
(136,1350,l),
(88,20,l),
(84,20,l),
(50,1350,l),
(28,1350,l),
(64,0,l)
);
}
);
width = 326;
},
{
anchors = (
{
name = bottom;
pos = (609,0);
},
{
name = top;
pos = (609,1350);
}
);
layerId = "BA0CA162-2A9B-49EE-921D-3B4346C7D39F";
shapes = (
{
closed = 1;
nodes = (
(580,0,l),
(608,1086,l),
(612,1086,l),
(638,0,l),
(1144,0,l),
(1210,1350,l),
(852,1350,l),
(852,254,l),
(848,254,l),
(788,1350,l),
(430,1350,l),
(370,254,l),
(366,254,l),
(366,1350,l),
(8,1350,l),
(74,0,l)
);
}
);
width = 1218;
},
{
anchors = (
{
name = bottom;
pos = (1610,0);
},
{
name = top;
pos = (1610,1350);
}
);
layerId = "C75D3228-2D13-4E9D-9829-45195F4951D0";
shapes = (
{
closed = 1;
nodes = (
(1326,0,l),
(1606,1070,l),
(1568,1070,l),
(1844,0,l),
(2730,0,l),
(3140,1350,l),
(2514,1350,l),
(2246,294,l),
(2306,294,l),
(2002,1350,l),
(1172,1350,l),
(868,294,l),
(928,294,l),
(678,1350,l),
(52,1350,l),
(444,0,l)
);
}
);
width = 3220;
},
{
anchors = (
{
name = bottom;
pos = (1375,0);
},
{
name = top;
pos = (1375,1350);
}
);
layerId = "71977205-6510-4B11-BB00-17BACA883C8F";
shapes = (
{
closed = 1;
nodes = (
(701,0,l),
(1350,1328,l),
(1352,1328,l),
(2003,0,l),
(2034,0,l),
(2573,1350,l),
(2546,1350,l),
(2019,25,l),
(2018,25,l),
(1367,1350,l),
(1334,1350,l),
(687,25,l),
(686,25,l),
(156,1350,l),
(129,1350,l),
(670,0,l)
);
}
);
width = 2750;
},
{
anchors = (
{
name = bottom;
pos = (1232,0);
},
{
name = top;
pos = (1471,1350);
}
);
layerId = "5997A0D0-E78E-41EC-9011-DECBEAD8517D";
shapes = (
{
closed = 1;
nodes = (
(582,0,l),
(1465,1328,l),
(1467,1328,l),
(1884,0,l),
(1915,0,l),
(2692,1350,l),
(2664,1350,l),
(1903,25,l),
(1902,25,l),
(1485,1350,l),
(1452,1350,l),
(571,25,l),
(570,25,l),
(274,1350,l),
(248,1350,l),
(551,0,l)
);
}
);
width = 2750;
},
{
anchors = (
{
name = bottom;
pos = (494,0);
},
{
name = top;
pos = (733,1350);
}
);
layerId = "55C4185A-9C39-4468-B19C-DE0A3E571700";
shapes = (
{
closed = 1;
nodes = (
(474,0,l),
(693,1086,l),
(697,1086,l),
(532,0,l),
(1038,0,l),
(1342,1350,l),
(979,1350,l),
(786,254,l),
(782,254,l),
(915,1350,l),
(557,1350,l),
(304,254,l),
(300,254,l),
(493,1350,l),
(140,1350,l),
(-32,0,l)
);
}
);
width = 1218;
},
{
anchors = (
{
name = bottom;
pos = (69,0);
},
{
name = top;
pos = (308,1350);
}
);
layerId = "4F53612F-C4F8-4368-83AD-8913BEEF8F1D";
shapes = (
{
closed = 1;
nodes = (
(12,0,l),
(296,1328,l),
(300,1328,l),
(110,0,l),
(154,0,l),
(432,1350,l),
(410,1350,l),
(138,20,l),
(134,20,l),
(324,1350,l),
(278,1350,l),
(-4,20,l),
(-8,20,l),
(194,1350,l),
(172,1350,l),
(-32,0,l)
);
}
);
width = 326;
},
{
anchors = (
{
name = bottom;
pos = (1494,0);
},
{
name = top;
pos = (1733,1350);
}
);
layerId = "E5A4176B-9C10-4B01-BBC9-D7999ECBFAF8";
shapes = (
{
closed = 1;
nodes = (
(1207,0,l),
(1676,1070,l),
(1638,1070,l),
(1725,0,l),
(2611,0,l),
(3259,1350,l),
(2633,1350,l),
(2179,294,l),
(2239,294,l),
(2121,1350,l),
(1291,1350,l),
(801,294,l),
(861,294,l),
(797,1350,l),
(171,1350,l),
(325,0,l)
);
}
);
width = 3220;
}
);
note = W;
unicode = 87;
},
{
glyphname = X;
kernLeft = X;
kernRight = X;
layers = (
{
anchors = (
{
name = bottom;
pos = (95,0);
},
{
name = top;
pos = (95,1350);
}
);
layerId = "A1A0948C-E637-4A65-8CCC-05505AD98C44";
shapes = (
{
closed = 1;
nodes = (
(38,0,l),
(90,656,l),
(142,0,l),
(164,0,l),
(111,668,l),
(162,1350,l),
(140,1350,l),
(90,680,l),
(42,1350,l),
(20,1350,l),
(69,668,l),
(16,0,l)
);
}
);
width = 190;
},
{
anchors = (
{
name = bottom;
pos = (404,0);
},
{
name = top;
pos = (404,1350);
}
);
layerId = "BA0CA162-2A9B-49EE-921D-3B4346C7D39F";
shapes = (
{
closed = 1;
nodes = (
(368,0,l),
(404,522,l),
(440,0,l),
(804,0,l),
(704,668,l),
(798,1350,l),
(434,1350,l),
(404,814,l),
(374,1350,l),
(10,1350,l),
(104,668,l),
(4,0,l)
);
}
);
width = 808;
},
{
anchors = (
{
name = bottom;
pos = (1102,0);
},
{
name = top;
pos = (1102,1350);
}
);
layerId = "C75D3228-2D13-4E9D-9829-45195F4951D0";
shapes = (
{
closed = 1;
nodes = (
(684,0,l),
(1102,430,l),
(1522,0,l),
(2204,0,l),
(1478,668,l),
(2184,1350,l),
(1502,1350,l),
(1102,906,l),
(704,1350,l),
(20,1350,l),
(722,668,l),
(0,0,l)
);
}
);
width = 2204;
},
{
anchors = (
{
name = bottom;
pos = (954,0);
},
{
name = top;
pos = (954,1350);
}
);
layerId = "71977205-6510-4B11-BB00-17BACA883C8F";
shapes = (
{
closed = 1;
nodes = (
(128,0,l),
(909,661,l),
(1690,0,l),
(1726,0,l),
(933,668,l),
(1704,1350,l),
(1668,1350,l),
(909,675,l),
(150,1350,l),
(114,1350,l),
(885,668,l),
(92,0,l)
);
}
);
width = 1908;
},
{
anchors = (
{
name = bottom;
pos = (747,0);
},
{
name = top;
pos = (986,1350);
}
);
layerId = "5997A0D0-E78E-41EC-9011-DECBEAD8517D";
shapes = (
{
closed = 1;
nodes = (
(29,0,l),
(927,661,l),
(1591,0,l),
(1625,0,l),
(952,668,l),
(1843,1350,l),
(1805,1350,l),
(929,675,l),
(287,1350,l),
(253,1350,l),
(904,668,l),
(-9,0,l)
);
}
);
width = 1908;
},
{
anchors = (
{
name = bottom;
pos = (303,0);
},
{
name = top;
pos = (542,1350);
}
);
layerId = "55C4185A-9C39-4468-B19C-DE0A3E571700";
shapes = (
{
closed = 1;
nodes = (
(264,0,l),
(392,522,l),
(336,0,l),
(700,0,l),
(718,668,l),
(932,1350,l),
(568,1350,l),
(444,814,l),
(508,1350,l),
(144,1350,l),
(118,668,l),
(-100,0,l)
);
}
);
width = 808;
},
{
anchors = (
{
name = bottom;
pos = (1,0);
},
{
name = top;
pos = (240,1350);
}
);
layerId = "4F53612F-C4F8-4368-83AD-8913BEEF8F1D";
shapes = (
{
closed = 1;
nodes = (
(-54,0,l),
(112,654,l),
(50,0,l),
(72,0,l),
(134,668,l),
(308,1350,l),
(286,1350,l),
(118,682,l),
(186,1350,l),
(164,1350,l),
(96,668,l),
(-78,0,l)
);
}
);
width = 190;
},
{
anchors = (
{
name = bottom;
pos = (1007,0);
},
{
name = top;
pos = (1246,1350);
}
);
layerId = "E5A4176B-9C10-4B01-BBC9-D7999ECBFAF8";
shapes = (
{
closed = 1;
nodes = (
(590,0,l),
(1084,430,l),
(1428,0,l),
(2110,0,l),
(1502,668,l),
(2330,1350,l),
(1648,1350,l),
(1168,906,l),
(850,1350,l),
(166,1350,l),
(746,668,l),
(-94,0,l)
);
}
);
width = 2204;
}
);
note = X;
unicode = 88;
},
{
glyphname = Y;
kernLeft = Y;
kernRight = Y;
layers = (
{
anchors = (
{
name = bottom;
pos = (82,0);
},
{
name = top;
pos = (82,1350);
},
{
name = topleft;
pos = (10,1350);
}
);
layerId = "A1A0948C-E637-4A65-8CCC-05505AD98C44";
shapes = (
{
closed = 1;
nodes = (
(88,478,l),
(141,1350,l),
(119,1350,l),
(76,529,l),
(78,529,l),
(35,1350,l),
(13,1350,l),
(66,478,l)
);
},
{
closed = 1;
nodes = (
(88,0,l),
(88,500,l),
(66,500,l),
(66,0,l)
);
}
);
width = 160;
},
{
anchors = (
{
name = bottom;
pos = (398,0);
},
{
name = top;
pos = (398,1350);
},
{
name = topleft;
pos = (20,1350);
}
);
layerId = "BA0CA162-2A9B-49EE-921D-3B4346C7D39F";
shapes = (
{
closed = 1;
nodes = (
(568,266,l),
(788,1350,l),
(426,1350,l),
(402,680,l),
(398,680,l),
(372,1350,l),
(10,1350,l),
(232,266,l)
);
},
{
closed = 1;
nodes = (
(574,0,l),
(574,552,l),
(226,552,l),
(226,0,l)
);
}
);
width = 796;
},
{
anchors = (
{
name = bottom;
pos = (1143,0);
},
{
name = top;
pos = (1143,1350);
},
{
name = topleft;
pos = (20,1350);
}
);
layerId = "C75D3228-2D13-4E9D-9829-45195F4951D0";
shapes = (
{
closed = 1;
nodes = (
(1414,528,l),
(2288,1350,l),
(1652,1350,l),
(1110,822,l),
(1184,822,l),
(638,1350,l),
(2,1350,l),
(878,528,l)
);
},
{
closed = 1;
nodes = (
(1428,0,l),
(1428,754,l),
(864,754,l),
(864,0,l)
);
}
);
width = 2285;
},
{
anchors = (
{
name = bottom;
pos = (993,0);
},
{
name = top;
pos = (953,1350);
},
{
name = topleft;
pos = (0,1350);
}
);
layerId = "71977205-6510-4B11-BB00-17BACA883C8F";
shapes = (
{
closed = 1;
nodes = (
(956,625,l),
(1782,1350,l),
(1750,1350,l),
(948,646,l),
(954,646,l),
(152,1350,l),
(120,1350,l),
(947,625,l)
);
},
{
closed = 1;
nodes = (
(962,0,l),
(962,644,l),
(940,644,l),
(940,0,l)
);
}
);
width = 1962;
},
{
anchors = (
{
name = bottom;
pos = (817,0);
},
{
name = top;
pos = (1067,1350);
},
{
name = topleft;
pos = (184,1350);
}
);
layerId = "5997A0D0-E78E-41EC-9011-DECBEAD8517D";
shapes = (
{
closed = 1;
nodes = (
(917,625,l),
(1871,1350,l),
(1837,1350,l),
(911,646,l),
(917,646,l),
(239,1350,l),
(209,1350,l),
(908,625,l)
);
},
{
closed = 1;
nodes = (
(813,0,l),
(927,644,l),
(905,644,l),
(791,0,l)
);
}
);
width = 1962;
},
{
anchors = (
{
name = bottom;
pos = (300,0);
},
{
name = top;
pos = (539,1350);
},
{
name = topleft;
pos = (164,1350);
}
);
layerId = "55C4185A-9C39-4468-B19C-DE0A3E571700";
shapes = (
{
closed = 1;
nodes = (
(510,266,l),
(922,1350,l),
(560,1350,l),
(416,680,l),
(412,680,l),
(506,1350,l),
(144,1350,l),
(174,266,l)
);
},
{
closed = 1;
nodes = (
(468,0,l),
(566,552,l),
(218,552,l),
(120,0,l)
);
}
);
width = 790;
},
{
anchors = (
{
name = bottom;
pos = (-9,0);
},
{
name = top;
pos = (223,1350);
},
{
name = topleft;
pos = (158,1350);
}
);
layerId = "4F53612F-C4F8-4368-83AD-8913BEEF8F1D";
shapes = (
{
closed = 1;
nodes = (
(78,478,l),
(285,1350,l),
(263,1350,l),
(74,529,l),
(77,529,l),
(179,1350,l),
(157,1350,l),
(56,478,l)
);
},
{
closed = 1;
nodes = (
(-6,0,l),
(82,500,l),
(60,500,l),
(-28,0,l)
);
}
);
width = 160;
},
{
anchors = (
{
name = bottom;
pos = (1035,0);
},
{
name = top;
pos = (1274,1350);
},
{
name = topleft;
pos = (164,1350);
}
);
layerId = "E5A4176B-9C10-4B01-BBC9-D7999ECBFAF8";
shapes = (
{
closed = 1;
nodes = (
(1378,528,l),
(2397,1350,l),
(1751,1350,l),
(1116,822,l),
(1190,822,l),
(737,1350,l),
(111,1350,l),
(842,528,l)
);
},
{
closed = 1;
nodes = (
(1299,0,l),
(1432,754,l),
(868,754,l),
(735,0,l)
);
}
);
width = 2285;
}
);
note = Y;
unicode = 89;
},
{
glyphname = Y.ss01;
kernLeft = Y;
kernRight = Y;
lastChange = "2020-04-28 15:26:30 +0000";
layers = (
{
anchors = (
{
name = bottom;
pos = (80,0);
},
{
name = top;
pos = (80,1350);
},
{
name = topleft;
pos = (20,1350);
}
);
layerId = "A1A0948C-E637-4A65-8CCC-05505AD98C44";
shapes = (
{
closed = 1;
nodes = (
(86,437,l),
(134,1350,l),
(112,1350,l),
(74,564,l),
(76,564,l),
(38,1350,l),
(16,1350,l),
(64,437,l)
);
},
{
closed = 1;
nodes = (
(86,0,l),
(86,559,l),
(64,559,l),
(64,0,l)
);
}
);
width = 160;
},
{
anchors = (
{
name = bottom;
pos = (378,0);
},
{
name = top;
pos = (378,1350);
},
{
name = topleft;
pos = (20,1350);
}
);
layerId = "BA0CA162-2A9B-49EE-921D-3B4346C7D39F";
shapes = (
{
closed = 1;
nodes = (
(624,420,l),
(744,1350,l),
(410,1350,l),
(378,674,l),
(382,674,l),
(348,1350,l),
(14,1350,l),
(136,420,l)
);
},
{
closed = 1;
nodes = (
(554,0,l),
(554,626,l),
(206,626,l),
(206,0,l)
);
}
);
width = 756;
},
{
anchors = (
{
name = bottom;
pos = (1143,0);
},
{
name = top;
pos = (1143,1350);
},
{
name = topleft;
pos = (20,1350);
}
);
layerId = "C75D3228-2D13-4E9D-9829-45195F4951D0";
shapes = (
{
closed = 1;
nodes = (
(1414,446,l),
(2288,1350,l),
(1652,1350,l),
(1110,740,l),
(1184,740,l),
(638,1350,l),
(2,1350,l),
(878,446,l)
);
},
{
closed = 1;
nodes = (
(1428,0,l),
(1428,672,l),
(866,672,l),
(866,0,l)
);
}
);
width = 2285;
},
{
anchors = (
{
name = bottom;
pos = (1014,0);
},
{
name = top;
pos = (1014,1350);
},
{
name = topleft;
pos = (20,1350);
}
);
layerId = "71977205-6510-4B11-BB00-17BACA883C8F";
shapes = (
{
closed = 1;
nodes = (
(977,599,l),
(1833,1350,l),
(1797,1350,l),
(968,619,l),
(974,619,l),
(145,1350,l),
(109,1350,l),
(965,599,l)
);
},
{
closed = 1;
nodes = (
(982,0,l),
(982,618,l),
(960,618,l),
(960,0,l)
);
}
);
width = 2028;
},
{
anchors = (
{
name = bottom;
pos = (797,0);
},
{
name = top;
pos = (1036,1350);
},
{
name = topleft;
pos = (164,1350);
}
);
layerId = "5997A0D0-E78E-41EC-9011-DECBEAD8517D";
shapes = (
{
closed = 1;
nodes = (
(904,599,l),
(1892,1350,l),
(1854,1350,l),
(896,619,l),
(902,619,l),
(202,1350,l),
(168,1350,l),
(892,599,l)
);
},
{
closed = 1;
nodes = (
(803,0,l),
(912,618,l),
(890,618,l),
(781,0,l)
);
}
);
width = 2028;
},
{
anchors = (
{
name = bottom;
pos = (283,0);
},
{
name = top;
pos = (522,1350);
},
{
name = topleft;
pos = (164,1350);
}
);
layerId = "55C4185A-9C39-4468-B19C-DE0A3E571700";
shapes = (
{
closed = 1;
nodes = (
(600,420,l),
(884,1350,l),
(550,1350,l),
(398,674,l),
(402,674,l),
(488,1350,l),
(154,1350,l),
(112,420,l)
);
},
{
closed = 1;
nodes = (
(454,0,l),
(566,626,l),
(218,626,l),
(106,0,l)
);
}
);
width = 756;
},
{
anchors = (
{
name = bottom;
pos = (-15,0);
},
{
name = top;
pos = (224,1350);
},
{
name = topleft;
pos = (164,1350);
}
);
layerId = "4F53612F-C4F8-4368-83AD-8913BEEF8F1D";
shapes = (
{
closed = 1;
nodes = (
(68,437,l),
(277,1350,l),
(255,1350,l),
(78,564,l),
(80,564,l),
(181,1350,l),
(159,1350,l),
(46,437,l)
);
},
{
closed = 1;
nodes = (
(-9,0,l),
(90,559,l),
(68,559,l),
(-31,0,l)
);
}
);
width = 160;
},
{
anchors = (
{
name = bottom;
pos = (1047,0);
},
{
name = top;
pos = (1286,1350);
},
{
name = topleft;
pos = (164,1350);
}
);
layerId = "E5A4176B-9C10-4B01-BBC9-D7999ECBFAF8";
shapes = (
{
closed = 1;
nodes = (
(1382,446,l),
(2416,1350,l),
(1760,1350,l),
(1110,740,l),
(1184,740,l),
(746,1350,l),
(130,1350,l),
(846,446,l)
);
},
{
closed = 1;
nodes = (
(1316,0,l),
(1436,672,l),
(874,672,l),
(754,0,l)
);
}
);
width = 2284;
}
);
note = Y;
},
{
glyphname = Z;
kernLeft = Z;
kernRight = Z;
layers = (
{
anchors = (
{
name = bottom;
pos = (74,0);
},
{
name = center;
pos = (74,675);
},
{
name = top;
pos = (74,1350);
}
);
layerId = "A1A0948C-E637-4A65-8CCC-05505AD98C44";
shapes = (
{
closed = 1;
nodes = (
(110,0,l),
(110,22,l),
(50,22,l),
(104,1330,l),
(104,1350,l),
(28,1350,l),
(28,1328,l),
(82,1328,l),
(28,20,l),
(28,0,l)
);
}
);
width = 148;
},
{
anchors = (
{
name = bottom;
pos = (254,0);
},
{
name = center;
pos = (254,675);
},
{
name = top;
pos = (254,1350);
}
);
layerId = "BA0CA162-2A9B-49EE-921D-3B4346C7D39F";
shapes = (
{
closed = 1;
nodes = (
(496,0,l),
(496,250,l),
(330,250,l),
(494,1100,l),
(494,1350,l),
(26,1350,l),
(26,1100,l),
(178,1100,l),
(12,254,l),
(12,0,l)
);
}
);
width = 508;
},
{
anchors = (
{
name = bottom;
pos = (998,0);
},
{
name = center;
pos = (998,675);
},
{
name = top;
pos = (998,1350);
}
);
layerId = "C75D3228-2D13-4E9D-9829-45195F4951D0";
shapes = (
{
closed = 1;
nodes = (
(1842,0,l),
(1842,364,l),
(784,364,l),
(1824,984,l),
(1824,1350,l),
(114,1350,l),
(114,990,l),
(1138,990,l),
(98,380,l),
(98,0,l)
);
}
);
width = 1995;
},
{
anchors = (
{
name = bottom;
pos = (916,0);
},
{
name = center;
pos = (916,675);
},
{
name = top;
pos = (916,1350);
}
);
layerId = "71977205-6510-4B11-BB00-17BACA883C8F";
shapes = (
{
closed = 1;
nodes = (
(1636,0,l),
(1636,24,l),
(157,24,l),
(1554,1323,l),
(1554,1350,l),
(139,1350,l),
(139,1326,l),
(1522,1326,l),
(125,32,l),
(125,0,l)
);
}
);
width = 1833;
},
{
anchors = (
{
name = bottom;
pos = (711,0);
},
{
name = center;
pos = (831,675);
},
{
name = top;
pos = (950,1350);
}
);
layerId = "5997A0D0-E78E-41EC-9011-DECBEAD8517D";
shapes = (
{
closed = 1;
nodes = (
(1537,0,l),
(1541,24,l),
(64,24,l),
(1688,1323,l),
(1693,1350,l),
(278,1350,l),
(274,1326,l),
(1655,1326,l),
(32,32,l),
(26,0,l)
);
}
);
width = 1833;
},
{
anchors = (
{
name = bottom;
pos = (157,0);
},
{
name = center;
pos = (277,675);
},
{
name = top;
pos = (396,1350);
}
);
layerId = "55C4185A-9C39-4468-B19C-DE0A3E571700";
shapes = (
{
closed = 1;
nodes = (
(395,0,l),
(439,250,l),
(273,250,l),
(587,1100,l),
(631,1350,l),
(163,1350,l),
(119,1100,l),
(271,1100,l),
(-44,254,l),
(-89,0,l)
);
}
);
width = 508;
},
{
anchors = (
{
name = bottom;
pos = (-28,0);
},
{
name = center;
pos = (92,675);
},
{
name = top;
pos = (211,1350);
}
);
layerId = "4F53612F-C4F8-4368-83AD-8913BEEF8F1D";
shapes = (
{
closed = 1;
nodes = (
(10,0,l),
(14,22,l),
(-50,22,l),
(238,1330,l),
(242,1350,l),
(164,1350,l),
(160,1328,l),
(216,1328,l),
(-72,20,l),
(-76,0,l)
);
}
);
width = 148;
},
{
anchors = (
{
name = bottom;
pos = (903,0);
},
{
name = center;
pos = (1023,675);
},
{
name = top;
pos = (1142,1350);
}
);
layerId = "E5A4176B-9C10-4B01-BBC9-D7999ECBFAF8";
shapes = (
{
closed = 1;
nodes = (
(1723,0,l),
(1787,364,l),
(739,364,l),
(1878,984,l),
(1943,1350,l),
(233,1350,l),
(170,990,l),
(1184,990,l),
(46,380,l),
(-21,0,l)
);
}
);
width = 1995;
}
);
note = Z;
unicode = 90;
},
{
glyphname = a;
kernLeft = a;
kernRight = n;
lastChange = "2020-07-29 16:04:09 +0000";
layers = (
{
anchors = (
{
name = bottom;
pos = (100,0);
},
{
name = ogonek;
pos = (156,0);
},
{
name = top;
pos = (101,1200);
}
);
layerId = "A1A0948C-E637-4A65-8CCC-05505AD98C44";
shapes = (
{
closed = 1;
nodes = (
(156,0,l),
(156,732,ls),
(156,957,o),
(156,1212,o),
(101,1212,q),
(101,1190,l),
(134,1190,o),
(134,952,o),
(134,726,qs),
(134,44,l),
(136,0,l)
);
},
{
closed = 1;
nodes = (
(116,-6,o),
(141,48,o),
(141,78,q),
(134,106,l),
(134,73,o),
(111,16,o),
(90,16,qs),
(58,16,o),
(58,232,o),
(58,366,qs),
(58,511,o),
(58,664,o),
(117,664,qs),
(134,664,o),
(146,664,q),
(146,686,l),
(134,686,o),
(122,686,qs),
(36,686,o),
(36,510,o),
(36,366,qs),
(36,222,o),
(36,-6,o),
(86,-6,qs)
);
},
{
closed = 1;
nodes = (
(58,769,l),
(58,1042,o),
(59,1190,o),
(101,1190,c),
(103,1200,l),
(101,1212,l),
(37,1212,o),
(36,1081,o),
(36,769,c)
);
}
);
width = 200;
},
{
anchors = (
{
name = bottom;
pos = (383,0);
},
{
name = ogonek;
pos = (749,0);
},
{
name = top;
pos = (392,1200);
}
);
layerId = "BA0CA162-2A9B-49EE-921D-3B4346C7D39F";
shapes = (
{
closed = 1;
nodes = (
(749,0,l),
(749,551,ls),
(749,839,o),
(750,1211,o),
(397,1211,q),
(387,955,l),
(399,955,o),
(399,890,o),
(399,767,qs),
(399,182,l),
(475,0,l)
);
},
{
closed = 1;
nodes = (
(442,-10,o),
(502,167,o),
(502,334,q),
(399,358,l),
(399,290,o),
(399,244,o),
(385,244,qs),
(371,244,o),
(371,290,o),
(371,358,qs),
(371,422,o),
(371,478,o),
(392,478,qs),
(400,478,o),
(407,478,q),
(407,722,l),
(309,722,o),
(214,722,qs),
(94,722,o),
(11,572,o),
(11,354,qs),
(11,110,o),
(135,-10,o),
(271,-10,qs)
);
},
{
closed = 1;
nodes = (
(371,774,l),
(371,935,o),
(372,955,o),
(387,955,c),
(397,1091,l),
(397,1211,l),
(32,1211,o),
(11,1119,o),
(11,774,c)
);
}
);
width = 762;
},
{
anchors = (
{
name = bottom;
pos = (1075,0);
},
{
name = ogonek;
pos = (1980,0);
},
{
name = top;
pos = (1026,1172);
}
);
background = {
shapes = (
{
closed = 0;
nodes = (
(1008,1184,l),
(1038,840,l)
);
},
{
closed = 0;
nodes = (
(1038,840,l),
(1048,1025,l),
(1008,1184,l)
);
}
);
};
layerId = "C75D3228-2D13-4E9D-9829-45195F4951D0";
shapes = (
{
closed = 1;
nodes = (
(1980,0,l),
(1980,693,ls),
(1980,961,o),
(1429,1184,o),
(1008,1184,q),
(1061,840,l),
(1203,840,o),
(1422,780,o),
(1422,728,qs),
(1422,186,l),
(1474,0,l)
);
},
{
closed = 1;
nodes = (
(1168,-20,o),
(1646,186,o),
(1646,380,q),
(1422,455,l),
(1422,401,o),
(1152,288,o),
(958,288,qs),
(800,288,o),
(648,321,o),
(648,361,qs),
(648,401,o),
(822,444,o),
(1062,444,qs),
(1244,444,o),
(1456,444,q),
(1456,726,l),
(1279,726,o),
(1047,726,qs),
(584,726,o),
(88,550,o),
(88,352,qs),
(88,144,o),
(532,-20,o),
(845,-20,qs)
);
},
{
closed = 1;
nodes = (
(670,758,l),
(724,798,o),
(880,840,o),
(1061,840,c),
(1056,1025,l),
(1008,1184,l),
(684,1184,o),
(255,1081,o),
(148,1009,c)
);
}
);
width = 2150;
},
{
anchors = (
{
name = bottom;
pos = (863,0);
},
{
name = ogonek;
pos = (1548,0);
},
{
name = top;
pos = (850,1169);
}
);
layerId = "71977205-6510-4B11-BB00-17BACA883C8F";
shapes = (
{
closed = 1;
nodes = (
(1548,0,l),
(1548,777,ls),
(1548,964,o),
(1198,1177,o),
(850,1177,q),
(850,1155,l),
(1190,1155,o),
(1526,955,o),
(1526,775,qs),
(1526,252,l),
(1526,0,l)
);
},
{
closed = 1;
nodes = (
(1128,-11,o),
(1534,177,o),
(1534,250,q),
(1526,278,l),
(1526,197,o),
(1117,11,o),
(811,11,qs),
(494,11,o),
(166,173,o),
(166,333,qs),
(166,502,o),
(517,643,o),
(855,643,qs),
(1126,643,o),
(1531,643,q),
(1531,665,l),
(1137,665,o),
(854,665,qs),
(493,665,o),
(142,507,o),
(142,333,qs),
(142,161,o),
(485,-11,o),
(811,-11,qs)
);
},
{
closed = 1;
nodes = (
(182,860,l),
(182,1024,o),
(480,1155,o),
(850,1155,c),
(854,1165,l),
(850,1177,l),
(473,1177,o),
(159,1038,o),
(159,860,c)
);
}
);
width = 1771;
},
{
anchors = (
{
name = bottom;
pos = (697,0);
},
{
name = ogonek;
pos = (1425,0);
},
{
name = top;
pos = (950,1172);
}
);
layerId = "5997A0D0-E78E-41EC-9011-DECBEAD8517D";
shapes = (
{
closed = 1;
nodes = (
(1425,0,l),
(1562,777,ls),
(1595,964,o),
(1278,1177,o),
(930,1177,q),
(931,1155,l),
(1271,1155,o),
(1572,955,o),
(1540,775,qs),
(1448,252,l),
(1403,0,l)
);
},
{
closed = 1;
nodes = (
(1003,-11,o),
(1446,176,o),
(1459,249,q),
(1452,278,l),
(1438,197,o),
(996,11,o),
(690,11,qs),
(373,11,o),
(92,171,o),
(102,333,qs),
(112,502,o),
(508,643,o),
(846,643,qs),
(1117,643,o),
(1522,643,q),
(1525,665,l),
(1131,665,o),
(848,665,qs),
(487,665,o),
(87,507,o),
(78,333,qs),
(69,159,o),
(360,-11,o),
(686,-11,qs)
);
},
{
closed = 1;
nodes = (
(211,860,l),
(240,1018,o),
(561,1155,o),
(931,1155,c),
(937,1165,l),
(930,1177,l),
(553,1177,o),
(219,1038,o),
(188,860,c)
);
}
);
width = 1771;
},
{
anchors = (
{
name = bottom;
pos = (280,0);
},
{
name = ogonek;
pos = (643,0);
},
{
name = top;
pos = (501,1200);
}
);
layerId = "55C4185A-9C39-4468-B19C-DE0A3E571700";
shapes = (
{
closed = 1;
nodes = (
(643,0,l),
(740,551,ls),
(791,839,o),
(858,1211,o),
(505,1211,q),
(450,955,l),
(462,955,o),
(450,890,o),
(428,767,qs),
(325,182,l),
(369,0,l)
);
},
{
closed = 1;
nodes = (
(334,-10,o),
(426,167,o),
(455,334,q),
(356,358,l),
(344,290,o),
(336,244,o),
(322,244,qs),
(308,244,o),
(316,290,o),
(328,358,qs),
(340,422,o),
(349,478,o),
(370,478,qs),
(378,478,o),
(385,478,q),
(428,722,l),
(330,722,o),
(235,722,qs),
(115,722,o),
(6,572,o),
(-32,354,qs),
(-75,110,o),
(27,-10,o),
(163,-10,qs)
);
},
{
closed = 1;
nodes = (
(402,774,l),
(430,935,o),
(435,955,o),
(450,955,c),
(483,1091,l),
(505,1211,l),
(140,1211,o),
(102,1119,o),
(42,774,c)
);
}
);
width = 762;
},
{
anchors = (
{
name = bottom;
pos = (6,0);
},
{
name = ogonek;
pos = (59,0);
},
{
name = top;
pos = (214,1200);
}
);
layerId = "4F53612F-C4F8-4368-83AD-8913BEEF8F1D";
shapes = (
{
closed = 1;
nodes = (
(59,0,l),
(188,732,ls),
(228,957,o),
(272,1212,o),
(215,1212,q),
(214,1190,l),
(247,1190,o),
(205,952,o),
(165,726,qs),
(44,44,l),
(39,0,l)
);
},
{
closed = 1;
nodes = (
(20,-6,o),
(52,48,o),
(57,78,q),
(55,106,l),
(50,73,o),
(16,16,o),
(-5,16,qs),
(-37,16,o),
(2,232,o),
(25,366,qs),
(51,511,o),
(78,664,o),
(139,664,qs),
(156,664,o),
(166,664,q),
(170,686,l),
(158,686,o),
(146,686,qs),
(60,686,o),
(29,510,o),
(3,366,qs),
(-22,222,o),
(-62,-6,o),
(-10,-6,qs)
);
},
{
closed = 1;
nodes = (
(96,769,l),
(144,1042,o),
(172,1190,o),
(214,1190,c),
(217,1200,l),
(215,1212,l),
(153,1212,o),
(129,1081,o),
(74,769,c)
);
}
);
width = 200;
},
{
anchors = (
{
name = bottom;
pos = (980,0);
},
{
name = ogonek;
pos = (1866,0);
},
{
name = top;
pos = (1149,1172);
}
);
layerId = "E5A4176B-9C10-4B01-BBC9-D7999ECBFAF8";
shapes = (
{
closed = 1;
nodes = (
(1866,0,l),
(1985,673,ls),
(2032,941,o),
(1534,1184,o),
(1093,1184,q),
(1095,840,l),
(1237,840,o),
(1446,780,o),
(1437,728,qs),
(1341,186,l),
(1398,0,l)
);
},
{
closed = 1;
nodes = (
(1081,-20,o),
(1572,166,o),
(1606,360,q),
(1389,455,l),
(1379,401,o),
(1089,288,o),
(895,288,qs),
(737,288,o),
(591,321,o),
(598,361,qs),
(605,401,o),
(787,444,o),
(1027,444,qs),
(1209,444,o),
(1421,444,q),
(1470,726,l),
(1293,726,o),
(1061,726,qs),
(598,726,o),
(36,539,o),
(36,298,qs),
(36,122,o),
(435,-20,o),
(758,-20,qs)
);
},
{
closed = 1;
nodes = (
(690,758,l),
(751,798,o),
(914,840,o),
(1095,840,c),
(1123,1025,l),
(1093,1184,l),
(769,1184,o),
(332,1081,o),
(212,1009,c)
);
}
);
width = 2150;
}
);
note = a;
unicode = 97;
},
{
glyphname = a.ss01;
kernLeft = o;
kernRight = l;
lastChange = "2020-04-28 15:26:30 +0000";
layers = (
{
anchors = (
{
name = bottom;
pos = (103,0);
},
{
name = ogonek;
pos = (152,1);
},
{
name = top;
pos = (98,1200);
}
);
layerId = "A1A0948C-E637-4A65-8CCC-05505AD98C44";
shapes = (
{
closed = 1;
nodes = (
(162,0,l),
(162,1200,l),
(140,1200,l),
(140,66,l),
(142,0,l)
);
},
{
pos = (10,0);
ref = dcurve;
}
);
width = 206;
},
{
anchors = (
{
name = bottom;
pos = (1053,0);
},
{
name = ogonek;
pos = (1546,0);
},
{
name = top;
pos = (1060,1172);
}
);
layerId = "C75D3228-2D13-4E9D-9829-45195F4951D0";
shapes = (
{
closed = 1;
nodes = (
(1996,0,l),
(1996,1172,l),
(1430,1172,l),
(1430,228,l),
(1430,0,l)
);
},
{
pos = (22,0);
ref = dcurve;
}
);
width = 2196;
},
{
anchors = (
{
name = bottom;
pos = (369,0);
},
{
name = ogonek;
pos = (530,0);
},
{
name = top;
pos = (369,1200);
}
);
layerId = "BA0CA162-2A9B-49EE-921D-3B4346C7D39F";
shapes = (
{
closed = 1;
nodes = (
(726,0,l),
(726,1200,l),
(382,1200,l),
(382,168,l),
(456,0,l)
);
},
{
ref = dcurve;
}
);
width = 738;
},
{
anchors = (
{
name = bottom;
pos = (897,0);
},
{
name = ogonek;
pos = (1541,0);
},
{
name = top;
pos = (875,1168);
}
);
layerId = "71977205-6510-4B11-BB00-17BACA883C8F";
shapes = (
{
closed = 1;
nodes = (
(1552,0,l),
(1552,1168,l),
(1530,1168,l),
(1530,367,l),
(1530,0,l)
);
},
{
pos = (83,0);
ref = dcurve;
}
);
width = 1752;
},
{
anchors = (
{
name = bottom;
pos = (784,0);
},
{
name = ogonek;
pos = (1429,0);
},
{
name = top;
pos = (959,1172);
}
);
layerId = "5997A0D0-E78E-41EC-9011-DECBEAD8517D";
shapes = (
{
closed = 1;
nodes = (
(1441,0,l),
(1647,1172,l),
(1625,1172,l),
(1477,328,l),
(1419,0,l)
);
},
{
pos = (241,0);
ref = dcurve;
}
);
width = 1764;
},
{
anchors = (
{
name = bottom;
pos = (270,0);
},
{
name = ogonek;
pos = (431,0);
},
{
name = top;
pos = (464,1200);
}
);
layerId = "55C4185A-9C39-4468-B19C-DE0A3E571700";
shapes = (
{
closed = 1;
nodes = (
(623,0,l),
(833,1200,l),
(489,1200,l),
(309,168,l),
(353,0,l)
);
},
{
pos = (-3,0);
ref = dcurve;
}
);
width = 733;
},
{
anchors = (
{
name = bottom;
pos = (-5,0);
},
{
name = ogonek;
pos = (58,0);
},
{
name = top;
pos = (216,1200);
}
);
layerId = "4F53612F-C4F8-4368-83AD-8913BEEF8F1D";
shapes = (
{
closed = 1;
nodes = (
(67,0,l),
(277,1200,l),
(255,1200,l),
(55,66,l),
(47,0,l)
);
},
{
pos = (7,0);
ref = dcurve;
}
);
width = 205;
},
{
anchors = (
{
name = bottom;
pos = (1002,0);
},
{
name = ogonek;
pos = (1437,0);
},
{
name = top;
pos = (1192,1072);
}
);
layerId = "E5A4176B-9C10-4B01-BBC9-D7999ECBFAF8";
shapes = (
{
closed = 1;
nodes = (
(1881,0,l),
(2087,1172,l),
(1521,1172,l),
(1355,228,l),
(1315,0,l)
);
},
{
pos = (31,0);
ref = dcurve;
}
);
width = 2182;
}
);
metricLeft = d;
metricRight = d;
},
{
glyphname = ae;
kernLeft = a;
kernRight = e;
layers = (
{
anchors = (
{
name = bottom;
pos = (151,0);
},
{
name = top;
pos = (146,1200);
}
);
layerId = "A1A0948C-E637-4A65-8CCC-05505AD98C44";
shapes = (
{
closed = 1;
nodes = (
(156,806,ls),
(156,992,o),
(156,1210,o),
(96,1210,qs),
(36,1210,o),
(36,992,o),
(36,740,q),
(58,740,l),
(58,986,o),
(58,1188,o),
(96,1188,qs),
(134,1188,o),
(134,986,o),
(134,800,qs),
(134,140,l),
(136,104,l),
(156,96,l)
);
},
{
closed = 1;
nodes = (
(120,-6,o),
(154,76,o),
(154,192,q),
(134,192,l),
(134,78,o),
(108,16,o),
(86,16,qs),
(60,16,o),
(58,152,o),
(58,276,qs),
(58,476,o),
(59,594,o),
(103,594,qs),
(119,594,o),
(146,594,q),
(146,616,l),
(132,616,o),
(112,616,qs),
(36,616,o),
(36,468,o),
(36,276,qs),
(36,152,o),
(36,-6,o),
(86,-6,qs)
);
},
{
alignment = -1;
pos = (100,0);
ref = e;
}
);
width = 300;
},
{
anchors = (
{
name = bottom;
pos = (568,0);
},
{
name = top;
pos = (568,1200);
}
);
layerId = "BA0CA162-2A9B-49EE-921D-3B4346C7D39F";
shapes = (
{
closed = 1;
nodes = (
(749,775,ls),
(749,919,o),
(749,1211,o),
(387,1211,qs),
(23,1211,o),
(23,919,o),
(23,720,q),
(373,720,l),
(373,919,o),
(373,985,o),
(387,985,qs),
(401,985,o),
(401,921,o),
(401,789,qs),
(401,182,l),
(467,182,l),
(749,148,l)
);
},
{
closed = 1;
nodes = (
(495,-10,o),
(609,148,o),
(607,314,q),
(401,450,l),
(401,278,o),
(401,214,o),
(387,214,qs),
(373,214,o),
(373,278,o),
(373,324,qs),
(373,390,o),
(373,442,o),
(395,442,qs),
(407,442,o),
(409,442,q),
(409,672,l),
(333,672,o),
(257,672,qs),
(133,672,o),
(11,552,o),
(11,338,qs),
(11,130,o),
(145,-10,o),
(261,-10,qs)
);
},
{
alignment = -1;
pos = (389,0);
ref = e;
}
);
width = 1137;
},
{
anchors = (
{
name = bottom;
pos = (1713,0);
},
{
name = top;
pos = (1727,1172);
}
);
layerId = "C75D3228-2D13-4E9D-9829-45195F4951D0";
shapes = (
{
closed = 1;
nodes = (
(1914,624,ls),
(1914,940,o),
(1392,1182,o),
(1058,1182,qs),
(729,1182,o),
(278,1073,o),
(161,1014,q),
(674,760,l),
(739,802,o),
(922,838,o),
(1064,838,qs),
(1226,838,o),
(1432,757,o),
(1432,688,qs),
(1432,336,l),
(1502,286,l),
(1914,286,l)
);
},
{
closed = 1;
nodes = (
(1176,-19,o),
(1693,162,o),
(1727,340,q),
(1437,475,l),
(1437,408,o),
(1206,298,o),
(998,298,qs),
(789,298,o),
(664,344,o),
(664,374,qs),
(664,406,o),
(818,442,o),
(1018,442,qs),
(1194,442,o),
(1456,442,q),
(1456,716,l),
(1076,716,o),
(844,716,qs),
(535,716,o),
(88,568,o),
(88,362,qs),
(88,188,o),
(510,-19,o),
(830,-19,qs)
);
},
{
alignment = -1;
pos = (1344,0);
ref = e;
}
);
width = 3490;
},
{
anchors = (
{
name = bottom;
pos = (1497,0);
},
{
name = top;
pos = (1505,1172);
}
);
layerId = "71977205-6510-4B11-BB00-17BACA883C8F";
shapes = (
{
closed = 1;
nodes = (
(1479,669,ls),
(1479,917,o),
(1131,1178,o),
(839,1178,qs),
(515,1178,o),
(147,942,o),
(147,791,q),
(173,791,l),
(173,929,o),
(525,1156,o),
(839,1156,qs),
(1121,1156,o),
(1457,906,o),
(1457,656,qs),
(1457,610,l),
(1457,595,l),
(1479,596,l)
);
},
{
closed = 1;
nodes = (
(1068,-11,o),
(1479,248,o),
(1479,582,q),
(1457,582,l),
(1457,263,o),
(1060,11,o),
(742,11,qs),
(446,11,o),
(166,174,o),
(166,311,qs),
(166,449,o),
(458,581,o),
(788,581,qs),
(1059,581,o),
(1462,581,q),
(1462,603,l),
(1069,603,o),
(786,603,qs),
(435,603,o),
(142,455,o),
(142,311,qs),
(142,160,o),
(439,-11,o),
(742,-11,qs)
);
},
{
alignment = -1;
pos = (1328,0);
ref = e;
}
);
width = 3159;
},
{
anchors = (
{
name = bottom;
pos = (1402,0);
},
{
name = top;
pos = (1570,1172);
}
);
layerId = "5997A0D0-E78E-41EC-9011-DECBEAD8517D";
shapes = (
{
closed = 1;
nodes = (
(1472,669,ls),
(1516,917,o),
(1208,1178,o),
(917,1178,qs),
(592,1178,o),
(188,942,o),
(162,791,q),
(188,791,l),
(212,929,o),
(604,1156,o),
(918,1156,qs),
(1200,1156,o),
(1491,906,o),
(1448,656,qs),
(1440,610,l),
(1437,595,l),
(1459,596,l)
);
},
{
closed = 1;
nodes = (
(944,-11,o),
(1398,248,o),
(1457,582,q),
(1435,582,l),
(1378,263,o),
(937,11,o),
(619,11,qs),
(323,11,o),
(82,174,o),
(96,311,qs),
(110,450,o),
(436,581,o),
(766,581,qs),
(1037,581,o),
(1440,581,q),
(1443,603,l),
(1050,603,o),
(767,603,qs),
(416,603,o),
(86,456,o),
(72,311,qs),
(57,160,o),
(315,-11,o),
(618,-11,qs)
);
},
{
alignment = -1;
pos = (1307,0);
ref = e;
}
);
width = 3138;
},
{
anchors = (
{
name = bottom;
pos = (462,0);
},
{
name = top;
pos = (668,1200);
}
);
layerId = "55C4185A-9C39-4468-B19C-DE0A3E571700";
shapes = (
{
closed = 1;
nodes = (
(780,775,ls),
(805,917,o),
(858,1211,o),
(495,1211,qs),
(131,1211,o),
(79,919,o),
(44,720,q),
(394,720,l),
(429,919,o),
(441,985,o),
(455,985,qs),
(469,985,o),
(457,921,o),
(434,789,qs),
(327,182,l),
(393,182,l),
(669,148,l)
);
},
{
closed = 1;
nodes = (
(427,-10,o),
(529,148,o),
(556,314,q),
(374,450,l),
(344,278,o),
(333,214,o),
(319,214,qs),
(305,214,o),
(316,281,o),
(324,324,qs),
(336,390,o),
(345,442,o),
(367,442,qs),
(379,442,o),
(381,442,q),
(422,672,l),
(346,672,o),
(270,672,qs),
(147,672,o),
(2,552,o),
(-35,339,qs),
(-72,130,o),
(37,-10,o),
(193,-10,qs)
);
},
{
alignment = -1;
pos = (381,0);
ref = e;
}
);
width = 1129;
},
{
anchors = (
{
name = bottom;
pos = (56,0);
},
{
name = top;
pos = (254,1200);
}
);
layerId = "4F53612F-C4F8-4368-83AD-8913BEEF8F1D";
shapes = (
{
closed = 1;
nodes = (
(201,806,ls),
(234,991,o),
(272,1210,o),
(212,1210,qs),
(152,1210,o),
(114,992,o),
(69,740,q),
(91,740,l),
(135,986,o),
(170,1188,o),
(208,1188,qs),
(246,1188,o),
(210,983,o),
(178,800,qs),
(62,140,l),
(57,104,l),
(76,96,l)
);
},
{
closed = 1;
nodes = (
(28,-6,o),
(70,76,o),
(91,192,q),
(71,192,l),
(51,78,o),
(14,16,o),
(-8,16,qs),
(-34,16,o),
(-12,149,o),
(10,276,qs),
(45,476,o),
(67,594,o),
(111,594,qs),
(127,594,o),
(154,594,q),
(157,616,l),
(143,616,o),
(123,616,qs),
(47,616,o),
(21,468,o),
(-12,277,qs),
(-34,151,o),
(-62,-6,o),
(-12,-6,qs)
);
},
{
alignment = -1;
pos = (98,0);
ref = e;
}
);
width = 298;
},
{
anchors = (
{
name = bottom;
pos = (1589,0);
},
{
name = top;
pos = (1809,1172);
}
);
layerId = "E5A4176B-9C10-4B01-BBC9-D7999ECBFAF8";
shapes = (
{
closed = 1;
nodes = (
(1914,624,ls),
(1969,940,o),
(1491,1182,o),
(1157,1182,qs),
(828,1182,o),
(358,1073,o),
(230,1014,q),
(698,760,l),
(771,802,o),
(960,838,o),
(1102,838,qs),
(1264,838,o),
(1456,757,o),
(1444,688,qs),
(1382,336,l),
(1443,286,l),
(1855,286,l)
);
},
{
closed = 1;
nodes = (
(1063,-19,o),
(1612,162,o),
(1677,340,q),
(1411,475,l),
(1399,408,o),
(1149,298,o),
(941,298,qs),
(732,298,o),
(615,344,o),
(620,374,qs),
(626,406,o),
(786,442,o),
(986,442,qs),
(1162,442,o),
(1424,442,q),
(1473,716,l),
(1093,716,o),
(861,716,qs),
(552,716,o),
(79,568,o),
(42,362,qs),
(12,188,o),
(397,-19,o),
(717,-19,qs)
);
},
{
alignment = -1;
pos = (1345,0);
ref = e;
}
);
width = 3491;
}
);
metricLeft = a;
metricRight = e;
unicode = 230;
},
{
glyphname = b;
kernLeft = h;
kernRight = o;
lastChange = "2020-04-25 00:56:23 +0000";
layers = (
{
anchors = (
{
name = bottom;
pos = (101,0);
},
{
name = top;
pos = (101,1570);
}
);
layerId = "A1A0948C-E637-4A65-8CCC-05505AD98C44";
shapes = (
{
closed = 1;
nodes = (
(52,0,l),
(54,52,l),
(54,1570,l),
(32,1570,l),
(32,0,l)
);
},
{
pos = (8,0);
ref = bcurve;
}
);
width = 200;
},
{
anchors = (
{
name = bottom;
pos = (369,0);
},
{
name = top;
pos = (443,1552);
}
);
layerId = "BA0CA162-2A9B-49EE-921D-3B4346C7D39F";
shapes = (
{
closed = 1;
nodes = (
(296,0,l),
(356,168,l),
(356,1570,l),
(12,1570,l),
(12,0,l)
);
},
{
ref = bcurve;
}
);
width = 738;
},
{
anchors = (
{
name = bottom;
pos = (1184,0);
},
{
name = top;
pos = (1187,1570);
}
);
layerId = "C75D3228-2D13-4E9D-9829-45195F4951D0";
shapes = (
{
closed = 1;
nodes = (
(675,0,l),
(695,156,l),
(695,1570,l),
(135,1570,l),
(135,0,l)
);
},
{
pos = (9,0);
ref = bcurve;
}
);
width = 2157;
},
{
anchors = (
{
name = bottom;
pos = (917,0);
},
{
name = top;
pos = (916,1570);
}
);
layerId = "71977205-6510-4B11-BB00-17BACA883C8F";
shapes = (
{
closed = 1;
nodes = (
(232,0,l),
(232,370,l),
(232,1570,l),
(210,1570,l),
(210,0,l)
);
},
{
pos = (64,0);
ref = bcurve;
}
);
width = 1840;
},
{
anchors = (
{
name = bottom;
pos = (720,0);
},
{
name = top;
pos = (981,1570);
}
);
layerId = "5997A0D0-E78E-41EC-9011-DECBEAD8517D";
shapes = (
{
closed = 1;
nodes = (
(81,0,l),
(139,328,l),
(357,1570,l),
(335,1570,l),
(59,0,l)
);
},
{
pos = (31,0);
ref = bcurve;
}
);
width = 1812;
},
{
anchors = (
{
name = bottom;
pos = (272,0);
},
{
name = top;
pos = (544,1570);
}
);
layerId = "55C4185A-9C39-4468-B19C-DE0A3E571700";
shapes = (
{
closed = 1;
nodes = (
(194,0,l),
(284,168,l),
(530,1570,l),
(186,1570,l),
(-90,0,l)
);
},
{
ref = bcurve;
}
);
width = 739;
},
{
anchors = (
{
name = bottom;
pos = (-3,0);
},
{
name = top;
pos = (258,1570);
}
);
layerId = "4F53612F-C4F8-4368-83AD-8913BEEF8F1D";
shapes = (
{
closed = 1;
nodes = (
(-52,0,l),
(-38,72,l),
(228,1570,l),
(206,1570,l),
(-72,0,l)
);
},
{
pos = (-2,0);
ref = bcurve;
}
);
width = 192;
},
{
anchors = (
{
name = bottom;
pos = (1016,0);
},
{
name = top;
pos = (1277,1570);
}
);
layerId = "E5A4176B-9C10-4B01-BBC9-D7999ECBFAF8";
shapes = (
{
closed = 1;
nodes = (
(578,0,l),
(626,156,l),
(874,1570,l),
(314,1570,l),
(38,0,l)
);
},
{
pos = (36,0);
ref = bcurve;
}
);
width = 2175;
}
);
metricLeft = h;
metricRight = o;
note = b;
unicode = 98;
},
{
glyphname = c;
kernLeft = o;
kernRight = c;
layers = (
{
anchors = (
{
name = bottom;
pos = (99,0);
},
{
name = top;
pos = (94,1200);
}
);
layerId = "A1A0948C-E637-4A65-8CCC-05505AD98C44";
shapes = (
{
closed = 1;
nodes = (
(154,-6,o),
(154,323,o),
(154,465,q),
(132,465,l),
(132,329,o),
(132,16,o),
(94,16,qs),
(56,16,o),
(56,329,o),
(56,601,qs),
(56,937,o),
(56,1190,o),
(94,1190,qs),
(132,1190,o),
(132,937,o),
(132,737,q),
(154,737,l),
(154,943,o),
(154,1212,o),
(94,1212,qs),
(34,1212,o),
(34,943,o),
(34,601,qs),
(34,323,o),
(34,-6,o),
(94,-6,qs)
);
}
);
width = 198;
},
{
anchors = (
{
name = bottom;
pos = (375,0);
},
{
name = top;
pos = (375,1200);
}
);
layerId = "BA0CA162-2A9B-49EE-921D-3B4346C7D39F";
shapes = (
{
closed = 1;
nodes = (
(736,-10,o),
(736,350,o),
(736,550,q),
(386,550,l),
(386,334,o),
(386,244,o),
(372,244,qs),
(358,244,o),
(358,334,o),
(358,596,qs),
(358,865,o),
(358,955,o),
(372,955,qs),
(386,955,o),
(386,865,o),
(386,642,q),
(736,642,l),
(736,852,o),
(736,1211,o),
(372,1211,qs),
(12,1211,o),
(12,856,o),
(12,596,qs),
(12,336,o),
(12,-10,o),
(372,-10,qs)
);
}
);
width = 750;
},
{
anchors = (
{
name = bottom;
pos = (1019,0);
},
{
name = top;
pos = (1019,1172);
}
);
layerId = "C75D3228-2D13-4E9D-9829-45195F4951D0";
shapes = (
{
closed = 1;
nodes = (
(1328,-16,o),
(1818,122,o),
(1868,170,q),
(1418,466,l),
(1398,439,o),
(1180,344,o),
(1026,344,qs),
(876,344,o),
(636,464,o),
(636,582,qs),
(636,700,o),
(876,820,o),
(1026,820,qs),
(1180,820,o),
(1398,725,o),
(1418,698,q),
(1868,982,l),
(1818,1030,o),
(1328,1182,o),
(1026,1182,qs),
(620,1182,o),
(62,892,o),
(62,582,qs),
(62,272,o),
(620,-16,o),
(1026,-16,qs)
);
}
);
width = 1978;
},
{
anchors = (
{
name = bottom;
pos = (892,0);
},
{
name = top;
pos = (860,1168);
}
);
layerId = "71977205-6510-4B11-BB00-17BACA883C8F";
shapes = (
{
closed = 1;
nodes = (
(1178,-11,o),
(1553,223,o),
(1553,379,q),
(1529,379,l),
(1529,236,o),
(1170,11,o),
(860,11,qs),
(539,11,o),
(118,293,o),
(118,584,qs),
(118,865,o),
(534,1155,o),
(860,1155,qs),
(1171,1155,o),
(1529,920,o),
(1529,789,q),
(1553,789,l),
(1553,935,o),
(1180,1177,o),
(860,1177,qs),
(531,1177,o),
(94,883,o),
(94,584,qs),
(94,275,o),
(531,-11,o),
(860,-11,qs)
);
}
);
width = 1783;
},
{
anchors = (
{
name = bottom;
pos = (762,0);
},
{
name = top;
pos = (969,1172);
}
);
layerId = "5997A0D0-E78E-41EC-9011-DECBEAD8517D";
shapes = (
{
closed = 1;
nodes = (
(1089,-11,o),
(1500,223,o),
(1527,379,q),
(1503,379,l),
(1478,236,o),
(1079,11,o),
(769,11,qs),
(468,11,o),
(128,279,o),
(128,504,qs),
(128,835,o),
(605,1155,o),
(961,1155,qs),
(1272,1155,o),
(1578,920,o),
(1575,789,q),
(1599,789,l),
(1605,935,o),
(1277,1177,o),
(959,1177,qs),
(598,1177,o),
(104,850,o),
(104,504,qs),
(104,261,o),
(462,-11,o),
(771,-11,qs)
);
}
);
width = 1783;
},
{
anchors = (
{
name = bottom;
pos = (275,0);
},
{
name = top;
pos = (486,1200);
}
);
layerId = "55C4185A-9C39-4468-B19C-DE0A3E571700";
shapes = (
{
closed = 1;
nodes = (
(634,-10,o),
(698,350,o),
(733,550,q),
(383,550,l),
(345,334,o),
(329,244,o),
(315,244,qs),
(301,244,o),
(317,334,o),
(363,596,qs),
(411,865,o),
(427,955,o),
(441,955,qs),
(455,955,o),
(439,865,o),
(399,642,q),
(749,642,l),
(786,852,o),
(850,1211,o),
(486,1211,qs),
(126,1211,o),
(63,856,o),
(17,596,qs),
(-29,336,o),
(-90,-10,o),
(270,-10,qs)
);
}
);
width = 750;
},
{
anchors = (
{
name = bottom;
pos = (4,0);
},
{
name = top;
pos = (212,1200);
}
);
layerId = "4F53612F-C4F8-4368-83AD-8913BEEF8F1D";
shapes = (
{
closed = 1;
nodes = (
(59,-6,o),
(117,323,o),
(142,465,q),
(120,465,l),
(96,329,o),
(40,16,o),
(2,16,qs),
(-36,16,o),
(20,329,o),
(68,601,qs),
(127,937,o),
(172,1190,o),
(210,1190,qs),
(248,1190,o),
(203,937,o),
(168,737,q),
(190,737,l),
(226,943,o),
(273,1212,o),
(213,1212,qs),
(153,1212,o),
(106,943,o),
(46,601,qs),
(-3,323,o),
(-61,-6,o),
(-1,-6,qs)
);
}
);
width = 198;
},
{
anchors = (
{
name = bottom;
pos = (894,0);
},
{
name = top;
pos = (1100,1172);
}
);
layerId = "E5A4176B-9C10-4B01-BBC9-D7999ECBFAF8";
shapes = (
{
closed = 1;
nodes = (
(1227,-16,o),
(1732,122,o),
(1790,170,q),
(1392,466,l),
(1368,439,o),
(1133,344,o),
(979,344,qs),
(829,344,o),
(631,458,o),
(631,554,qs),
(631,694,o),
(913,820,o),
(1063,820,qs),
(1217,820,o),
(1418,725,o),
(1433,698,q),
(1933,982,l),
(1892,1030,o),
(1419,1182,o),
(1117,1182,qs),
(711,1182,o),
(57,863,o),
(57,512,qs),
(57,248,o),
(519,-16,o),
(925,-16,qs)
);
}
);
width = 1978;
}
);
note = c;
unicode = 99;
},
{
glyphname = d;
kernLeft = o;
kernRight = l;
layers = (
{
anchors = (
{
name = bottom;
pos = (103,0);
},
{
name = center;
pos = (150,1462);
},
{
name = top;
pos = (86,1345);
},
{
name = topright;
pos = (194,1570);
}
);
layerId = "A1A0948C-E637-4A65-8CCC-05505AD98C44";
shapes = (
{
closed = 1;
nodes = (
(162,0,l),
(162,1570,l),
(140,1570,l),
(140,72,l),
(142,0,l)
);
},
{
pos = (10,0);
ref = dcurve;
}
);
width = 206;
},
{
anchors = (
{
name = bottom;
pos = (369,0);
},
{
name = center;
pos = (526,1382);
},
{
name = top;
pos = (210,1431);
},
{
name = topright;
pos = (739,1570);
}
);
layerId = "BA0CA162-2A9B-49EE-921D-3B4346C7D39F";
shapes = (
{
closed = 1;
nodes = (
(726,0,l),
(726,1570,l),
(382,1570,l),
(382,168,l),
(442,0,l)
);
},
{
ref = dcurve;
}
);
width = 738;
},
{
anchors = (
{
name = bottom;
pos = (1094,0);
},
{
name = center;
pos = (1613,1356);
},
{
name = top;
pos = (870,1172);
},
{
name = topright;
pos = (2089,1570);
}
);
layerId = "C75D3228-2D13-4E9D-9829-45195F4951D0";
shapes = (
{
closed = 1;
nodes = (
(1988,0,l),
(1988,1570,l),
(1432,1570,l),
(1432,156,l),
(1432,0,l)
);
},
{
pos = (22,0);
ref = dcurve;
}
);
width = 2188;
},
{
anchors = (
{
name = bottom;
pos = (956,0);
},
{
name = center;
pos = (1336,1381);
},
{
name = top;
pos = (859,1167);
},
{
name = topright;
pos = (1818,1570);
}
);
layerId = "71977205-6510-4B11-BB00-17BACA883C8F";
shapes = (
{
closed = 1;
nodes = (
(1551,0,l),
(1551,1570,l),
(1529,1570,l),
(1529,366,l),
(1529,0,l)
);
},
{
pos = (83,0);
ref = dcurve;
}
);
width = 1751;
},
{
anchors = (
{
name = bottom;
pos = (917,0);
},
{
name = center;
pos = (1433,1381);
},
{
name = top;
pos = (952,1167);
},
{
name = topright;
pos = (1911,1570);
}
);
layerId = "5997A0D0-E78E-41EC-9011-DECBEAD8517D";
shapes = (
{
closed = 1;
nodes = (
(1441,0,l),
(1717,1570,l),
(1695,1570,l),
(1477,328,l),
(1419,0,l)
);
},
{
pos = (241,0);
ref = dcurve;
}
);
width = 1764;
},
{
anchors = (
{
name = bottom;
pos = (270,0);
},
{
name = center;
pos = (365,536);
},
{
name = top;
pos = (531,1480);
},
{
name = topright;
pos = (808,1072);
}
);
layerId = "55C4185A-9C39-4468-B19C-DE0A3E571700";
shapes = (
{
closed = 1;
nodes = (
(623,0,l),
(899,1570,l),
(555,1570,l),
(309,168,l),
(339,0,l)
);
},
{
pos = (-3,0);
ref = dcurve;
}
);
width = 733;
},
{
anchors = (
{
name = bottom;
pos = (6,0);
},
{
name = center;
pos = (101,536);
},
{
name = top;
pos = (267,1480);
},
{
name = topright;
pos = (280,1072);
}
);
layerId = "4F53612F-C4F8-4368-83AD-8913BEEF8F1D";
shapes = (
{
closed = 1;
nodes = (
(67,0,l),
(343,1570,l),
(321,1570,l),
(57,72,l),
(47,0,l)
);
},
{
pos = (7,0);
ref = dcurve;
}
);
width = 205;
},
{
anchors = (
{
name = bottom;
pos = (1008,0);
},
{
name = center;
pos = (1800,1326);
},
{
name = top;
pos = (980,1172);
},
{
name = topright;
pos = (2320,1570);
}
);
layerId = "E5A4176B-9C10-4B01-BBC9-D7999ECBFAF8";
shapes = (
{
closed = 1;
nodes = (
(1873,0,l),
(2149,1570,l),
(1593,1570,l),
(1345,156,l),
(1317,0,l)
);
},
{
pos = (31,0);
ref = dcurve;
}
);
width = 2174;
}
);
metricLeft = o;
note = d;
unicode = 100;
},
{
glyphname = eth;
kernLeft = o;
kernRight = o;
layers = (
{
layerId = "A1A0948C-E637-4A65-8CCC-05505AD98C44";
shapes = (
{
closed = 1;
nodes = (
(142,-6,o),
(142,248,o),
(142,596,qs),
(142,944,o),
(142,1205,o),
(88,1205,qs),
(34,1205,o),
(34,944,o),
(34,596,qs),
(34,248,o),
(34,-6,o),
(88,-6,qs)
);
},
{
closed = 1;
nodes = (
(56,16,o),
(56,254,o),
(56,596,qs),
(56,938,o),
(56,1183,o),
(88,1183,qs),
(120,1183,o),
(120,938,o),
(120,596,qs),
(120,254,o),
(120,16,o),
(88,16,qs)
);
},
{
closed = 1;
nodes = (
(142,938,o),
(142,992,o),
(142,1056,cs),
(142,1492,o),
(114,1518,o),
(58,1552,c),
(48,1532,l),
(104,1494,o),
(124,1479,o),
(124,868,c),
(142,868,l)
);
},
{
closed = 1;
nodes = (
(152,1536,l),
(136,1546,l),
(48,1404,l),
(64,1390,l)
);
}
);
width = 192;
},
{
layerId = "BA0CA162-2A9B-49EE-921D-3B4346C7D39F";
shapes = (
{
closed = 1;
nodes = (
(728,-10,o),
(728,375,o),
(728,601,qs),
(728,827,o),
(728,1211,o),
(370,1211,qs),
(12,1211,o),
(12,827,o),
(12,601,qs),
(12,375,o),
(12,-10,o),
(370,-10,qs)
);
},
{
closed = 1;
nodes = (
(356,244,o),
(356,339,o),
(356,601,qs),
(356,863,o),
(356,957,o),
(370,957,qs),
(384,957,o),
(384,863,o),
(384,601,qs),
(384,339,o),
(384,244,o),
(370,244,qs)
);
},
{
closed = 1;
nodes = (
(728,774,o),
(728,920,o),
(728,988,cs),
(728,1401,o),
(442,1569,o),
(190,1585,c),
(128,1361,l),
(374,1361,o),
(420,1222,o),
(420,856,c),
(728,686,l)
);
},
{
closed = 1;
nodes = (
(508,1575,l),
(364,1619,l),
(190,1289,l),
(328,1241,l)
);
}
);
width = 738;
},
{
layerId = "C75D3228-2D13-4E9D-9829-45195F4951D0";
shapes = (
{
closed = 1;
nodes = (
(1494,-10,o),
(2054,286,o),
(2054,602,qs),
(2054,799,o),
(1342,1181,o),
(1028,1181,qs),
(602,1181,o),
(80,898,o),
(80,592,qs),
(80,286,o),
(642,-10,o),
(1068,-10,qs)
);
},
{
closed = 1;
nodes = (
(868,352,o),
(638,488,o),
(638,592,qs),
(638,696,o),
(868,839,o),
(1068,839,qs),
(1268,839,o),
(1496,696,o),
(1496,592,qs),
(1496,488,o),
(1268,352,o),
(1068,352,qs)
);
},
{
closed = 1;
nodes = (
(2054,902,o),
(1933,1206,o),
(1679,1352,cs),
(1405,1509,o),
(1116,1597,o),
(554,1597,c),
(436,1303,l),
(1209,1303,o),
(1549,1196,o),
(1549,788,c),
(2054,602,l)
);
},
{
closed = 1;
nodes = (
(1280,1633,l),
(956,1677,l),
(712,1213,l),
(1060,1185,l)
);
}
);
width = 2164;
},
{
layerId = "71977205-6510-4B11-BB00-17BACA883C8F";
shapes = (
{
closed = 1;
nodes = (
(1191,-11,o),
(1566,305,o),
(1566,584,qs),
(1566,863,o),
(1191,1177,o),
(861,1177,qs),
(531,1177,o),
(156,853,o),
(156,584,qs),
(156,315,o),
(531,-11,o),
(861,-11,qs)
);
},
{
closed = 1;
nodes = (
(539,11,o),
(180,330,o),
(180,584,qs),
(180,838,o),
(539,1155,o),
(861,1155,qs),
(1183,1155,o),
(1542,848,o),
(1542,584,qs),
(1542,320,o),
(1183,11,o),
(861,11,qs)
);
},
{
closed = 1;
nodes = (
(1566,776,o),
(1523,989,o),
(1413,1142,cs),
(1285,1319,o),
(1045,1510,o),
(557,1518,c),
(554,1498,l),
(1083,1492,o),
(1544,1247,o),
(1544,584,c),
(1566,584,l)
);
},
{
closed = 1;
nodes = (
(879,1569,l),
(858,1576,l),
(762,1361,l),
(783,1351,l)
);
}
);
width = 1835;
},
{
layerId = "5997A0D0-E78E-41EC-9011-DECBEAD8517D";
shapes = (
{
closed = 1;
nodes = (
(1056,-11,o),
(1482,305,o),
(1531,584,qs),
(1580,863,o),
(1251,1177,o),
(925,1177,qs),
(591,1177,o),
(158,853,o),
(121,584,qs),
(84,313,o),
(396,-11,o),
(726,-11,qs)
);
},
{
closed = 1;
nodes = (
(401,11,o),
(111,328,o),
(145,584,qs),
(180,845,o),
(605,1155,o),
(927,1155,qs),
(1249,1155,o),
(1554,848,o),
(1507,584,qs),
(1460,320,o),
(1047,11,o),
(725,11,qs)
);
},
{
closed = 1;
nodes = (
(1565,776,o),
(1559,989,o),
(1476,1142,cs),
(1380,1319,o),
(1173,1510,o),
(687,1518,c),
(680,1498,l),
(1208,1492,o),
(1626,1247,o),
(1509,584,c),
(1531,584,l)
);
},
{
closed = 1;
nodes = (
(1018,1569,l),
(998,1576,l),
(864,1361,l),
(883,1351,l)
);
}
);
width = 1835;
},
{
layerId = "55C4185A-9C39-4468-B19C-DE0A3E571700";
shapes = (
{
closed = 1;
nodes = (
(622,-10,o),
(690,375,o),
(730,601,qs),
(770,827,o),
(838,1211,o),
(480,1211,qs),
(122,1211,o),
(54,827,o),
(14,601,qs),
(-26,375,o),
(-94,-10,o),
(264,-10,qs)
);
},
{
closed = 1;
nodes = (
(295,244,o),
(312,339,o),
(358,601,qs),
(404,863,o),
(421,957,o),
(435,957,qs),
(449,957,o),
(432,863,o),
(386,601,qs),
(340,339,o),
(323,244,o),
(309,244,qs)
);
},
{
closed = 1;
nodes = (
(761,774,o),
(786,920,o),
(798,988,cs),
(871,1401,o),
(615,1569,o),
(366,1585,c),
(264,1361,l),
(510,1361,o),
(532,1222,o),
(467,856,c),
(745,686,l)
);
},
{
closed = 1;
nodes = (
(682,1575,l),
(546,1619,l),
(313,1289,l),
(443,1241,l)
);
}
);
width = 738;
},
{
layerId = "4F53612F-C4F8-4368-83AD-8913BEEF8F1D";
shapes = (
{
closed = 1;
nodes = (
(45,-6,o),
(89,248,o),
(151,596,qs),
(212,944,o),
(258,1205,o),
(204,1205,qs),
(150,1205,o),
(104,944,o),
(43,596,qs),
(-19,248,o),
(-63,-6,o),
(-9,-6,qs)
);
},
{
closed = 1;
nodes = (
(-37,16,o),
(4,254,o),
(65,596,qs),
(125,938,o),
(168,1183,o),
(200,1183,qs),
(232,1183,o),
(189,938,o),
(129,596,qs),
(68,254,o),
(27,16,o),
(-5,16,qs)
);
},
{
closed = 1;
nodes = (
(211,938,o),
(221,992,o),
(232,1056,cs),
(309,1492,o),
(285,1518,o),
(235,1552,c),
(222,1532,l),
(271,1494,o),
(288,1479,o),
(181,868,c),
(199,868,l)
);
},
{
closed = 1;
nodes = (
(327,1536,l),
(312,1546,l),
(199,1404,l),
(213,1390,l)
);
}
);
width = 192;
},
{
layerId = "E5A4176B-9C10-4B01-BBC9-D7999ECBFAF8";
shapes = (
{
closed = 1;
nodes = (
(1415,-10,o),
(2017,286,o),
(2073,602,qs),
(2108,799,o),
(1453,1181,o),
(1139,1181,qs),
(713,1181,o),
(131,901,o),
(97,592,qs),
(63,286,o),
(563,-10,o),
(989,-10,qs)
);
},
{
closed = 1;
nodes = (
(843,352,o),
(637,488,o),
(655,592,qs),
(674,696,o),
(929,839,o),
(1129,839,qs),
(1329,839,o),
(1532,696,o),
(1513,592,qs),
(1495,488,o),
(1243,352,o),
(1043,352,qs)
);
},
{
closed = 1;
nodes = (
(2126,902,o),
(2059,1186,o),
(1830,1352,cs),
(1594,1523,o),
(1311,1597,o),
(749,1597,c),
(579,1303,l),
(1352,1303,o),
(1673,1196,o),
(1601,788,c),
(2073,602,l)
);
},
{
closed = 1;
nodes = (
(1481,1633,l),
(1165,1677,l),
(839,1213,l),
(1182,1185,l)
);
}
);
width = 2164;
}
);
unicode = 240;
},
{
glyphname = dcaron;
kernLeft = o;
kernRight = l;
layers = (
{
layerId = "A1A0948C-E637-4A65-8CCC-05505AD98C44";
shapes = (
{
closed = 1;
nodes = (
(231,1400,l),
(240,1570,l),
(218,1570,l),
(213,1400,l)
);
},
{
ref = d;
}
);
width = 240;
},
{
layerId = "BA0CA162-2A9B-49EE-921D-3B4346C7D39F";
shapes = (
{
closed = 1;
nodes = (
(996,1230,l),
(1038,1570,l),
(816,1570,l),
(776,1230,l)
);
},
{
ref = d;
}
);
width = 1038;
},
{
layerId = "C75D3228-2D13-4E9D-9829-45195F4951D0";
shapes = (
{
closed = 1;
nodes = (
(2402,1100,l),
(2536,1570,l),
(2182,1570,l),
(2086,1100,l)
);
},
{
ref = d;
}
);
width = 2536;
},
{
layerId = "71977205-6510-4B11-BB00-17BACA883C8F";
shapes = (
{
closed = 1;
nodes = (
(1668,1307,l),
(1717,1570,l),
(1683,1570,l),
(1640,1307,l)
);
},
{
ref = d;
}
);
width = 1707;
},
{
layerId = "5997A0D0-E78E-41EC-9011-DECBEAD8517D";
shapes = (
{
closed = 1;
nodes = (
(1795,1307,l),
(1890,1570,l),
(1856,1570,l),
(1767,1307,l)
);
},
{
ref = d;
}
);
width = 1715;
},
{
layerId = "55C4185A-9C39-4468-B19C-DE0A3E571700";
shapes = (
{
closed = 1;
nodes = (
(1108,1230,l),
(1224,1570,l),
(996,1570,l),
(884,1230,l)
);
},
{
ref = d;
}
);
width = 1072;
},
{
layerId = "4F53612F-C4F8-4368-83AD-8913BEEF8F1D";
shapes = (
{
closed = 1;
nodes = (
(377,1400,l),
(416,1570,l),
(394,1570,l),
(359,1400,l)
);
},
{
ref = d;
}
);
width = 240;
},
{
layerId = "E5A4176B-9C10-4B01-BBC9-D7999ECBFAF8";
shapes = (
{
closed = 1;
nodes = (
(2482,1100,l),
(2688,1570,l),
(2328,1570,l),
(2158,1100,l)
);
},
{
ref = d;
}
);
width = 2505;
}
);
metricLeft = d;
unicode = 271;
},
{
glyphname = dcroat;
kernLeft = o;
kernRight = l;
layers = (
{
layerId = "A1A0948C-E637-4A65-8CCC-05505AD98C44";
shapes = (
{
closed = 1;
nodes = (
(207,1419,l),
(207,1441,l),
(41,1441,l),
(41,1419,l)
);
},
{
ref = d;
}
);
width = 206;
},
{
layerId = "BA0CA162-2A9B-49EE-921D-3B4346C7D39F";
shapes = (
{
closed = 1;
nodes = (
(768,1303,l),
(768,1487,l),
(248,1487,l),
(248,1303,l)
);
},
{
ref = d;
}
);
width = 738;
},
{
layerId = "C75D3228-2D13-4E9D-9829-45195F4951D0";
shapes = (
{
closed = 1;
nodes = (
(2190,1232,l),
(2190,1470,l),
(848,1470,l),
(848,1232,l)
);
},
{
ref = d;
}
);
width = 2190;
},
{
layerId = "71977205-6510-4B11-BB00-17BACA883C8F";
shapes = (
{
closed = 1;
nodes = (
(1751,1377,l),
(1751,1399,l),
(1014,1399,l),
(1014,1377,l)
);
},
{
ref = d;
}
);
width = 1751;
},
{
layerId = "5997A0D0-E78E-41EC-9011-DECBEAD8517D";
shapes = (
{
closed = 1;
nodes = (
(1903,1377,l),
(1907,1399,l),
(1170,1399,l),
(1166,1377,l)
);
},
{
ref = d;
}
);
width = 1764;
},
{
layerId = "55C4185A-9C39-4468-B19C-DE0A3E571700";
shapes = (
{
closed = 1;
nodes = (
(887,1303,l),
(919,1487,l),
(399,1487,l),
(367,1303,l)
);
},
{
ref = d;
}
);
width = 733;
},
{
layerId = "4F53612F-C4F8-4368-83AD-8913BEEF8F1D";
shapes = (
{
closed = 1;
nodes = (
(349,1419,l),
(353,1441,l),
(187,1441,l),
(183,1419,l)
);
},
{
ref = d;
}
);
width = 205;
},
{
layerId = "E5A4176B-9C10-4B01-BBC9-D7999ECBFAF8";
shapes = (
{
closed = 1;
nodes = (
(2304,1232,l),
(2346,1470,l),
(1004,1470,l),
(962,1232,l)
);
},
{
ref = d;
}
);
width = 2190;
}
);
unicode = 273;
},
{
glyphname = e;
kernLeft = o;
kernRight = o;
lastChange = "2020-04-16 23:58:35 +0000";
layers = (
{
anchors = (
{
name = bottom;
pos = (100,0);
},
{
name = ogonek;
pos = (96,0);
},
{
name = top;
pos = (96,1200);
}
);
layerId = "A1A0948C-E637-4A65-8CCC-05505AD98C44";
shapes = (
{
closed = 1;
nodes = (
(95,16,l),
(56,16,o),
(56,332,o),
(56,604,qs),
(56,941,o),
(56,1189,o),
(96,1189,qs),
(136,1189,o),
(136,941,o),
(136,604,q),
(144,615,l),
(48,615,l),
(48,592,l),
(158,592,l),
(158,598,o),
(158,602,q),
(158,955,o),
(158,1211,o),
(96,1211,qs),
(34,1211,o),
(34,945,o),
(34,602,qs),
(34,328,o),
(34,-6,o),
(95,-6,q)
);
},
{
closed = 1;
nodes = (
(92,4,l),
(95,-6,l),
(156,-6,o),
(158,120,o),
(158,460,c),
(136,460,l),
(136,147,o),
(135,16,o),
(95,16,c)
);
}
);
width = 200;
},
{
anchors = (
{
name = bottom;
pos = (376,0);
},
{
name = ogonek;
pos = (384,0);
},
{
name = top;
pos = (376,1200);
}
);
layerId = "BA0CA162-2A9B-49EE-921D-3B4346C7D39F";
shapes = (
{
closed = 1;
nodes = (
(372,244,l),
(360,244,o),
(360,330,o),
(360,606,qs),
(360,866,o),
(360,956,o),
(374,956,qs),
(388,956,o),
(388,866,o),
(388,682,q),
(408,710,l),
(332,710,l),
(332,486,l),
(736,486,l),
(736,542,o),
(736,606,qs),
(736,856,o),
(736,1212,o),
(374,1212,qs),
(12,1212,o),
(12,856,o),
(12,596,qs),
(12,336,o),
(12,-10,o),
(372,-10,q)
);
},
{
closed = 1;
nodes = (
(354,106,l),
(372,-10,l),
(693,-10,o),
(736,72,o),
(736,425,c),
(388,425,l),
(388,280,o),
(387,244,o),
(372,244,c)
);
}
);
width = 748;
},
{
anchors = (
{
name = bottom;
pos = (1073,0);
},
{
name = ogonek;
pos = (1089,0);
},
{
name = top;
pos = (1058,1172);
}
);
layerId = "C75D3228-2D13-4E9D-9829-45195F4951D0";
shapes = (
{
closed = 1;
nodes = (
(1080,312,l),
(876,312,o),
(604,434,o),
(604,576,qs),
(604,726,o),
(866,864,o),
(1060,864,qs),
(1254,864,o),
(1488,758,o),
(1488,702,q),
(1494,748,l),
(556,748,l),
(556,424,l),
(2016,424,l),
(2034,482,o),
(2034,576,qs),
(2034,859,o),
(1478,1184,o),
(1058,1184,qs),
(660,1184,o),
(80,876,o),
(80,576,qs),
(80,276,o),
(664,-16,o),
(1078,-16,q)
);
},
{
closed = 1;
nodes = (
(1042,106,l),
(1078,-16,l),
(1348,-16,o),
(1831,40,o),
(1939,97,c),
(1482,370,l),
(1427,344,o),
(1244,312,o),
(1080,312,c)
);
}
);
width = 2146;
},
{
anchors = (
{
name = bottom;
pos = (874,0);
},
{
name = ogonek;
pos = (891,0);
},
{
name = top;
pos = (878,1168);
}
);
layerId = "71977205-6510-4B11-BB00-17BACA883C8F";
shapes = (
{
closed = 1;
nodes = (
(878,11,l),
(548,11,o),
(154,302,o),
(154,592,qs),
(154,873,o),
(573,1156,o),
(878,1156,qs),
(1191,1156,o),
(1589,879,o),
(1589,592,q),
(1600,603,l),
(142,603,l),
(142,580,l),
(1614,580,l),
(1614,593,o),
(1614,604,qs),
(1614,889,o),
(1200,1178,o),
(878,1178,qs),
(567,1178,o),
(130,888,o),
(130,593,qs),
(130,285,o),
(544,-11,o),
(878,-11,q)
);
},
{
closed = 1;
nodes = (
(875,-1,l),
(878,-11,l),
(1274,-11,o),
(1602,157,o),
(1602,375,c),
(1578,375,l),
(1578,169,o),
(1256,11,o),
(878,11,c)
);
}
);
width = 1831;
},
{
anchors = (
{
name = bottom;
pos = (660,0);
},
{
name = ogonek;
pos = (662,0);
},
{
name = top;
pos = (983,1172);
}
);
layerId = "5997A0D0-E78E-41EC-9011-DECBEAD8517D";
shapes = (
{
closed = 1;
nodes = (
(777,11,l),
(457,11,o),
(124,312,o),
(155,592,qs),
(186,876,o),
(664,1156,o),
(979,1156,qs),
(1282,1156,o),
(1626,872,o),
(1593,592,q),
(1603,603,l),
(145,603,l),
(141,580,l),
(1615,580,l),
(1616,586,o),
(1618,604,qs),
(1650,888,o),
(1287,1178,o),
(978,1178,qs),
(654,1178,o),
(164,890,o),
(132,593,qs),
(100,295,o),
(456,-11,o),
(778,-11,q)
);
},
{
closed = 1;
nodes = (
(772,-1,l),
(778,-11,l),
(1186,-11,o),
(1527,157,o),
(1565,375,c),
(1541,375,l),
(1505,169,o),
(1165,11,o),
(777,11,c)
);
}
);
width = 1831;
},
{
anchors = (
{
name = bottom;
pos = (276,0);
},
{
name = ogonek;
pos = (286,0);
},
{
name = top;
pos = (487,1200);
}
);
layerId = "55C4185A-9C39-4468-B19C-DE0A3E571700";
shapes = (
{
closed = 1;
nodes = (
(313,244,l),
(301,244,o),
(316,330,o),
(365,606,qs),
(411,866,o),
(427,956,o),
(441,956,qs),
(455,956,o),
(439,866,o),
(406,682,q),
(431,710,l),
(355,710,l),
(316,486,l),
(720,486,l),
(730,542,o),
(741,606,qs),
(785,856,o),
(848,1212,o),
(486,1212,qs),
(124,1212,o),
(61,856,o),
(15,596,qs),
(-31,336,o),
(-92,-10,o),
(268,-10,q)
);
},
{
closed = 1;
nodes = (
(271,106,l),
(268,-10,l),
(589,-10,o),
(647,72,o),
(709,425,c),
(361,425,l),
(335,280,o),
(328,244,o),
(313,244,c)
);
}
);
width = 748;
},
{
anchors = (
{
name = bottom;
pos = (6,0);
},
{
name = ogonek;
pos = (7,0);
},
{
name = top;
pos = (212,1200);
}
);
layerId = "4F53612F-C4F8-4368-83AD-8913BEEF8F1D";
shapes = (
{
closed = 1;
nodes = (
(2,16,l),
(-37,16,o),
(18,332,o),
(66,604,qs),
(126,941,o),
(169,1189,o),
(209,1189,qs),
(249,1189,o),
(206,941,o),
(146,604,q),
(156,615,l),
(60,615,l),
(56,592,l),
(166,592,l),
(167,597,o),
(168,603,q),
(230,956,o),
(275,1211,o),
(210,1211,qs),
(151,1211,o),
(104,945,o),
(44,602,qs),
(-4,328,o),
(-63,-6,o),
(0,-6,q)
);
},
{
closed = 1;
nodes = (
(-4,4,l),
(0,-6,l),
(60,-6,o),
(84,119,o),
(143,460,c),
(121,460,l),
(66,147,o),
(42,16,o),
(2,16,c)
);
}
);
width = 200;
},
{
anchors = (
{
name = bottom;
pos = (978,0);
},
{
name = ogonek;
pos = (1000,0);
},
{
name = top;
pos = (1174,1172);
}
);
layerId = "E5A4176B-9C10-4B01-BBC9-D7999ECBFAF8";
shapes = (
{
closed = 1;
nodes = (
(1041,312,l),
(837,312,o),
(597,433,o),
(612,576,qs),
(628,726,o),
(924,864,o),
(1118,864,qs),
(1312,864,o),
(1528,758,o),
(1518,702,q),
(1532,748,l),
(594,748,l),
(537,424,l),
(1997,424,l),
(2025,482,o),
(2042,576,qs),
(2091,859,o),
(1583,1184,o),
(1163,1184,qs),
(765,1184,o),
(122,878,o),
(88,576,qs),
(55,286,o),
(577,-16,o),
(991,-16,q)
);
},
{
closed = 1;
nodes = (
(967,106,l),
(991,-16,l),
(1261,-16,o),
(1744,40,o),
(1862,97,c),
(1453,370,l),
(1394,344,o),
(1205,312,o),
(1041,312,c)
);
}
);
width = 2146;
}
);
note = e;
unicode = 101;
},
{
glyphname = f;
kernLeft = f;
kernRight = f;
lastChange = "2020-04-17 00:01:40 +0000";
layers = (
{
anchors = (
{
name = bottom;
pos = (67,0);
},
{
name = top;
pos = (78,1570);
}
);
layerId = "A1A0948C-E637-4A65-8CCC-05505AD98C44";
shapes = (
{
closed = 1;
nodes = (
(78,0,l),
(78,1178,l),
(138,1178,l),
(138,1200,l),
(78,1200,l),
(78,1435,ls),
(78,1498,o),
(108,1548,o),
(134,1548,qs),
(138,1548,l),
(138,1570,l),
(134,1570,ls),
(96,1570,o),
(56,1499,o),
(56,1437,qs),
(56,1200,l),
(8,1200,l),
(8,1178,l),
(56,1178,l),
(56,0,l)
);
}
);
width = 156;
},
{
anchors = (
{
name = bottom;
pos = (289,0);
},
{
name = top;
pos = (290,1570);
}
);
layerId = "BA0CA162-2A9B-49EE-921D-3B4346C7D39F";
shapes = (
{
closed = 1;
nodes = (
(450,0,l),
(450,950,l),
(566,950,l),
(566,1200,l),
(450,1200,l),
(450,1222,ls),
(450,1274,o),
(496,1320,o),
(544,1320,qs),
(566,1320,l),
(566,1570,l),
(484,1570,ls),
(300,1570,o),
(106,1378,o),
(106,1224,qs),
(106,1200,l),
(12,1200,l),
(12,950,l),
(106,950,l),
(106,0,l)
);
}
);
width = 578;
},
{
anchors = (
{
name = bottom;
pos = (836,0);
},
{
name = top;
pos = (836,1580);
}
);
layerId = "C75D3228-2D13-4E9D-9829-45195F4951D0";
shapes = (
{
closed = 1;
nodes = (
(978,0,l),
(978,810,l),
(1468,810,l),
(1468,1172,l),
(976,1172,l),
(978,1171,l),
(978,1225,o),
(1177,1252,o),
(1508,1252,qs),
(1558,1252,l),
(1558,1590,l),
(1544,1590,ls),
(944,1590,o),
(420,1421,o),
(420,1169,q),
(425,1172,l),
(28,1172,l),
(28,810,l),
(420,810,l),
(420,0,l)
);
}
);
width = 1621;
},
{
anchors = (
{
name = bottom;
pos = (786,0);
},
{
name = top;
pos = (745,1570);
}
);
layerId = "71977205-6510-4B11-BB00-17BACA883C8F";
shapes = (
{
closed = 1;
nodes = (
(524,0,l),
(524,1146,l),
(1191,1146,l),
(1191,1168,l),
(523,1168,l),
(524,1163,l),
(524,1367,o),
(893,1560,o),
(1287,1560,qs),
(1380,1560,l),
(1380,1582,l),
(1292,1582,ls),
(889,1582,o),
(502,1379,o),
(502,1165,q),
(503,1168,l),
(67,1168,l),
(67,1146,l),
(502,1146,l),
(502,0,l)
);
}
);
width = 1473;
},
{
anchors = (
{
name = bottom;
pos = (600,0);
},
{
name = top;
pos = (861,1570);
}
);
layerId = "5997A0D0-E78E-41EC-9011-DECBEAD8517D";
shapes = (
{
closed = 1;
nodes = (
(395,0,l),
(597,1146,l),
(1264,1146,l),
(1267,1168,l),
(599,1168,l),
(600,1163,l),
(636,1367,o),
(1039,1560,o),
(1433,1560,qs),
(1526,1560,l),
(1529,1582,l),
(1441,1582,ls),
(1038,1582,o),
(616,1379,o),
(578,1165,q),
(579,1168,l),
(143,1168,l),
(140,1146,l),
(575,1146,l),
(373,0,l)
);
}
);
width = 1473;
},
{
anchors = (
{
name = bottom;
pos = (196,0);
},
{
name = top;
pos = (457,1480);
}
);
layerId = "55C4185A-9C39-4468-B19C-DE0A3E571700";
shapes = (
{
closed = 1;
nodes = (
(350,0,l),
(517,950,l),
(633,950,l),
(677,1200,l),
(561,1200,l),
(565,1222,ls),
(574,1274,o),
(628,1320,o),
(676,1320,qs),
(698,1320,l),
(742,1570,l),
(660,1570,ls),
(476,1570,o),
(249,1378,o),
(221,1224,qs),
(217,1200,l),
(123,1200,l),
(79,950,l),
(173,950,l),
(6,0,l)
);
}
);
width = 578;
},
{
anchors = (
{
name = bottom;
pos = (-9,0);
},
{
name = top;
pos = (252,1570);
}
);
layerId = "4F53612F-C4F8-4368-83AD-8913BEEF8F1D";
shapes = (
{
closed = 1;
nodes = (
(-21,0,l),
(186,1178,l),
(246,1178,l),
(250,1200,l),
(190,1200,l),
(232,1435,ls),
(243,1498,o),
(282,1548,o),
(308,1548,qs),
(312,1548,l),
(315,1570,l),
(311,1570,ls),
(273,1570,o),
(221,1499,o),
(210,1437,qs),
(168,1200,l),
(120,1200,l),
(116,1178,l),
(164,1178,l),
(-43,0,l)
);
}
);
width = 156;
},
{
anchors = (
{
name = bottom;
pos = (651,0);
},
{
name = top;
pos = (972,1570);
}
);
layerId = "E5A4176B-9C10-4B01-BBC9-D7999ECBFAF8";
shapes = (
{
closed = 1;
nodes = (
(878,0,l),
(1021,810,l),
(1511,810,l),
(1574,1172,l),
(1082,1172,l),
(1084,1171,l),
(1094,1225,o),
(1298,1252,o),
(1629,1252,qs),
(1679,1252,l),
(1738,1590,l),
(1724,1590,ls),
(1124,1590,o),
(570,1421,o),
(526,1169,q),
(531,1172,l),
(134,1172,l),
(71,810,l),
(463,810,l),
(320,0,l)
);
}
);
width = 1621;
}
);
note = f;
unicode = 102;
},
{
glyphname = g;
kernLeft = o;
kernRight = u;
lastChange = "2020-04-28 15:24:26 +0000";
layers = (
{
anchors = (
{
name = bottom;
pos = (98,-458);
},
{
name = top;
pos = (105,1200);
}
);
layerId = "A1A0948C-E637-4A65-8CCC-05505AD98C44";
shapes = (
{
closed = 1;
nodes = (
(158,-458,o),
(162,-384,o),
(162,-128,cs),
(162,1200,l),
(140,1200,l),
(140,1086,l),
(140,-126,ls),
(140,-357,o),
(135,-438,o),
(98,-438,cs),
(60,-438,o),
(56,-357,o),
(56,-127,c),
(34,-127,l),
(34,-384,o),
(36,-458,o),
(98,-458,cs)
);
},
{
pos = (10,0);
ref = dcurve;
}
);
width = 196;
},
{
anchors = (
{
name = bottom;
pos = (366,-460);
},
{
name = top;
pos = (369,1200);
}
);
layerId = "BA0CA162-2A9B-49EE-921D-3B4346C7D39F";
shapes = (
{
closed = 1;
nodes = (
(642,-460,o),
(728,-379,o),
(728,28,cs),
(728,1200,l),
(426,1200,l),
(382,1024,l),
(382,26,ls),
(382,-182,o),
(382,-216,o),
(368,-216,cs),
(354,-216,o),
(354,-181,o),
(354,-56,c),
(20,-56,l),
(20,-376,o),
(80,-460,o),
(366,-460,cs)
);
},
{
ref = dcurve;
}
);
width = 740;
},
{
anchors = (
{
name = bottom;
pos = (1018,-480);
},
{
name = top;
pos = (1066,1172);
}
);
layerId = "C75D3228-2D13-4E9D-9829-45195F4951D0";
shapes = (
{
closed = 1;
nodes = (
(1591,-480,o),
(1994,-282,o),
(1994,186,cs),
(1994,1172,l),
(1434,1172,l),
(1434,896,l),
(1434,166,ls),
(1434,-75,o),
(1210,-146,o),
(1018,-146,cs),
(826,-146,o),
(674,-103,o),
(674,-40,c),
(118,-40,l),
(118,-300,o),
(445,-480,o),
(1018,-480,c)
);
},
{
pos = (22,0);
ref = dcurve;
}
);
width = 2194;
},
{
anchors = (
{
name = bottom;
pos = (841,-458);
},
{
name = top;
pos = (866,1168);
}
);
layerId = "71977205-6510-4B11-BB00-17BACA883C8F";
shapes = (
{
closed = 1;
nodes = (
(1236,-458,o),
(1551,-301,o),
(1551,56,cs),
(1551,1168,l),
(1529,1168,l),
(1529,774,l),
(1529,58,ls),
(1529,-294,o),
(1211,-438,o),
(841,-438,cs),
(469,-438,o),
(192,-297,o),
(192,-68,c),
(170,-68,l),
(170,-306,o),
(446,-458,o),
(841,-458,cs)
);
},
{
pos = (83,0);
ref = dcurve;
}
);
width = 1811;
},
{
anchors = (
{
name = bottom;
pos = (650,-458);
},
{
name = top;
pos = (958,1172);
}
);
layerId = "5997A0D0-E78E-41EC-9011-DECBEAD8517D";
shapes = (
{
closed = 1;
nodes = (
(1045,-458,o),
(1387,-301,o),
(1450,56,cs),
(1646,1168,l),
(1624,1168,l),
(1555,774,l),
(1429,58,ls),
(1367,-294,o),
(1023,-438,o),
(653,-438,cs),
(281,-438,o),
(29,-297,o),
(69,-68,c),
(47,-68,l),
(5,-306,o),
(255,-458,o),
(650,-458,cs)
);
},
{
pos = (241,0);
ref = dcurve;
}
);
width = 1824;
},
{
anchors = (
{
name = bottom;
pos = (182,-460);
},
{
name = top;
pos = (471,1200);
}
);
layerId = "55C4185A-9C39-4468-B19C-DE0A3E571700";
shapes = (
{
closed = 1;
nodes = (
(458,-460,o),
(558,-379,o),
(630,28,cs),
(836,1200,l),
(534,1200,l),
(459,1024,l),
(283,26,ls),
(246,-182,o),
(239,-216,o),
(227,-216,cs),
(213,-216,o),
(219,-181,o),
(241,-56,c),
(-93,-56,l),
(-150,-376,o),
(-104,-460,o),
(182,-460,cs)
);
},
{
pos = (-3,0);
ref = dcurve;
}
);
width = 740;
},
{
anchors = (
{
name = bottom;
pos = (-78,-458);
},
{
name = top;
pos = (213,1200);
}
);
layerId = "4F53612F-C4F8-4368-83AD-8913BEEF8F1D";
shapes = (
{
closed = 1;
nodes = (
(-18,-458,o),
(-1,-384,o),
(44,-128,cs),
(278,1200,l),
(256,1200,l),
(236,1086,l),
(22,-126,ls),
(-19,-357,o),
(-38,-438,o),
(-75,-438,cs),
(-113,-438,o),
(-102,-357,o),
(-62,-127,c),
(-84,-127,l),
(-129,-384,o),
(-140,-458,o),
(-78,-458,cs)
);
},
{
pos = (7,0);
ref = dcurve;
}
);
width = 195;
},
{
anchors = (
{
name = bottom;
pos = (814,-480);
},
{
name = top;
pos = (1181,1171);
}
);
layerId = "E5A4176B-9C10-4B01-BBC9-D7999ECBFAF8";
shapes = (
{
closed = 1;
nodes = (
(1387,-480,o),
(1825,-282,o),
(1908,186,cs),
(2082,1172,l),
(1522,1172,l),
(1473,896,l),
(1344,166,ls),
(1301,-75,o),
(1065,-146,o),
(873,-146,cs),
(681,-146,o),
(537,-103,o),
(548,-40,c),
(-8,-40,l),
(-54,-300,o),
(241,-480,o),
(814,-480,c)
);
},
{
pos = (31,0);
ref = dcurve;
}
);
width = 2195;
}
);
metricLeft = o;
note = g;
unicode = 103;
},
{
glyphname = h;
kernLeft = h;
kernRight = n;
layers = (
{
anchors = (
{
name = bottom;
pos = (101,0);
},
{
name = center;
pos = (39,1462);
},
{
name = top;
pos = (101,1531);
}
);
layerId = "A1A0948C-E637-4A65-8CCC-05505AD98C44";
shapes = (
{
closed = 1;
nodes = (
(54,0,l),
(54,1570,l),
(32,1570,l),
(32,0,l)
);
},
{
pos = (8,0);
ref = hcurvenew;
}
);
width = 192;
},
{
anchors = (
{
name = bottom;
pos = (369,0);
},
{
name = center;
pos = (181,1382);
},
{
name = top;
pos = (413,1570);
}
);
layerId = "BA0CA162-2A9B-49EE-921D-3B4346C7D39F";
shapes = (
{
closed = 1;
nodes = (
(356,0,l),
(356,1570,l),
(12,1570,l),
(12,0,l)
);
},
{
ref = hcurvenew;
}
);
width = 738;
},
{
anchors = (
{
name = bottom;
pos = (1051,0);
},
{
name = center;
pos = (637,1356);
},
{
name = top;
pos = (1259,1423);
}
);
layerId = "C75D3228-2D13-4E9D-9829-45195F4951D0";
shapes = (
{
closed = 1;
nodes = (
(695,0,l),
(695,1570,l),
(135,1570,l),
(135,0,l)
);
},
{
pos = (7,0);
ref = hcurvenew;
}
);
width = 2135;
},
{
anchors = (
{
name = bottom;
pos = (909,0);
},
{
name = center;
pos = (425,1381);
},
{
name = top;
pos = (845,1448);
}
);
layerId = "71977205-6510-4B11-BB00-17BACA883C8F";
shapes = (
{
closed = 1;
nodes = (
(232,0,l),
(232,1570,l),
(210,1570,l),
(210,0,l)
);
},
{
pos = (46,0);
ref = hcurvenew;
}
);
width = 1752;
},
{
anchors = (
{
name = bottom;
pos = (698,0);
},
{
name = center;
pos = (569,1381);
},
{
name = top;
pos = (959,1480);
}
);
layerId = "5997A0D0-E78E-41EC-9011-DECBEAD8517D";
shapes = (
{
closed = 1;
nodes = (
(80,0,l),
(358,1570,l),
(336,1570,l),
(58,0,l)
);
},
{
pos = (30,0);
ref = hcurvenew;
}
);
width = 1754;
},
{
anchors = (
{
name = bottom;
pos = (273,0);
},
{
name = center;
pos = (325,1382);
},
{
name = top;
pos = (571,1556);
}
);
layerId = "55C4185A-9C39-4468-B19C-DE0A3E571700";
shapes = (
{
closed = 1;
nodes = (
(253,0,l),
(531,1570,l),
(187,1570,l),
(-91,0,l)
);
},
{
pos = (1,0);
ref = hcurvenew;
}
);
width = 738;
},
{
anchors = (
{
name = bottom;
pos = (-4,0);
},
{
name = center;
pos = (203,1462);
},
{
name = top;
pos = (257,1570);
}
);
layerId = "4F53612F-C4F8-4368-83AD-8913BEEF8F1D";
shapes = (
{
closed = 1;
nodes = (
(-50,0,l),
(228,1570,l),
(206,1570,l),
(-72,0,l)
);
},
{
pos = (-2,0);
ref = hcurvenew;
}
);
width = 192;
},
{
anchors = (
{
name = bottom;
pos = (980,0);
},
{
name = center;
pos = (791,1356);
},
{
name = top;
pos = (1207,1570);
}
);
layerId = "E5A4176B-9C10-4B01-BBC9-D7999ECBFAF8";
shapes = (
{
closed = 1;
nodes = (
(597,0,l),
(875,1570,l),
(315,1570,l),
(37,0,l)
);
},
{
pos = (31,0);
ref = hcurvenew;
}
);
width = 2118;
}
);
metricRight = n;
note = h;
unicode = 104;
},
{
glyphname = hbar;
kernLeft = h;
kernRight = n;
layers = (
{
layerId = "A1A0948C-E637-4A65-8CCC-05505AD98C44";
shapes = (
{
closed = 1;
nodes = (
(166,1419,l),
(166,1441,l),
(0,1441,l),
(0,1419,l)
);
},
{
ref = h;
}
);
width = 194;
},
{
layerId = "BA0CA162-2A9B-49EE-921D-3B4346C7D39F";
shapes = (
{
closed = 1;
nodes = (
(490,1303,l),
(490,1487,l),
(-30,1487,l),
(-30,1303,l)
);
},
{
ref = h;
}
);
width = 738;
},
{
layerId = "C75D3228-2D13-4E9D-9829-45195F4951D0";
shapes = (
{
closed = 1;
nodes = (
(1342,1232,l),
(1342,1470,l),
(0,1470,l),
(0,1232,l)
);
},
{
ref = h;
}
);
width = 2105;
},
{
layerId = "71977205-6510-4B11-BB00-17BACA883C8F";
shapes = (
{
closed = 1;
nodes = (
(737,1377,l),
(737,1399,l),
(0,1399,l),
(0,1377,l)
);
},
{
pos = (-11,0);
ref = h;
}
);
width = 1546;
},
{
layerId = "5997A0D0-E78E-41EC-9011-DECBEAD8517D";
shapes = (
{
closed = 1;
nodes = (
(876,1377,l),
(880,1399,l),
(143,1399,l),
(139,1377,l)
);
},
{
ref = h;
}
);
width = 1734;
},
{
layerId = "55C4185A-9C39-4468-B19C-DE0A3E571700";
shapes = (
{
closed = 1;
nodes = (
(614,1303,l),
(646,1487,l),
(126,1487,l),
(94,1303,l)
);
},
{
ref = h;
}
);
width = 738;
},
{
layerId = "4F53612F-C4F8-4368-83AD-8913BEEF8F1D";
shapes = (
{
closed = 1;
nodes = (
(310,1419,l),
(314,1441,l),
(148,1441,l),
(144,1419,l)
);
},
{
ref = h;
}
);
width = 194;
},
{
layerId = "E5A4176B-9C10-4B01-BBC9-D7999ECBFAF8";
shapes = (
{
closed = 1;
nodes = (
(1456,1232,l),
(1498,1470,l),
(156,1470,l),
(114,1232,l)
);
},
{
ref = h;
}
);
width = 2088;
}
);
unicode = 295;
},
{
glyphname = i;
kernLeft = i;
kernRight = i;
lastChange = "2020-07-29 16:12:43 +0000";
layers = (
{
anchors = (
{
name = bottom;
pos = (56,0);
}
);
layerId = "A1A0948C-E637-4A65-8CCC-05505AD98C44";
shapes = (
{
closed = 1;
nodes = (
(66,0,l),
(66,1200,l),
(44,1200,l),
(44,0,l)
);
},
{
closed = 1;
nodes = (
(44,1348,l),
(66,1348,l),
(66,1440,l),
(44,1440,l)
);
}
);
width = 120;
},
{
anchors = (
{
name = bottom;
pos = (189,0);
}
);
layerId = "BA0CA162-2A9B-49EE-921D-3B4346C7D39F";
shapes = (
{
closed = 1;
nodes = (
(362,0,l),
(362,1200,l),
(16,1200,l),
(16,0,l)
);
},
{
closed = 1;
nodes = (
(16,1320,l),
(362,1320,l),
(362,1570,l),
(16,1570,l)
);
}
);
width = 378;
},
{
anchors = (
{
name = bottom;
pos = (494,0);
}
);
layerId = "C75D3228-2D13-4E9D-9829-45195F4951D0";
shapes = (
{
closed = 1;
nodes = (
(736,0,l),
(736,1172,l),
(176,1172,l),
(176,0,l)
);
},
{
closed = 1;
nodes = (
(176,1252,l),
(736,1252,l),
(736,1570,l),
(176,1570,l)
);
}
);
width = 947;
},
{
anchors = (
{
name = bottom;
pos = (278,0);
}
);
layerId = "71977205-6510-4B11-BB00-17BACA883C8F";
shapes = (
{
closed = 1;
nodes = (
(288,0,l),
(288,1172,l),
(266,1172,l),
(266,0,l)
);
},
{
closed = 1;
nodes = (
(266,1377,l),
(288,1377,l),
(288,1492,l),
(266,1492,l)
);
}
);
width = 606;
},
{
anchors = (
{
name = bottom;
pos = (193,0);
}
);
layerId = "5997A0D0-E78E-41EC-9011-DECBEAD8517D";
shapes = (
{
closed = 1;
nodes = (
(186,0,l),
(393,1172,l),
(371,1172,l),
(164,0,l)
);
},
{
closed = 1;
nodes = (
(407,1377,l),
(429,1377,l),
(450,1492,l),
(428,1492,l)
);
}
);
width = 606;
},
{
anchors = (
{
name = bottom;
pos = (88,0);
}
);
layerId = "55C4185A-9C39-4468-B19C-DE0A3E571700";
shapes = (
{
closed = 1;
nodes = (
(261,0,l),
(472,1200,l),
(126,1200,l),
(-85,0,l)
);
},
{
closed = 1;
nodes = (
(147,1320,l),
(493,1320,l),
(537,1570,l),
(191,1570,l)
);
}
);
width = 378;
},
{
anchors = (
{
name = bottom;
pos = (-35,0);
}
);
layerId = "4F53612F-C4F8-4368-83AD-8913BEEF8F1D";
shapes = (
{
closed = 1;
nodes = (
(-31,0,l),
(181,1200,l),
(159,1200,l),
(-53,0,l)
);
},
{
closed = 1;
nodes = (
(185,1348,l),
(207,1348,l),
(223,1440,l),
(201,1440,l)
);
}
);
width = 120;
},
{
anchors = (
{
name = bottom;
pos = (396,0);
}
);
layerId = "E5A4176B-9C10-4B01-BBC9-D7999ECBFAF8";
shapes = (
{
closed = 1;
nodes = (
(636,0,l),
(842,1172,l),
(284,1172,l),
(78,0,l)
);
},
{
closed = 1;
nodes = (
(298,1252,l),
(856,1252,l),
(912,1570,l),
(354,1570,l)
);
}
);
width = 947;
}
);
note = i;
unicode = 105;
},
{
glyphname = idotless;
kernLeft = idotless;
kernRight = idotless;
lastChange = "2020-07-29 16:15:31 +0000";
layers = (
{
anchors = (
{
name = bottom;
pos = (45,0);
},
{
name = ogonek;
pos = (56,0);
},
{
name = top;
pos = (45,1200);
}
);
layerId = "A1A0948C-E637-4A65-8CCC-05505AD98C44";
shapes = (
{
closed = 1;
nodes = (
(56,0,l),
(56,1200,l),
(34,1200,l),
(34,0,l)
);
}
);
width = 100;
},
{
anchors = (
{
name = bottom;
pos = (187,0);
},
{
name = ogonek;
pos = (362,0);
},
{
name = top;
pos = (187,1200);
}
);
layerId = "BA0CA162-2A9B-49EE-921D-3B4346C7D39F";
shapes = (
{
closed = 1;
nodes = (
(362,0,l),
(362,1200,l),
(12,1200,l),
(12,0,l)
);
}
);
width = 374;
},
{
anchors = (
{
name = bottom;
pos = (437,0);
},
{
name = ogonek;
pos = (716,0);
},
{
name = top;
pos = (437,1172);
}
);
layerId = "C75D3228-2D13-4E9D-9829-45195F4951D0";
shapes = (
{
closed = 1;
nodes = (
(716,0,l),
(716,1172,l),
(158,1172,l),
(158,0,l)
);
}
);
width = 920;
},
{
anchors = (
{
name = bottom;
pos = (216,0);
},
{
name = ogonek;
pos = (226,0);
},
{
name = top;
pos = (215,1168);
}
);
layerId = "71977205-6510-4B11-BB00-17BACA883C8F";
shapes = (
{
closed = 1;
nodes = (
(226,0,l),
(226,1172,l),
(204,1172,l),
(204,0,l)
);
}
);
width = 521;
},
{
anchors = (
{
name = bottom;
pos = (132,0);
},
{
name = ogonek;
pos = (143,0);
},
{
name = top;
pos = (340,1172);
}
);
layerId = "5997A0D0-E78E-41EC-9011-DECBEAD8517D";
shapes = (
{
closed = 1;
nodes = (
(143,0,l),
(349,1168,l),
(327,1168,l),
(121,0,l)
);
}
);
width = 521;
},
{
anchors = (
{
name = bottom;
pos = (88,0);
},
{
name = ogonek;
pos = (261,0);
},
{
name = top;
pos = (298,1200);
}
);
layerId = "55C4185A-9C39-4468-B19C-DE0A3E571700";
shapes = (
{
closed = 1;
nodes = (
(261,0,l),
(473,1200,l),
(123,1200,l),
(-87,0,l)
);
}
);
width = 374;
},
{
anchors = (
{
name = bottom;
pos = (-49,0);
},
{
name = ogonek;
pos = (-38,0);
},
{
name = top;
pos = (141,1072);
}
);
layerId = "4F53612F-C4F8-4368-83AD-8913BEEF8F1D";
shapes = (
{
closed = 1;
nodes = (
(-38,0,l),
(152,1072,l),
(130,1072,l),
(-60,0,l)
);
}
);
width = 100;
},
{
anchors = (
{
name = bottom;
pos = (296,0);
},
{
name = ogonek;
pos = (578,0);
},
{
name = top;
pos = (506,1172);
}
);
layerId = "E5A4176B-9C10-4B01-BBC9-D7999ECBFAF8";
shapes = (
{
closed = 1;
nodes = (
(578,0,l),
(784,1172,l),
(226,1172,l),
(18,0,l)
);
}
);
width = 920;
}
);
unicode = 305;
},
{
glyphname = iogonek;
kernLeft = i;
kernRight = i;
lastChange = "2020-07-29 16:16:29 +0000";
layers = (
{
layerId = "A1A0948C-E637-4A65-8CCC-05505AD98C44";
shapes = (
{
closed = 1;
nodes = (
(34,1348,l),
(56,1348,l),
(56,1440,l),
(34,1440,l)
);
},
{
ref = idotless;
},
{
pos = (-24,0);
ref = ogonekcomb;
}
);
width = 100;
},
{
layerId = "BA0CA162-2A9B-49EE-921D-3B4346C7D39F";
shapes = (
{
closed = 1;
nodes = (
(16,1320,l),
(362,1320,l),
(362,1570,l),
(16,1570,l)
);
},
{
ref = idotless;
},
{
pos = (90,0);
ref = ogonekcomb;
}
);
width = 374;
},
{
layerId = "C75D3228-2D13-4E9D-9829-45195F4951D0";
shapes = (
{
closed = 1;
nodes = (
(160,1252,l),
(720,1252,l),
(720,1570,l),
(160,1570,l)
);
},
{
ref = idotless;
},
{
pos = (-42,0);
ref = ogonekcomb;
}
);
width = 920;
},
{
layerId = "71977205-6510-4B11-BB00-17BACA883C8F";
shapes = (
{
closed = 1;
nodes = (
(202,1377,l),
(224,1377,l),
(224,1492,l),
(202,1492,l)
);
},
{
ref = idotless;
},
{
pos = (-324,0);
ref = ogonekcomb;
}
);
width = 521;
},
{
layerId = "5997A0D0-E78E-41EC-9011-DECBEAD8517D";
shapes = (
{
closed = 1;
nodes = (
(363,1377,l),
(385,1377,l),
(406,1492,l),
(384,1492,l)
);
},
{
ref = idotless;
},
{
pos = (-280,0);
ref = ogonekcomb;
}
);
width = 521;
},
{
layerId = "55C4185A-9C39-4468-B19C-DE0A3E571700";
shapes = (
{
closed = 1;
nodes = (
(148,1320,l),
(494,1320,l),
(538,1570,l),
(192,1570,l)
);
},
{
ref = idotless;
},
{
pos = (92,0);
ref = ogonekcomb;
}
);
width = 374;
},
{
layerId = "4F53612F-C4F8-4368-83AD-8913BEEF8F1D";
shapes = (
{
closed = 1;
nodes = (
(180,1348,l),
(202,1348,l),
(218,1440,l),
(196,1440,l)
);
},
{
ref = idotless;
},
{
pos = (-25,0);
ref = ogonekcomb;
}
);
width = 100;
},
{
layerId = "E5A4176B-9C10-4B01-BBC9-D7999ECBFAF8";
shapes = (
{
closed = 1;
nodes = (
(244,1252,l),
(802,1252,l),
(858,1570,l),
(300,1570,l)
);
},
{
ref = idotless;
},
{
pos = (-51,0);
ref = ogonekcomb;
}
);
width = 920;
}
);
unicode = 303;
},
{
glyphname = j;
kernLeft = j;
kernRight = i;
lastChange = "2020-04-25 00:56:23 +0000";
layers = (
{
layerId = "A1A0948C-E637-4A65-8CCC-05505AD98C44";
shapes = (
{
closed = 1;
nodes = (
(41,-458,o),
(77,-362,o),
(77,-202,qs),
(77,1200,l),
(55,1200,l),
(55,-200,ls),
(55,-350,o),
(27,-436,o),
(-9,-436,q),
(-9,-458,l)
);
},
{
closed = 1;
nodes = (
(55,1348,l),
(77,1348,l),
(77,1440,l),
(55,1440,l)
);
}
);
width = 131;
},
{
layerId = "BA0CA162-2A9B-49EE-921D-3B4346C7D39F";
shapes = (
{
closed = 1;
nodes = (
(148,-460,o),
(370,-286,o),
(370,2,qs),
(370,1200,l),
(26,1200,l),
(26,-28,ls),
(26,-136,o),
(-18,-202,o),
(-56,-202,q),
(-56,-460,l)
);
},
{
closed = 1;
nodes = (
(26,1320,l),
(372,1320,l),
(372,1570,l),
(26,1570,l)
);
}
);
width = 388;
},
{
layerId = "C75D3228-2D13-4E9D-9829-45195F4951D0";
shapes = (
{
closed = 1;
nodes = (
(285,-460,o),
(791,-187,o),
(791,206,qs),
(791,1172,l),
(233,1172,l),
(233,200,ls),
(233,8,o),
(3,-100,o),
(-211,-100,q),
(-211,-460,l)
);
},
{
closed = 1;
nodes = (
(233,1252,l),
(791,1252,l),
(791,1570,l),
(233,1570,l)
);
}
);
width = 1002;
},
{
layerId = "71977205-6510-4B11-BB00-17BACA883C8F";
shapes = (
{
closed = 1;
nodes = (
(6,-460,o),
(286,-238,o),
(286,-13,qs),
(286,1172,l),
(264,1172,l),
(264,-15,ls),
(264,-227,o),
(-6,-441,o),
(-246,-441,q),
(-246,-460,l)
);
},
{
closed = 1;
nodes = (
(264,1377,l),
(286,1377,l),
(286,1492,l),
(264,1492,l)
);
}
);
width = 604;
},
{
layerId = "5997A0D0-E78E-41EC-9011-DECBEAD8517D";
shapes = (
{
closed = 1;
nodes = (
(-186,-460,o),
(133,-238,o),
(173,-13,qs),
(382,1172,l),
(360,1172,l),
(150,-15,ls),
(112,-227,o),
(-195,-441,o),
(-435,-441,q),
(-438,-460,l)
);
},
{
closed = 1;
nodes = (
(396,1377,l),
(418,1377,l),
(438,1492,l),
(416,1492,l)
);
}
);
width = 595;
},
{
layerId = "55C4185A-9C39-4468-B19C-DE0A3E571700";
shapes = (
{
closed = 1;
nodes = (
(-30,-460,o),
(223,-286,o),
(273,2,qs),
(485,1200,l),
(141,1200,l),
(-76,-28,ls),
(-95,-136,o),
(-150,-202,o),
(-188,-202,q),
(-234,-460,l)
);
},
{
closed = 1;
nodes = (
(162,1320,l),
(508,1320,l),
(552,1570,l),
(206,1570,l)
);
}
);
width = 392;
},
{
layerId = "4F53612F-C4F8-4368-83AD-8913BEEF8F1D";
shapes = (
{
closed = 1;
nodes = (
(-138,-458,o),
(-85,-362,o),
(-57,-202,qs),
(190,1200,l),
(168,1200,l),
(-79,-200,ls),
(-105,-350,o),
(-148,-436,o),
(-184,-436,q),
(-188,-458,l)
);
},
{
closed = 1;
nodes = (
(194,1348,l),
(216,1348,l),
(232,1440,l),
(210,1440,l)
);
}
);
width = 129;
},
{
layerId = "E5A4176B-9C10-4B01-BBC9-D7999ECBFAF8";
shapes = (
{
closed = 1;
nodes = (
(86,-460,o),
(640,-187,o),
(709,206,qs),
(880,1172,l),
(322,1172,l),
(150,200,ls),
(117,8,o),
(-132,-100,o),
(-346,-100,q),
(-410,-460,l)
);
},
{
closed = 1;
nodes = (
(336,1252,l),
(894,1252,l),
(950,1570,l),
(392,1570,l)
);
}
);
width = 985;
}
);
metricRight = i;
note = j;
unicode = 106;
},
{
glyphname = jdotless;
kernLeft = j;
kernRight = j;
lastChange = "2020-04-25 00:56:23 +0000";
layers = (
{
anchors = (
{
name = bottom;
pos = (67,-460);
},
{
name = top;
pos = (67,1200);
}
);
layerId = "A1A0948C-E637-4A65-8CCC-05505AD98C44";
shapes = (
{
closed = 1;
nodes = (
(41,-458,o),
(77,-362,o),
(77,-202,qs),
(77,1200,l),
(55,1200,l),
(55,-200,ls),
(55,-350,o),
(27,-436,o),
(-9,-436,q),
(-9,-458,l)
);
}
);
width = 131;
},
{
anchors = (
{
name = bottom;
pos = (197,-460);
},
{
name = top;
pos = (197,1200);
}
);
layerId = "BA0CA162-2A9B-49EE-921D-3B4346C7D39F";
shapes = (
{
closed = 1;
nodes = (
(148,-460,o),
(370,-286,o),
(370,2,qs),
(370,1200,l),
(26,1200,l),
(26,-28,ls),
(26,-136,o),
(-18,-202,o),
(-56,-202,q),
(-56,-460,l)
);
}
);
width = 386;
},
{
anchors = (
{
name = bottom;
pos = (283,-460);
},
{
name = top;
pos = (283,1172);
}
);
layerId = "71977205-6510-4B11-BB00-17BACA883C8F";
shapes = (
{
closed = 1;
nodes = (
(6,-460,o),
(286,-238,o),
(286,-13,qs),
(286,1172,l),
(264,1172,l),
(264,-15,ls),
(264,-227,o),
(-6,-441,o),
(-246,-441,q),
(-246,-460,l)
);
}
);
width = 604;
},
{
anchors = (
{
name = bottom;
pos = (502,-460);
},
{
name = top;
pos = (502,1172);
}
);
layerId = "C75D3228-2D13-4E9D-9829-45195F4951D0";
shapes = (
{
closed = 1;
nodes = (
(285,-460,o),
(791,-187,o),
(791,206,qs),
(791,1172,l),
(233,1172,l),
(233,200,ls),
(233,8,o),
(3,-100,o),
(-211,-100,q),
(-211,-460,l)
);
}
);
width = 1002;
},
{
anchors = (
{
name = bottom;
pos = (-119,-460);
},
{
name = top;
pos = (174,1200);
}
);
layerId = "4F53612F-C4F8-4368-83AD-8913BEEF8F1D";
shapes = (
{
closed = 1;
nodes = (
(-138,-458,o),
(-85,-362,o),
(-57,-202,qs),
(191,1200,l),
(169,1200,l),
(-78,-200,ls),
(-105,-350,o),
(-148,-436,o),
(-184,-436,q),
(-188,-458,l)
);
}
);
width = 130;
},
{
anchors = (
{
name = bottom;
pos = (10,-460);
},
{
name = top;
pos = (303,1200);
}
);
layerId = "55C4185A-9C39-4468-B19C-DE0A3E571700";
shapes = (
{
closed = 1;
nodes = (
(-30,-460,o),
(223,-286,o),
(273,2,qs),
(485,1200,l),
(141,1200,l),
(-76,-28,ls),
(-95,-136,o),
(-150,-202,o),
(-188,-202,q),
(-234,-460,l)
);
}
);
width = 390;
},
{
anchors = (
{
name = bottom;
pos = (99,-460);
},
{
name = top;
pos = (386,1172);
}
);
layerId = "5997A0D0-E78E-41EC-9011-DECBEAD8517D";
shapes = (
{
closed = 1;
nodes = (
(-186,-460,o),
(133,-238,o),
(173,-13,qs),
(382,1172,l),
(360,1172,l),
(150,-15,ls),
(112,-227,o),
(-195,-441,o),
(-435,-441,q),
(-438,-460,l)
);
}
);
width = 595;
},
{
anchors = (
{
name = bottom;
pos = (318,-460);
},
{
name = top;
pos = (605,1172);
}
);
layerId = "E5A4176B-9C10-4B01-BBC9-D7999ECBFAF8";
shapes = (
{
closed = 1;
nodes = (
(86,-460,o),
(640,-187,o),
(709,206,qs),
(880,1172,l),
(322,1172,l),
(150,200,ls),
(117,8,o),
(-132,-100,o),
(-346,-100,q),
(-410,-460,l)
);
}
);
width = 985;
}
);
metricLeft = j;
metricRight = j;
unicode = 567;
},
